<?xml version="1.0" encoding="UTF-8" standalone="no"?><svg xmlns="http://www.w3.org/2000/svg" xmlns:xlink="http://www.w3.org/1999/xlink" clip-rule="evenodd" stroke-miterlimit="4.00" viewBox="0 0 808 29"><desc>SVG generated by Keynote</desc><defs></defs><g transform="matrix(1.00, 0.00, -0.00, -1.00, 0.0, 29.0)"><text xml:space="preserve" font-family="LucidaGrande" font-size="20.3" fill="#5FCAC8" transform="matrix(1.00, 0.00, -0.00, -1.00, 0.5, 7.9)">‣</text><text xml:space="preserve" font-family="Helvetica-Bold" font-weight="bold" font-size="29.0" fill="#5FCAC8" transform="matrix(1.00, 0.00, -0.00, -1.00, 30.0, 5.0)">T</text><text xml:space="preserve" font-family="Helvetica-Bold" font-weight="bold" font-size="29.0" fill="#5FCAC8" transform="matrix(1.00, 0.00, -0.00, -1.00, 47.1, 5.0)">M</text><text xml:space="preserve" font-family="Helvetica-Bold" font-weight="bold" font-size="29.0" fill="#5FCAC8" transform="matrix(1.00, 0.00, -0.00, -1.00, 70.7, 5.0)">I</text><text xml:space="preserve" font-family="Helvetica-Bold" font-weight="bold" font-size="29.0" fill="#5FCAC8" transform="matrix(1.00, 0.00, -0.00, -1.00, 78.2, 5.0)"> </text><text xml:space="preserve" font-family="Helvetica-Bold" font-weight="bold" font-size="29.0" fill="#5FCAC8" transform="matrix(1.00, 0.00, -0.00, -1.00, 85.6, 5.0)">O</text><text xml:space="preserve" font-family="Helvetica-Bold" font-weight="bold" font-size="29.0" fill="#5FCAC8" transform="matrix(1.00, 0.00, -0.00, -1.00, 107.6, 5.0)">N</text><text xml:space="preserve" font-family="Helvetica-Bold" font-weight="bold" font-size="29.0" fill="#5FCAC8" transform="matrix(1.00, 0.00, -0.00, -1.00, 128.0, 5.0)"> </text><text xml:space="preserve" font-family="Helvetica-Bold" font-weight="bold" font-size="29.0" fill="#5FCAC8" transform="matrix(1.00, 0.00, -0.00, -1.00, 135.5, 5.0)">W</text><text xml:space="preserve" font-family="Helvetica-Bold" font-weight="bold" font-size="29.0" fill="#5FCAC8" transform="matrix(1.00, 0.00, -0.00, -1.00, 162.3, 5.0)">E</text><text xml:space="preserve" font-family="Helvetica-Bold" font-weight="bold" font-size="29.0" fill="#5FCAC8" transform="matrix(1.00, 0.00, -0.00, -1.00, 181.0, 5.0)">B</text><text xml:space="preserve" font-family="Helvetica-Bold" font-weight="bold" font-size="29.0" fill="#5FCAC8" transform="matrix(1.00, 0.00, -0.00, -1.00, 201.4, 5.0)"> </text><text xml:space="preserve" font-family="Helvetica-Bold" font-weight="bold" font-size="29.0" fill="#5FCAC8" transform="matrix(1.00, 0.00, -0.00, -1.00, 208.9, 5.0)">B</text><text xml:space="preserve" font-family="Helvetica-Bold" font-weight="bold" font-size="29.0" fill="#5FCAC8" transform="matrix(1.00, 0.00, -0.00, -1.00, 229.2, 5.0)">R</text><text xml:space="preserve" font-family="Helvetica-Bold" font-weight="bold" font-size="29.0" fill="#5FCAC8" transform="matrix(1.00, 0.00, -0.00, -1.00, 249.6, 5.0)">O</text><text xml:space="preserve" font-family="Helvetica-Bold" font-weight="bold" font-size="29.0" fill="#5FCAC8" transform="matrix(1.00, 0.00, -0.00, -1.00, 271.5, 5.0)">W</text><text xml:space="preserve" font-family="Helvetica-Bold" font-weight="bold" font-size="29.0" fill="#5FCAC8" transform="matrix(1.00, 0.00, -0.00, -1.00, 298.3, 5.0)">S</text><text xml:space="preserve" font-family="Helvetica-Bold" font-weight="bold" font-size="29.0" fill="#5FCAC8" transform="matrix(1.00, 0.00, -0.00, -1.00, 317.1, 5.0)">E</text><text xml:space="preserve" font-family="Helvetica-Bold" font-weight="bold" font-size="29.0" fill="#5FCAC8" transform="matrix(1.00, 0.00, -0.00, -1.00, 335.8, 5.0)">R</text><text xml:space="preserve" font-family="Helvetica-Bold" font-weight="bold" font-size="29.0" fill="#5FCAC8" transform="matrix(1.00, 0.00, -0.00, -1.00, 356.2, 5.0)">S</text><text xml:space="preserve" font-family="Helvetica-Bold" font-weight="bold" font-size="29.0" fill="#5FCAC8" transform="matrix(1.00, 0.00, -0.00, -1.00, 375.0, 5.0)"> </text><text xml:space="preserve" font-family="Helvetica-Bold" font-weight="bold" font-size="29.0" fill="#5FCAC8" transform="matrix(1.00, 0.00, -0.00, -1.00, 382.4, 5.0)">&amp;</text><text xml:space="preserve" font-family="Helvetica-Bold" font-weight="bold" font-size="29.0" fill="#5FCAC8" transform="matrix(1.00, 0.00, -0.00, -1.00, 402.8, 5.0)">&amp;</text><text xml:space="preserve" font-family="Helvetica-Bold" font-weight="bold" font-size="29.0" fill="#5FCAC8" transform="matrix(1.00, 0.00, -0.00, -1.00, 423.1, 5.0)"> </text><text xml:space="preserve" font-family="Helvetica-Bold" font-weight="bold" font-size="29.0" fill="#5FCAC8" transform="matrix(1.00, 0.00, -0.00, -1.00, 430.6, 5.0)">T</text><text xml:space="preserve" font-family="Helvetica-Bold" font-weight="bold" font-size="29.0" fill="#5FCAC8" transform="matrix(1.00, 0.00, -0.00, -1.00, 447.7, 5.0)">H</text><text xml:space="preserve" font-family="Helvetica-Bold" font-weight="bold" font-size="29.0" fill="#5FCAC8" transform="matrix(1.00, 0.00, -0.00, -1.00, 468.1, 5.0)">E</text><text xml:space="preserve" font-family="Helvetica-Bold" font-weight="bold" font-size="29.0" fill="#5FCAC8" transform="matrix(1.00, 0.00, -0.00, -1.00, 486.9, 5.0)">I</text><text xml:space="preserve" font-family="Helvetica-Bold" font-weight="bold" font-size="29.0" fill="#5FCAC8" transform="matrix(1.00, 0.00, -0.00, -1.00, 494.3, 5.0)">R</text><text xml:space="preserve" font-family="Helvetica-Bold" font-weight="bold" font-size="29.0" fill="#5FCAC8" transform="matrix(1.00, 0.00, -0.00, -1.00, 514.7, 5.0)"> </text><text xml:space="preserve" font-family="Helvetica-Bold" font-weight="bold" font-size="29.0" fill="#5FCAC8" transform="matrix(1.00, 0.00, -0.00, -1.00, 522.2, 5.0)">C</text><text xml:space="preserve" font-family="Helvetica-Bold" font-weight="bold" font-size="29.0" fill="#5FCAC8" transform="matrix(1.00, 0.00, -0.00, -1.00, 542.5, 5.0)">O</text><text xml:space="preserve" font-family="Helvetica-Bold" font-weight="bold" font-size="29.0" fill="#5FCAC8" transform="matrix(1.00, 0.00, -0.00, -1.00, 564.5, 5.0)">M</text><text xml:space="preserve" font-family="Helvetica-Bold" font-weight="bold" font-size="29.0" fill="#5FCAC8" transform="matrix(1.00, 0.00, -0.00, -1.00, 588.1, 5.0)">P</text><text xml:space="preserve" font-family="Helvetica-Bold" font-weight="bold" font-size="29.0" fill="#5FCAC8" transform="matrix(1.00, 0.00, -0.00, -1.00, 606.8, 5.0)">O</text><text xml:space="preserve" font-family="Helvetica-Bold" font-weight="bold" font-size="29.0" fill="#5FCAC8" transform="matrix(1.00, 0.00, -0.00, -1.00, 628.8, 5.0)">N</text><text xml:space="preserve" font-family="Helvetica-Bold" font-weight="bold" font-size="29.0" fill="#5FCAC8" transform="matrix(1.00, 0.00, -0.00, -1.00, 649.1, 5.0)">E</text><text xml:space="preserve" font-family="Helvetica-Bold" font-weight="bold" font-size="29.0" fill="#5FCAC8" transform="matrix(1.00, 0.00, -0.00, -1.00, 667.9, 5.0)">N</text><text xml:space="preserve" font-family="Helvetica-Bold" font-weight="bold" font-size="29.0" fill="#5FCAC8" transform="matrix(1.00, 0.00, -0.00, -1.00, 688.3, 5.0)">T</text><text xml:space="preserve" font-family="Helvetica-Bold" font-weight="bold" font-size="29.0" fill="#5FCAC8" transform="matrix(1.00, 0.00, -0.00, -1.00, 705.4, 5.0)"> </text><text xml:space="preserve" font-family="Helvetica-Bold" font-weight="bold" font-size="29.0" fill="#5FCAC8" transform="matrix(1.00, 0.00, -0.00, -1.00, 712.9, 5.0)">P</text><text xml:space="preserve" font-family="Helvetica-Bold" font-weight="bold" font-size="29.0" fill="#5FCAC8" transform="matrix(1.00, 0.00, -0.00, -1.00, 729.5, 5.0)">A</text><text xml:space="preserve" font-family="Helvetica-Bold" font-weight="bold" font-size="29.0" fill="#5FCAC8" transform="matrix(1.00, 0.00, -0.00, -1.00, 749.8, 5.0)">R</text><text xml:space="preserve" font-family="Helvetica-Bold" font-weight="bold" font-size="29.0" fill="#5FCAC8" transform="matrix(1.00, 0.00, -0.00, -1.00, 770.2, 5.0)">T</text><text xml:space="preserve" font-family="Helvetica-Bold" font-weight="bold" font-size="29.0" fill="#5FCAC8" transform="matrix(1.00, 0.00, -0.00, -1.00, 787.3, 5.0)">S</text></g></svg>