<?xml version="1.0" encoding="UTF-8" standalone="no"?><svg xmlns="http://www.w3.org/2000/svg" xmlns:xlink="http://www.w3.org/1999/xlink" clip-rule="evenodd" stroke-miterlimit="4.00" viewBox="0 0 331 28"><desc>SVG generated by Keynote</desc><defs></defs><g transform="matrix(1.00, 0.00, -0.00, -1.00, 0.0, 28.0)"><text xml:space="preserve" font-family="LucidaGrande" font-size="20.3" fill="#5FCAC8" transform="matrix(1.00, 0.00, -0.00, -1.00, 0.5, 7.7)">‣</text><text xml:space="preserve" font-family="Helvetica-Bold" font-weight="bold" font-size="29.0" fill="#5FCAC8" transform="matrix(1.00, 0.00, -0.00, -1.00, 30.0, 5.0)">“</text><text xml:space="preserve" font-family="Helvetica-Bold" font-weight="bold" font-size="29.0" fill="#5FCAC8" transform="matrix(1.00, 0.00, -0.00, -1.00, 43.9, 5.0)">P</text><text xml:space="preserve" font-family="Helvetica-Bold" font-weight="bold" font-size="29.0" fill="#5FCAC8" transform="matrix(1.00, 0.00, -0.00, -1.00, 62.7, 5.0)">I</text><text xml:space="preserve" font-family="Helvetica-Bold" font-weight="bold" font-size="29.0" fill="#5FCAC8" transform="matrix(1.00, 0.00, -0.00, -1.00, 70.2, 5.0)">M</text><text xml:space="preserve" font-family="Helvetica-Bold" font-weight="bold" font-size="29.0" fill="#5FCAC8" transform="matrix(1.00, 0.00, -0.00, -1.00, 93.7, 5.0)">P</text><text xml:space="preserve" font-family="Helvetica-Bold" font-weight="bold" font-size="29.0" fill="#5FCAC8" transform="matrix(1.00, 0.00, -0.00, -1.00, 112.0, 5.0)"> </text><text xml:space="preserve" font-family="Helvetica-Bold" font-weight="bold" font-size="29.0" fill="#5FCAC8" transform="matrix(1.00, 0.00, -0.00, -1.00, 119.5, 5.0)">M</text><text xml:space="preserve" font-family="Helvetica-Bold" font-weight="bold" font-size="29.0" fill="#5FCAC8" transform="matrix(1.00, 0.00, -0.00, -1.00, 143.0, 5.0)">Y</text><text xml:space="preserve" font-family="Helvetica-Bold" font-weight="bold" font-size="29.0" fill="#5FCAC8" transform="matrix(1.00, 0.00, -0.00, -1.00, 161.3, 5.0)"> </text><text xml:space="preserve" font-family="Helvetica-Bold" font-weight="bold" font-size="29.0" fill="#5FCAC8" transform="matrix(1.00, 0.00, -0.00, -1.00, 168.8, 5.0)">B</text><text xml:space="preserve" font-family="Helvetica-Bold" font-weight="bold" font-size="29.0" fill="#5FCAC8" transform="matrix(1.00, 0.00, -0.00, -1.00, 189.1, 5.0)">R</text><text xml:space="preserve" font-family="Helvetica-Bold" font-weight="bold" font-size="29.0" fill="#5FCAC8" transform="matrix(1.00, 0.00, -0.00, -1.00, 209.5, 5.0)">O</text><text xml:space="preserve" font-family="Helvetica-Bold" font-weight="bold" font-size="29.0" fill="#5FCAC8" transform="matrix(1.00, 0.00, -0.00, -1.00, 231.5, 5.0)">W</text><text xml:space="preserve" font-family="Helvetica-Bold" font-weight="bold" font-size="29.0" fill="#5FCAC8" transform="matrix(1.00, 0.00, -0.00, -1.00, 258.2, 5.0)">S</text><text xml:space="preserve" font-family="Helvetica-Bold" font-weight="bold" font-size="29.0" fill="#5FCAC8" transform="matrix(1.00, 0.00, -0.00, -1.00, 277.0, 5.0)">E</text><text xml:space="preserve" font-family="Helvetica-Bold" font-weight="bold" font-size="29.0" fill="#5FCAC8" transform="matrix(1.00, 0.00, -0.00, -1.00, 295.8, 5.0)">R</text><text xml:space="preserve" font-family="Helvetica-Bold" font-weight="bold" font-size="29.0" fill="#5FCAC8" transform="matrix(1.00, 0.00, -0.00, -1.00, 316.1, 5.0)">”</text></g></svg>