<?xml version="1.0" encoding="UTF-8" standalone="no"?><svg xmlns="http://www.w3.org/2000/svg" xmlns:xlink="http://www.w3.org/1999/xlink" clip-rule="evenodd" stroke-miterlimit="4.00" viewBox="0 0 172 28"><desc>SVG generated by Keynote</desc><defs></defs><g transform="matrix(1.00, 0.00, -0.00, -1.00, 0.0, 28.0)"><text xml:space="preserve" font-family="LucidaGrande" font-size="20.3" fill="#5FCAC8" transform="matrix(1.00, 0.00, -0.00, -1.00, 0.5, 7.4)">‣</text><text xml:space="preserve" font-family="Helvetica-Bold" font-weight="bold" font-size="29.0" fill="#5FCAC8" transform="matrix(1.00, 0.00, -0.00, -1.00, 30.0, 4.0)">P</text><text xml:space="preserve" font-family="Helvetica-Bold" font-weight="bold" font-size="29.0" fill="#5FCAC8" transform="matrix(1.00, 0.00, -0.00, -1.00, 48.8, 4.0)">R</text><text xml:space="preserve" font-family="Helvetica-Bold" font-weight="bold" font-size="29.0" fill="#5FCAC8" transform="matrix(1.00, 0.00, -0.00, -1.00, 69.1, 4.0)">O</text><text xml:space="preserve" font-family="Helvetica-Bold" font-weight="bold" font-size="29.0" fill="#5FCAC8" transform="matrix(1.00, 0.00, -0.00, -1.00, 91.1, 4.0)">F</text><text xml:space="preserve" font-family="Helvetica-Bold" font-weight="bold" font-size="29.0" fill="#5FCAC8" transform="matrix(1.00, 0.00, -0.00, -1.00, 108.2, 4.0)">I</text><text xml:space="preserve" font-family="Helvetica-Bold" font-weight="bold" font-size="29.0" fill="#5FCAC8" transform="matrix(1.00, 0.00, -0.00, -1.00, 115.7, 4.0)">L</text><text xml:space="preserve" font-family="Helvetica-Bold" font-weight="bold" font-size="29.0" fill="#5FCAC8" transform="matrix(1.00, 0.00, -0.00, -1.00, 132.8, 4.0)">E</text><text xml:space="preserve" font-family="Helvetica-Bold" font-weight="bold" font-size="29.0" fill="#5FCAC8" transform="matrix(1.00, 0.00, -0.00, -1.00, 151.6, 4.0)">S</text></g></svg>