<?xml version="1.0" encoding="UTF-8" standalone="no"?><svg xmlns="http://www.w3.org/2000/svg" xmlns:xlink="http://www.w3.org/1999/xlink" clip-rule="evenodd" stroke-miterlimit="4.00" viewBox="0 0 658 25"><desc>SVG generated by Keynote</desc><defs></defs><g transform="matrix(1.00, 0.00, -0.00, -1.00, 0.0, 25.0)"><text xml:space="preserve" font-family="LucidaGrande" font-size="15.4" fill="#FEFFFE" transform="matrix(1.00, 0.00, -0.00, -1.00, 0.5, 8.4)">‣</text><text xml:space="preserve" font-family="Helvetica" font-size="22.0" fill="#FEFFFE" transform="matrix(1.00, 0.00, -0.00, -1.00, 14.0, 6.0)">C</text><text xml:space="preserve" font-family="Helvetica" font-size="22.0" fill="#FEFFFE" transform="matrix(1.00, 0.00, -0.00, -1.00, 29.9, 6.0)">m</text><text xml:space="preserve" font-family="Helvetica" font-size="22.0" fill="#FEFFFE" transform="matrix(1.00, 0.00, -0.00, -1.00, 48.2, 6.0)">d</text><text xml:space="preserve" font-family="Helvetica" font-size="22.0" fill="#FEFFFE" transform="matrix(1.00, 0.00, -0.00, -1.00, 60.5, 6.0)">+</text><text xml:space="preserve" font-family="Helvetica" font-size="22.0" fill="#FEFFFE" transform="matrix(1.00, 0.00, -0.00, -1.00, 73.3, 6.0)">O</text><text xml:space="preserve" font-family="Helvetica" font-size="22.0" fill="#FEFFFE" transform="matrix(1.00, 0.00, -0.00, -1.00, 90.4, 6.0)">p</text><text xml:space="preserve" font-family="Helvetica" font-size="22.0" fill="#FEFFFE" transform="matrix(1.00, 0.00, -0.00, -1.00, 102.7, 6.0)">t</text><text xml:space="preserve" font-family="Helvetica" font-size="22.0" fill="#FEFFFE" transform="matrix(1.00, 0.00, -0.00, -1.00, 108.8, 6.0)">+</text><text xml:space="preserve" font-family="Helvetica" font-size="22.0" fill="#FEFFFE" transform="matrix(1.00, 0.00, -0.00, -1.00, 121.6, 6.0)">I</text><text xml:space="preserve" font-family="Helvetica" font-size="22.0" fill="#FEFFFE" transform="matrix(1.00, 0.00, -0.00, -1.00, 127.7, 6.0)"> </text><text xml:space="preserve" font-family="Helvetica" font-size="22.0" fill="#FEFFFE" transform="matrix(1.00, 0.00, -0.00, -1.00, 133.8, 6.0)">t</text><text xml:space="preserve" font-family="Helvetica" font-size="22.0" fill="#FEFFFE" transform="matrix(1.00, 0.00, -0.00, -1.00, 139.9, 6.0)">o</text><text xml:space="preserve" font-family="Helvetica" font-size="22.0" fill="#FEFFFE" transform="matrix(1.00, 0.00, -0.00, -1.00, 152.2, 6.0)"> </text><text xml:space="preserve" font-family="Helvetica" font-size="22.0" fill="#FEFFFE" transform="matrix(1.00, 0.00, -0.00, -1.00, 158.3, 6.0)">o</text><text xml:space="preserve" font-family="Helvetica" font-size="22.0" fill="#FEFFFE" transform="matrix(1.00, 0.00, -0.00, -1.00, 170.5, 6.0)">p</text><text xml:space="preserve" font-family="Helvetica" font-size="22.0" fill="#FEFFFE" transform="matrix(1.00, 0.00, -0.00, -1.00, 182.8, 6.0)">e</text><text xml:space="preserve" font-family="Helvetica" font-size="22.0" fill="#FEFFFE" transform="matrix(1.00, 0.00, -0.00, -1.00, 195.0, 6.0)">n</text><text xml:space="preserve" font-family="Helvetica" font-size="22.0" fill="#FEFFFE" transform="matrix(1.00, 0.00, -0.00, -1.00, 207.2, 6.0)"> </text><text xml:space="preserve" font-family="Helvetica" font-size="22.0" fill="#FEFFFE" transform="matrix(1.00, 0.00, -0.00, -1.00, 213.3, 6.0)">t</text><text xml:space="preserve" font-family="Helvetica" font-size="22.0" fill="#FEFFFE" transform="matrix(1.00, 0.00, -0.00, -1.00, 219.5, 6.0)">h</text><text xml:space="preserve" font-family="Helvetica" font-size="22.0" fill="#FEFFFE" transform="matrix(1.00, 0.00, -0.00, -1.00, 231.7, 6.0)">e</text><text xml:space="preserve" font-family="Helvetica" font-size="22.0" fill="#FEFFFE" transform="matrix(1.00, 0.00, -0.00, -1.00, 243.9, 6.0)"> </text><text xml:space="preserve" font-family="Helvetica" font-size="22.0" fill="#FEFFFE" transform="matrix(1.00, 0.00, -0.00, -1.00, 250.0, 6.0)">D</text><text xml:space="preserve" font-family="Helvetica" font-size="22.0" fill="#FEFFFE" transform="matrix(1.00, 0.00, -0.00, -1.00, 265.9, 6.0)">e</text><text xml:space="preserve" font-family="Helvetica" font-size="22.0" fill="#FEFFFE" transform="matrix(1.00, 0.00, -0.00, -1.00, 278.2, 6.0)">v</text><text xml:space="preserve" font-family="Helvetica" font-size="22.0" fill="#FEFFFE" transform="matrix(1.00, 0.00, -0.00, -1.00, 289.2, 6.0)">T</text><text xml:space="preserve" font-family="Helvetica" font-size="22.0" fill="#FEFFFE" transform="matrix(1.00, 0.00, -0.00, -1.00, 300.2, 6.0)">o</text><text xml:space="preserve" font-family="Helvetica" font-size="22.0" fill="#FEFFFE" transform="matrix(1.00, 0.00, -0.00, -1.00, 312.4, 6.0)">o</text><text xml:space="preserve" font-family="Helvetica" font-size="22.0" fill="#FEFFFE" transform="matrix(1.00, 0.00, -0.00, -1.00, 324.7, 6.0)">l</text><text xml:space="preserve" font-family="Helvetica" font-size="22.0" fill="#FEFFFE" transform="matrix(1.00, 0.00, -0.00, -1.00, 329.5, 6.0)">s</text><text xml:space="preserve" font-family="Helvetica" font-size="22.0" fill="#FEFFFE" transform="matrix(1.00, 0.00, -0.00, -1.00, 340.5, 6.0)"> </text><text xml:space="preserve" font-family="Helvetica" font-size="22.0" fill="#A6AAA8" transform="matrix(1.00, 0.00, -0.00, -1.00, 346.6, 6.0)">(</text><text xml:space="preserve" font-family="Helvetica" font-size="22.0" fill="#A6AAA8" transform="matrix(1.00, 0.00, -0.00, -1.00, 354.0, 6.0)">o</text><text xml:space="preserve" font-family="Helvetica" font-size="22.0" fill="#A6AAA8" transform="matrix(1.00, 0.00, -0.00, -1.00, 366.2, 6.0)">r</text><text xml:space="preserve" font-family="Helvetica" font-size="22.0" fill="#A6AAA8" transform="matrix(1.00, 0.00, -0.00, -1.00, 373.5, 6.0)"> </text><text xml:space="preserve" font-family="Helvetica" font-size="22.0" fill="#A6AAA8" transform="matrix(1.00, 0.00, -0.00, -1.00, 379.6, 6.0)">r</text><text xml:space="preserve" font-family="Helvetica" font-size="22.0" fill="#A6AAA8" transform="matrix(1.00, 0.00, -0.00, -1.00, 387.0, 6.0)">i</text><text xml:space="preserve" font-family="Helvetica" font-size="22.0" fill="#A6AAA8" transform="matrix(1.00, 0.00, -0.00, -1.00, 391.9, 6.0)">g</text><text xml:space="preserve" font-family="Helvetica" font-size="22.0" fill="#A6AAA8" transform="matrix(1.00, 0.00, -0.00, -1.00, 404.1, 6.0)">h</text><text xml:space="preserve" font-family="Helvetica" font-size="22.0" fill="#A6AAA8" transform="matrix(1.00, 0.00, -0.00, -1.00, 416.3, 6.0)">t</text><text xml:space="preserve" font-family="Helvetica" font-size="22.0" fill="#A6AAA8" transform="matrix(1.00, 0.00, -0.00, -1.00, 422.4, 6.0)"> </text><text xml:space="preserve" font-family="Helvetica" font-size="22.0" fill="#A6AAA8" transform="matrix(1.00, 0.00, -0.00, -1.00, 428.5, 6.0)">c</text><text xml:space="preserve" font-family="Helvetica" font-size="22.0" fill="#A6AAA8" transform="matrix(1.00, 0.00, -0.00, -1.00, 439.5, 6.0)">l</text><text xml:space="preserve" font-family="Helvetica" font-size="22.0" fill="#A6AAA8" transform="matrix(1.00, 0.00, -0.00, -1.00, 444.4, 6.0)">i</text><text xml:space="preserve" font-family="Helvetica" font-size="22.0" fill="#A6AAA8" transform="matrix(1.00, 0.00, -0.00, -1.00, 449.3, 6.0)">c</text><text xml:space="preserve" font-family="Helvetica" font-size="22.0" fill="#A6AAA8" transform="matrix(1.00, 0.00, -0.00, -1.00, 460.3, 6.0)">k</text><text xml:space="preserve" font-family="Helvetica" font-size="22.0" fill="#A6AAA8" transform="matrix(1.00, 0.00, -0.00, -1.00, 471.3, 6.0)"> </text><text xml:space="preserve" font-family="Helvetica" font-size="22.0" fill="#A6AAA8" transform="matrix(1.00, 0.00, -0.00, -1.00, 477.4, 6.0)">&gt;</text><text xml:space="preserve" font-family="Helvetica" font-size="22.0" fill="#A6AAA8" transform="matrix(1.00, 0.00, -0.00, -1.00, 490.3, 6.0)"> </text><text xml:space="preserve" font-family="Helvetica" font-size="22.0" fill="#A6AAA8" transform="matrix(1.00, 0.00, -0.00, -1.00, 496.4, 6.0)">i</text><text xml:space="preserve" font-family="Helvetica" font-size="22.0" fill="#A6AAA8" transform="matrix(1.00, 0.00, -0.00, -1.00, 501.3, 6.0)">n</text><text xml:space="preserve" font-family="Helvetica" font-size="22.0" fill="#A6AAA8" transform="matrix(1.00, 0.00, -0.00, -1.00, 513.5, 6.0)">s</text><text xml:space="preserve" font-family="Helvetica" font-size="22.0" fill="#A6AAA8" transform="matrix(1.00, 0.00, -0.00, -1.00, 524.5, 6.0)">p</text><text xml:space="preserve" font-family="Helvetica" font-size="22.0" fill="#A6AAA8" transform="matrix(1.00, 0.00, -0.00, -1.00, 536.8, 6.0)">e</text><text xml:space="preserve" font-family="Helvetica" font-size="22.0" fill="#A6AAA8" transform="matrix(1.00, 0.00, -0.00, -1.00, 549.0, 6.0)">c</text><text xml:space="preserve" font-family="Helvetica" font-size="22.0" fill="#A6AAA8" transform="matrix(1.00, 0.00, -0.00, -1.00, 560.0, 6.0)">t</text><text xml:space="preserve" font-family="Helvetica" font-size="22.0" fill="#A6AAA8" transform="matrix(1.00, 0.00, -0.00, -1.00, 566.1, 6.0)"> </text><text xml:space="preserve" font-family="Helvetica" font-size="22.0" fill="#A6AAA8" transform="matrix(1.00, 0.00, -0.00, -1.00, 572.2, 6.0)">e</text><text xml:space="preserve" font-family="Helvetica" font-size="22.0" fill="#A6AAA8" transform="matrix(1.00, 0.00, -0.00, -1.00, 584.5, 6.0)">l</text><text xml:space="preserve" font-family="Helvetica" font-size="22.0" fill="#A6AAA8" transform="matrix(1.00, 0.00, -0.00, -1.00, 589.4, 6.0)">e</text><text xml:space="preserve" font-family="Helvetica" font-size="22.0" fill="#A6AAA8" transform="matrix(1.00, 0.00, -0.00, -1.00, 601.6, 6.0)">m</text><text xml:space="preserve" font-family="Helvetica" font-size="22.0" fill="#A6AAA8" transform="matrix(1.00, 0.00, -0.00, -1.00, 619.9, 6.0)">e</text><text xml:space="preserve" font-family="Helvetica" font-size="22.0" fill="#A6AAA8" transform="matrix(1.00, 0.00, -0.00, -1.00, 632.2, 6.0)">n</text><text xml:space="preserve" font-family="Helvetica" font-size="22.0" fill="#A6AAA8" transform="matrix(1.00, 0.00, -0.00, -1.00, 644.4, 6.0)">t</text><text xml:space="preserve" font-family="Helvetica" font-size="22.0" fill="#A6AAA8" transform="matrix(1.00, 0.00, -0.00, -1.00, 650.5, 6.0)">)</text></g></svg>