<?xml version="1.0" encoding="UTF-8" standalone="no"?><svg xmlns="http://www.w3.org/2000/svg" xmlns:xlink="http://www.w3.org/1999/xlink" clip-rule="evenodd" stroke-miterlimit="4.00" viewBox="0 0 879 246"><desc>SVG generated by Keynote</desc><defs></defs><g transform="matrix(1.00, 0.00, -0.00, -1.00, 0.0, 246.0)"><text xml:space="preserve" font-family="Helvetica-Bold" font-weight="bold" font-size="33.0" fill="#FEFFFE" transform="matrix(1.00, 0.00, -0.00, -1.00, 2.0, 219.0)">T</text><text xml:space="preserve" font-family="Helvetica-Bold" font-weight="bold" font-size="33.0" fill="#FEFFFE" transform="matrix(1.00, 0.00, -0.00, -1.00, 19.1, 219.0)">A</text><text xml:space="preserve" font-family="Helvetica-Bold" font-weight="bold" font-size="33.0" fill="#FEFFFE" transform="matrix(1.00, 0.00, -0.00, -1.00, 42.2, 219.0)">S</text><text xml:space="preserve" font-family="Helvetica-Bold" font-weight="bold" font-size="33.0" fill="#FEFFFE" transform="matrix(1.00, 0.00, -0.00, -1.00, 63.6, 219.0)">K</text><text xml:space="preserve" font-family="Helvetica-Bold" font-weight="bold" font-size="33.0" fill="#FEFFFE" transform="matrix(1.00, 0.00, -0.00, -1.00, 86.8, 219.0)"> </text><text xml:space="preserve" font-family="Helvetica-Bold" font-weight="bold" font-size="33.0" fill="#FEFFFE" transform="matrix(1.00, 0.00, -0.00, -1.00, 95.3, 219.0)">:</text><text xml:space="preserve" font-family="Helvetica-Bold" font-weight="bold" font-size="33.0" fill="#FEFFFE" transform="matrix(1.00, 0.00, -0.00, -1.00, 105.6, 219.0)"> </text><text xml:space="preserve" font-family="Helvetica-Bold" font-weight="bold" font-size="33.0" fill="#FEFFFE" transform="matrix(1.00, 0.00, -0.00, -1.00, 114.1, 219.0)">P</text><text xml:space="preserve" font-family="Helvetica-Bold" font-weight="bold" font-size="33.0" fill="#FEFFFE" transform="matrix(1.00, 0.00, -0.00, -1.00, 133.0, 219.0)">A</text><text xml:space="preserve" font-family="Helvetica-Bold" font-weight="bold" font-size="33.0" fill="#FEFFFE" transform="matrix(1.00, 0.00, -0.00, -1.00, 156.2, 219.0)">I</text><text xml:space="preserve" font-family="Helvetica-Bold" font-weight="bold" font-size="33.0" fill="#FEFFFE" transform="matrix(1.00, 0.00, -0.00, -1.00, 164.7, 219.0)">R</text><text xml:space="preserve" font-family="Helvetica-Bold" font-weight="bold" font-size="33.0" fill="#FEFFFE" transform="matrix(1.00, 0.00, -0.00, -1.00, 187.9, 219.0)"> </text><text xml:space="preserve" font-family="Helvetica-Bold" font-weight="bold" font-size="33.0" fill="#FEFFFE" transform="matrix(1.00, 0.00, -0.00, -1.00, 196.4, 219.0)">U</text><text xml:space="preserve" font-family="Helvetica-Bold" font-weight="bold" font-size="33.0" fill="#FEFFFE" transform="matrix(1.00, 0.00, -0.00, -1.00, 219.6, 219.0)">P</text><text xml:space="preserve" font-family="Helvetica-Bold" font-weight="bold" font-size="33.0" fill="#FEFFFE" transform="matrix(1.00, 0.00, -0.00, -1.00, 240.3, 219.0)"> </text><text xml:space="preserve" font-family="Helvetica-Bold" font-weight="bold" font-size="33.0" fill="#FEFFFE" transform="matrix(1.00, 0.00, -0.00, -1.00, 248.9, 219.0)">&amp;</text><text xml:space="preserve" font-family="Helvetica-Bold" font-weight="bold" font-size="33.0" fill="#FEFFFE" transform="matrix(1.00, 0.00, -0.00, -1.00, 272.0, 219.0)"> </text><text xml:space="preserve" font-family="Helvetica-Bold" font-weight="bold" font-size="33.0" fill="#FEFFFE" transform="matrix(1.00, 0.00, -0.00, -1.00, 280.5, 219.0)">S</text><text xml:space="preserve" font-family="Helvetica-Bold" font-weight="bold" font-size="33.0" fill="#FEFFFE" transform="matrix(1.00, 0.00, -0.00, -1.00, 301.9, 219.0)">P</text><text xml:space="preserve" font-family="Helvetica-Bold" font-weight="bold" font-size="33.0" fill="#FEFFFE" transform="matrix(1.00, 0.00, -0.00, -1.00, 323.2, 219.0)">E</text><text xml:space="preserve" font-family="Helvetica-Bold" font-weight="bold" font-size="33.0" fill="#FEFFFE" transform="matrix(1.00, 0.00, -0.00, -1.00, 344.6, 219.0)">N</text><text xml:space="preserve" font-family="Helvetica-Bold" font-weight="bold" font-size="33.0" fill="#FEFFFE" transform="matrix(1.00, 0.00, -0.00, -1.00, 367.8, 219.0)">D</text><text xml:space="preserve" font-family="Helvetica-Bold" font-weight="bold" font-size="33.0" fill="#FEFFFE" transform="matrix(1.00, 0.00, -0.00, -1.00, 390.9, 219.0)"> </text><text xml:space="preserve" font-family="Helvetica-Bold" font-weight="bold" font-size="33.0" fill="#FEFFFE" transform="matrix(1.00, 0.00, -0.00, -1.00, 399.5, 219.0)">5</text><text xml:space="preserve" font-family="Helvetica-Bold" font-weight="bold" font-size="33.0" fill="#FEFFFE" transform="matrix(1.00, 0.00, -0.00, -1.00, 417.2, 219.0)"> </text><text xml:space="preserve" font-family="Helvetica-Bold" font-weight="bold" font-size="33.0" fill="#FEFFFE" transform="matrix(1.00, 0.00, -0.00, -1.00, 425.7, 219.0)">M</text><text xml:space="preserve" font-family="Helvetica-Bold" font-weight="bold" font-size="33.0" fill="#FEFFFE" transform="matrix(1.00, 0.00, -0.00, -1.00, 452.5, 219.0)">I</text><text xml:space="preserve" font-family="Helvetica-Bold" font-weight="bold" font-size="33.0" fill="#FEFFFE" transform="matrix(1.00, 0.00, -0.00, -1.00, 461.0, 219.0)">N</text><text xml:space="preserve" font-family="Helvetica-Bold" font-weight="bold" font-size="33.0" fill="#FEFFFE" transform="matrix(1.00, 0.00, -0.00, -1.00, 484.2, 219.0)">U</text><text xml:space="preserve" font-family="Helvetica-Bold" font-weight="bold" font-size="33.0" fill="#FEFFFE" transform="matrix(1.00, 0.00, -0.00, -1.00, 507.4, 219.0)">T</text><text xml:space="preserve" font-family="Helvetica-Bold" font-weight="bold" font-size="33.0" fill="#FEFFFE" transform="matrix(1.00, 0.00, -0.00, -1.00, 526.9, 219.0)">E</text><text xml:space="preserve" font-family="Helvetica-Bold" font-weight="bold" font-size="33.0" fill="#FEFFFE" transform="matrix(1.00, 0.00, -0.00, -1.00, 548.2, 219.0)">S</text><text xml:space="preserve" font-family="Helvetica-Bold" font-weight="bold" font-size="33.0" fill="#FEFFFE" transform="matrix(1.00, 0.00, -0.00, -1.00, 569.6, 219.0)"> </text><text xml:space="preserve" font-family="Helvetica-Bold" font-weight="bold" font-size="33.0" fill="#FEFFFE" transform="matrix(1.00, 0.00, -0.00, -1.00, 578.1, 219.0)">L</text><text xml:space="preserve" font-family="Helvetica-Bold" font-weight="bold" font-size="33.0" fill="#FEFFFE" transform="matrix(1.00, 0.00, -0.00, -1.00, 597.6, 219.0)">O</text><text xml:space="preserve" font-family="Helvetica-Bold" font-weight="bold" font-size="33.0" fill="#FEFFFE" transform="matrix(1.00, 0.00, -0.00, -1.00, 622.6, 219.0)">O</text><text xml:space="preserve" font-family="Helvetica-Bold" font-weight="bold" font-size="33.0" fill="#FEFFFE" transform="matrix(1.00, 0.00, -0.00, -1.00, 647.6, 219.0)">K</text><text xml:space="preserve" font-family="Helvetica-Bold" font-weight="bold" font-size="33.0" fill="#FEFFFE" transform="matrix(1.00, 0.00, -0.00, -1.00, 670.8, 219.0)">I</text><text xml:space="preserve" font-family="Helvetica-Bold" font-weight="bold" font-size="33.0" fill="#FEFFFE" transform="matrix(1.00, 0.00, -0.00, -1.00, 679.3, 219.0)">N</text><text xml:space="preserve" font-family="Helvetica-Bold" font-weight="bold" font-size="33.0" fill="#FEFFFE" transform="matrix(1.00, 0.00, -0.00, -1.00, 702.5, 219.0)">G</text><text xml:space="preserve" font-family="Helvetica-Bold" font-weight="bold" font-size="33.0" fill="#FEFFFE" transform="matrix(1.00, 0.00, -0.00, -1.00, 727.5, 219.0)"> </text><text xml:space="preserve" font-family="Helvetica-Bold" font-weight="bold" font-size="33.0" fill="#FEFFFE" transform="matrix(1.00, 0.00, -0.00, -1.00, 734.8, 219.0)">A</text><text xml:space="preserve" font-family="Helvetica-Bold" font-weight="bold" font-size="33.0" fill="#FEFFFE" transform="matrix(1.00, 0.00, -0.00, -1.00, 755.5, 219.0)">T</text><text xml:space="preserve" font-family="Helvetica-Bold" font-weight="bold" font-size="33.0" fill="#FEFFFE" transform="matrix(1.00, 0.00, -0.00, -1.00, 775.0, 219.0)"> </text><text xml:space="preserve" font-family="Helvetica-Bold" font-weight="bold" font-size="33.0" fill="#FEFFFE" transform="matrix(1.00, 0.00, -0.00, -1.00, 783.5, 219.0)">W</text><text xml:space="preserve" font-family="Helvetica-Bold" font-weight="bold" font-size="33.0" fill="#FEFFFE" transform="matrix(1.00, 0.00, -0.00, -1.00, 814.0, 219.0)">H</text><text xml:space="preserve" font-family="Helvetica-Bold" font-weight="bold" font-size="33.0" fill="#FEFFFE" transform="matrix(1.00, 0.00, -0.00, -1.00, 837.2, 219.0)">A</text><text xml:space="preserve" font-family="Helvetica-Bold" font-weight="bold" font-size="33.0" fill="#FEFFFE" transform="matrix(1.00, 0.00, -0.00, -1.00, 857.9, 219.0)">T</text><text xml:space="preserve" font-family="Helvetica-Bold" font-weight="bold" font-size="33.0" fill="#FEFFFE" transform="matrix(1.00, 0.00, -0.00, -1.00, 877.4, 219.0)"> </text><text xml:space="preserve" font-family="Helvetica-Bold" font-weight="bold" font-size="33.0" fill="#FEFFFE" transform="matrix(1.00, 0.00, -0.00, -1.00, 78.0, 179.0)">E</text><text xml:space="preserve" font-family="Helvetica-Bold" font-weight="bold" font-size="33.0" fill="#FEFFFE" transform="matrix(1.00, 0.00, -0.00, -1.00, 99.4, 179.0)">A</text><text xml:space="preserve" font-family="Helvetica-Bold" font-weight="bold" font-size="33.0" fill="#FEFFFE" transform="matrix(1.00, 0.00, -0.00, -1.00, 122.5, 179.0)">C</text><text xml:space="preserve" font-family="Helvetica-Bold" font-weight="bold" font-size="33.0" fill="#FEFFFE" transform="matrix(1.00, 0.00, -0.00, -1.00, 145.7, 179.0)">H</text><text xml:space="preserve" font-family="Helvetica-Bold" font-weight="bold" font-size="33.0" fill="#FEFFFE" transform="matrix(1.00, 0.00, -0.00, -1.00, 168.9, 179.0)"> </text><text xml:space="preserve" font-family="Helvetica-Bold" font-weight="bold" font-size="33.0" fill="#FEFFFE" transform="matrix(1.00, 0.00, -0.00, -1.00, 177.4, 179.0)">T</text><text xml:space="preserve" font-family="Helvetica-Bold" font-weight="bold" font-size="33.0" fill="#FEFFFE" transform="matrix(1.00, 0.00, -0.00, -1.00, 194.4, 179.0)">A</text><text xml:space="preserve" font-family="Helvetica-Bold" font-weight="bold" font-size="33.0" fill="#FEFFFE" transform="matrix(1.00, 0.00, -0.00, -1.00, 217.6, 179.0)">B</text><text xml:space="preserve" font-family="Helvetica-Bold" font-weight="bold" font-size="33.0" fill="#FEFFFE" transform="matrix(1.00, 0.00, -0.00, -1.00, 240.8, 179.0)"> </text><text xml:space="preserve" font-family="Helvetica-Bold" font-weight="bold" font-size="33.0" fill="#FEFFFE" transform="matrix(1.00, 0.00, -0.00, -1.00, 249.3, 179.0)">D</text><text xml:space="preserve" font-family="Helvetica-Bold" font-weight="bold" font-size="33.0" fill="#FEFFFE" transform="matrix(1.00, 0.00, -0.00, -1.00, 272.5, 179.0)">O</text><text xml:space="preserve" font-family="Helvetica-Bold" font-weight="bold" font-size="33.0" fill="#FEFFFE" transform="matrix(1.00, 0.00, -0.00, -1.00, 297.5, 179.0)">E</text><text xml:space="preserve" font-family="Helvetica-Bold" font-weight="bold" font-size="33.0" fill="#FEFFFE" transform="matrix(1.00, 0.00, -0.00, -1.00, 318.8, 179.0)">S</text><text xml:space="preserve" font-family="Helvetica-Bold" font-weight="bold" font-size="33.0" fill="#FEFFFE" transform="matrix(1.00, 0.00, -0.00, -1.00, 340.2, 179.0)"> </text><text xml:space="preserve" font-family="Helvetica-Bold" font-weight="bold" font-size="33.0" fill="#FEFFFE" transform="matrix(1.00, 0.00, -0.00, -1.00, 348.7, 179.0)">&amp;</text><text xml:space="preserve" font-family="Helvetica-Bold" font-weight="bold" font-size="33.0" fill="#FEFFFE" transform="matrix(1.00, 0.00, -0.00, -1.00, 371.8, 179.0)"> </text><text xml:space="preserve" font-family="Helvetica-Bold" font-weight="bold" font-size="33.0" fill="#FEFFFE" transform="matrix(1.00, 0.00, -0.00, -1.00, 380.4, 179.0)">M</text><text xml:space="preserve" font-family="Helvetica-Bold" font-weight="bold" font-size="33.0" fill="#FEFFFE" transform="matrix(1.00, 0.00, -0.00, -1.00, 407.2, 179.0)">A</text><text xml:space="preserve" font-family="Helvetica-Bold" font-weight="bold" font-size="33.0" fill="#FEFFFE" transform="matrix(1.00, 0.00, -0.00, -1.00, 430.4, 179.0)">K</text><text xml:space="preserve" font-family="Helvetica-Bold" font-weight="bold" font-size="33.0" fill="#FEFFFE" transform="matrix(1.00, 0.00, -0.00, -1.00, 453.5, 179.0)">E</text><text xml:space="preserve" font-family="Helvetica-Bold" font-weight="bold" font-size="33.0" fill="#FEFFFE" transform="matrix(1.00, 0.00, -0.00, -1.00, 474.9, 179.0)"> </text><text xml:space="preserve" font-family="Helvetica-Bold" font-weight="bold" font-size="33.0" fill="#FEFFFE" transform="matrix(1.00, 0.00, -0.00, -1.00, 483.4, 179.0)">S</text><text xml:space="preserve" font-family="Helvetica-Bold" font-weight="bold" font-size="33.0" fill="#FEFFFE" transform="matrix(1.00, 0.00, -0.00, -1.00, 504.7, 179.0)">O</text><text xml:space="preserve" font-family="Helvetica-Bold" font-weight="bold" font-size="33.0" fill="#FEFFFE" transform="matrix(1.00, 0.00, -0.00, -1.00, 529.7, 179.0)">M</text><text xml:space="preserve" font-family="Helvetica-Bold" font-weight="bold" font-size="33.0" fill="#FEFFFE" transform="matrix(1.00, 0.00, -0.00, -1.00, 556.6, 179.0)">E</text><text xml:space="preserve" font-family="Helvetica-Bold" font-weight="bold" font-size="33.0" fill="#FEFFFE" transform="matrix(1.00, 0.00, -0.00, -1.00, 577.9, 179.0)"> </text><text xml:space="preserve" font-family="Helvetica-Bold" font-weight="bold" font-size="33.0" fill="#FEFFFE" transform="matrix(1.00, 0.00, -0.00, -1.00, 586.4, 179.0)">B</text><text xml:space="preserve" font-family="Helvetica-Bold" font-weight="bold" font-size="33.0" fill="#FEFFFE" transform="matrix(1.00, 0.00, -0.00, -1.00, 609.6, 179.0)">R</text><text xml:space="preserve" font-family="Helvetica-Bold" font-weight="bold" font-size="33.0" fill="#FEFFFE" transform="matrix(1.00, 0.00, -0.00, -1.00, 632.8, 179.0)">I</text><text xml:space="preserve" font-family="Helvetica-Bold" font-weight="bold" font-size="33.0" fill="#FEFFFE" transform="matrix(1.00, 0.00, -0.00, -1.00, 641.3, 179.0)">E</text><text xml:space="preserve" font-family="Helvetica-Bold" font-weight="bold" font-size="33.0" fill="#FEFFFE" transform="matrix(1.00, 0.00, -0.00, -1.00, 662.6, 179.0)">F</text><text xml:space="preserve" font-family="Helvetica-Bold" font-weight="bold" font-size="33.0" fill="#FEFFFE" transform="matrix(1.00, 0.00, -0.00, -1.00, 682.1, 179.0)"> </text><text xml:space="preserve" font-family="Helvetica-Bold" font-weight="bold" font-size="33.0" fill="#FEFFFE" transform="matrix(1.00, 0.00, -0.00, -1.00, 690.6, 179.0)">N</text><text xml:space="preserve" font-family="Helvetica-Bold" font-weight="bold" font-size="33.0" fill="#FEFFFE" transform="matrix(1.00, 0.00, -0.00, -1.00, 713.8, 179.0)">O</text><text xml:space="preserve" font-family="Helvetica-Bold" font-weight="bold" font-size="33.0" fill="#FEFFFE" transform="matrix(1.00, 0.00, -0.00, -1.00, 738.8, 179.0)">T</text><text xml:space="preserve" font-family="Helvetica-Bold" font-weight="bold" font-size="33.0" fill="#FEFFFE" transform="matrix(1.00, 0.00, -0.00, -1.00, 758.3, 179.0)">E</text><text xml:space="preserve" font-family="Helvetica-Bold" font-weight="bold" font-size="33.0" fill="#FEFFFE" transform="matrix(1.00, 0.00, -0.00, -1.00, 779.7, 179.0)">S</text><text xml:space="preserve" font-family="Helvetica-Bold" font-weight="bold" font-size="33.0" fill="#FEFFFE" transform="matrix(1.00, 0.00, -0.00, -1.00, 801.0, 179.0)"> </text><text xml:space="preserve" font-family="Helvetica-Bold" font-weight="bold" font-size="33.0" fill="#DCDDE0" transform="matrix(1.00, 0.00, -0.00, -1.00, 355.0, 127.0)">F</text><text xml:space="preserve" font-family="Helvetica-Bold" font-weight="bold" font-size="33.0" fill="#DCDDE0" transform="matrix(1.00, 0.00, -0.00, -1.00, 374.5, 127.0)">O</text><text xml:space="preserve" font-family="Helvetica-Bold" font-weight="bold" font-size="33.0" fill="#DCDDE0" transform="matrix(1.00, 0.00, -0.00, -1.00, 399.5, 127.0)">C</text><text xml:space="preserve" font-family="Helvetica-Bold" font-weight="bold" font-size="33.0" fill="#DCDDE0" transform="matrix(1.00, 0.00, -0.00, -1.00, 422.7, 127.0)">U</text><text xml:space="preserve" font-family="Helvetica-Bold" font-weight="bold" font-size="33.0" fill="#DCDDE0" transform="matrix(1.00, 0.00, -0.00, -1.00, 445.8, 127.0)">S</text><text xml:space="preserve" font-family="Helvetica-Bold" font-weight="bold" font-size="33.0" fill="#DCDDE0" transform="matrix(1.00, 0.00, -0.00, -1.00, 467.2, 127.0)"> </text><text xml:space="preserve" font-family="Helvetica-Bold" font-weight="bold" font-size="33.0" fill="#DCDDE0" transform="matrix(1.00, 0.00, -0.00, -1.00, 475.7, 127.0)">O</text><text xml:space="preserve" font-family="Helvetica-Bold" font-weight="bold" font-size="33.0" fill="#DCDDE0" transform="matrix(1.00, 0.00, -0.00, -1.00, 500.7, 127.0)">N</text><text xml:space="preserve" font-family="Helvetica-Bold" font-weight="bold" font-size="21.0" fill="#DCDDE0" transform="matrix(1.00, 0.00, -0.00, -1.00, 384.0, 87.0)">E</text><text xml:space="preserve" font-family="Helvetica-Bold" font-weight="bold" font-size="21.0" fill="#DCDDE0" transform="matrix(1.00, 0.00, -0.00, -1.00, 397.6, 87.0)">L</text><text xml:space="preserve" font-family="Helvetica-Bold" font-weight="bold" font-size="21.0" fill="#DCDDE0" transform="matrix(1.00, 0.00, -0.00, -1.00, 410.0, 87.0)">E</text><text xml:space="preserve" font-family="Helvetica-Bold" font-weight="bold" font-size="21.0" fill="#DCDDE0" transform="matrix(1.00, 0.00, -0.00, -1.00, 423.6, 87.0)">M</text><text xml:space="preserve" font-family="Helvetica-Bold" font-weight="bold" font-size="21.0" fill="#DCDDE0" transform="matrix(1.00, 0.00, -0.00, -1.00, 440.7, 87.0)">E</text><text xml:space="preserve" font-family="Helvetica-Bold" font-weight="bold" font-size="21.0" fill="#DCDDE0" transform="matrix(1.00, 0.00, -0.00, -1.00, 454.2, 87.0)">N</text><text xml:space="preserve" font-family="Helvetica-Bold" font-weight="bold" font-size="21.0" fill="#DCDDE0" transform="matrix(1.00, 0.00, -0.00, -1.00, 469.0, 87.0)">T</text><text xml:space="preserve" font-family="Helvetica-Bold" font-weight="bold" font-size="21.0" fill="#DCDDE0" transform="matrix(1.00, 0.00, -0.00, -1.00, 481.4, 87.0)">S</text><text xml:space="preserve" font-family="Helvetica-Bold" font-weight="bold" font-size="21.0" fill="#DCDDE0" transform="matrix(1.00, 0.00, -0.00, -1.00, 389.0, 59.0)">C</text><text xml:space="preserve" font-family="Helvetica-Bold" font-weight="bold" font-size="21.0" fill="#DCDDE0" transform="matrix(1.00, 0.00, -0.00, -1.00, 403.7, 59.0)">O</text><text xml:space="preserve" font-family="Helvetica-Bold" font-weight="bold" font-size="21.0" fill="#DCDDE0" transform="matrix(1.00, 0.00, -0.00, -1.00, 419.7, 59.0)">N</text><text xml:space="preserve" font-family="Helvetica-Bold" font-weight="bold" font-size="21.0" fill="#DCDDE0" transform="matrix(1.00, 0.00, -0.00, -1.00, 434.4, 59.0)">S</text><text xml:space="preserve" font-family="Helvetica-Bold" font-weight="bold" font-size="21.0" fill="#DCDDE0" transform="matrix(1.00, 0.00, -0.00, -1.00, 448.0, 59.0)">O</text><text xml:space="preserve" font-family="Helvetica-Bold" font-weight="bold" font-size="21.0" fill="#DCDDE0" transform="matrix(1.00, 0.00, -0.00, -1.00, 463.9, 59.0)">L</text><text xml:space="preserve" font-family="Helvetica-Bold" font-weight="bold" font-size="21.0" fill="#DCDDE0" transform="matrix(1.00, 0.00, -0.00, -1.00, 476.3, 59.0)">E</text><text xml:space="preserve" font-family="Helvetica-Bold" font-weight="bold" font-size="21.0" fill="#DCDDE0" transform="matrix(1.00, 0.00, -0.00, -1.00, 389.0, 30.0)">S</text><text xml:space="preserve" font-family="Helvetica-Bold" font-weight="bold" font-size="21.0" fill="#DCDDE0" transform="matrix(1.00, 0.00, -0.00, -1.00, 402.6, 30.0)">O</text><text xml:space="preserve" font-family="Helvetica-Bold" font-weight="bold" font-size="21.0" fill="#DCDDE0" transform="matrix(1.00, 0.00, -0.00, -1.00, 418.5, 30.0)">U</text><text xml:space="preserve" font-family="Helvetica-Bold" font-weight="bold" font-size="21.0" fill="#DCDDE0" transform="matrix(1.00, 0.00, -0.00, -1.00, 433.2, 30.0)">R</text><text xml:space="preserve" font-family="Helvetica-Bold" font-weight="bold" font-size="21.0" fill="#DCDDE0" transform="matrix(1.00, 0.00, -0.00, -1.00, 448.0, 30.0)">C</text><text xml:space="preserve" font-family="Helvetica-Bold" font-weight="bold" font-size="21.0" fill="#DCDDE0" transform="matrix(1.00, 0.00, -0.00, -1.00, 462.7, 30.0)">E</text><text xml:space="preserve" font-family="Helvetica-Bold" font-weight="bold" font-size="21.0" fill="#DCDDE0" transform="matrix(1.00, 0.00, -0.00, -1.00, 476.3, 30.0)">S</text><text xml:space="preserve" font-family="Helvetica-Bold" font-weight="bold" font-size="21.0" fill="#DCDDE0" transform="matrix(1.00, 0.00, -0.00, -1.00, 387.0, 2.0)">N</text><text xml:space="preserve" font-family="Helvetica-Bold" font-weight="bold" font-size="21.0" fill="#DCDDE0" transform="matrix(1.00, 0.00, -0.00, -1.00, 401.7, 2.0)">E</text><text xml:space="preserve" font-family="Helvetica-Bold" font-weight="bold" font-size="21.0" fill="#DCDDE0" transform="matrix(1.00, 0.00, -0.00, -1.00, 415.3, 2.0)">T</text><text xml:space="preserve" font-family="Helvetica-Bold" font-weight="bold" font-size="21.0" fill="#DCDDE0" transform="matrix(1.00, 0.00, -0.00, -1.00, 427.8, 2.0)">W</text><text xml:space="preserve" font-family="Helvetica-Bold" font-weight="bold" font-size="21.0" fill="#DCDDE0" transform="matrix(1.00, 0.00, -0.00, -1.00, 447.2, 2.0)">O</text><text xml:space="preserve" font-family="Helvetica-Bold" font-weight="bold" font-size="21.0" fill="#DCDDE0" transform="matrix(1.00, 0.00, -0.00, -1.00, 463.1, 2.0)">R</text><text xml:space="preserve" font-family="Helvetica-Bold" font-weight="bold" font-size="21.0" fill="#DCDDE0" transform="matrix(1.00, 0.00, -0.00, -1.00, 477.8, 2.0)">K</text></g></svg>