<?xml version="1.0" encoding="UTF-8" standalone="no"?><svg xmlns="http://www.w3.org/2000/svg" xmlns:xlink="http://www.w3.org/1999/xlink" clip-rule="evenodd" stroke-miterlimit="4.00" viewBox="0 0 339 22"><desc>SVG generated by Keynote</desc><defs></defs><g transform="matrix(1.00, 0.00, -0.00, -1.00, 0.0, 22.0)"><text xml:space="preserve" font-family="LucidaGrande" font-size="15.4" fill="#FEFFFE" transform="matrix(1.00, 0.00, -0.00, -1.00, 0.5, 5.4)">‣</text><text xml:space="preserve" font-family="Helvetica" font-size="22.0" fill="#FEFFFE" transform="matrix(1.00, 0.00, -0.00, -1.00, 14.0, 3.0)">f</text><text xml:space="preserve" font-family="Helvetica" font-size="22.0" fill="#FEFFFE" transform="matrix(1.00, 0.00, -0.00, -1.00, 20.1, 3.0)">o</text><text xml:space="preserve" font-family="Helvetica" font-size="22.0" fill="#FEFFFE" transform="matrix(1.00, 0.00, -0.00, -1.00, 32.3, 3.0)">r</text><text xml:space="preserve" font-family="Helvetica" font-size="22.0" fill="#FEFFFE" transform="matrix(1.00, 0.00, -0.00, -1.00, 39.7, 3.0)"> </text><text xml:space="preserve" font-family="Helvetica" font-size="22.0" fill="#FEFFFE" transform="matrix(1.00, 0.00, -0.00, -1.00, 45.8, 3.0)">P</text><text xml:space="preserve" font-family="Helvetica" font-size="22.0" fill="#FEFFFE" transform="matrix(1.00, 0.00, -0.00, -1.00, 60.5, 3.0)">C</text><text xml:space="preserve" font-family="Helvetica" font-size="22.0" fill="#FEFFFE" transform="matrix(1.00, 0.00, -0.00, -1.00, 76.3, 3.0)"> </text><text xml:space="preserve" font-family="Helvetica" font-size="22.0" fill="#FEFFFE" transform="matrix(1.00, 0.00, -0.00, -1.00, 82.5, 3.0)">u</text><text xml:space="preserve" font-family="Helvetica" font-size="22.0" fill="#FEFFFE" transform="matrix(1.00, 0.00, -0.00, -1.00, 94.7, 3.0)">s</text><text xml:space="preserve" font-family="Helvetica" font-size="22.0" fill="#FEFFFE" transform="matrix(1.00, 0.00, -0.00, -1.00, 105.7, 3.0)">e</text><text xml:space="preserve" font-family="Helvetica" font-size="22.0" fill="#FEFFFE" transform="matrix(1.00, 0.00, -0.00, -1.00, 117.9, 3.0)"> </text><text xml:space="preserve" font-family="Helvetica" font-size="22.0" fill="#FEFFFE" transform="matrix(1.00, 0.00, -0.00, -1.00, 124.0, 3.0)">C</text><text xml:space="preserve" font-family="Helvetica" font-size="22.0" fill="#FEFFFE" transform="matrix(1.00, 0.00, -0.00, -1.00, 139.9, 3.0)">T</text><text xml:space="preserve" font-family="Helvetica" font-size="22.0" fill="#FEFFFE" transform="matrix(1.00, 0.00, -0.00, -1.00, 153.4, 3.0)">R</text><text xml:space="preserve" font-family="Helvetica" font-size="22.0" fill="#FEFFFE" transform="matrix(1.00, 0.00, -0.00, -1.00, 169.3, 3.0)">L</text><text xml:space="preserve" font-family="Helvetica" font-size="22.0" fill="#FEFFFE" transform="matrix(1.00, 0.00, -0.00, -1.00, 180.7, 3.0)"> </text><text xml:space="preserve" font-family="Helvetica" font-size="22.0" fill="#FEFFFE" transform="matrix(1.00, 0.00, -0.00, -1.00, 186.8, 3.0)">i</text><text xml:space="preserve" font-family="Helvetica" font-size="22.0" fill="#FEFFFE" transform="matrix(1.00, 0.00, -0.00, -1.00, 191.7, 3.0)">n</text><text xml:space="preserve" font-family="Helvetica" font-size="22.0" fill="#FEFFFE" transform="matrix(1.00, 0.00, -0.00, -1.00, 203.9, 3.0)">s</text><text xml:space="preserve" font-family="Helvetica" font-size="22.0" fill="#FEFFFE" transform="matrix(1.00, 0.00, -0.00, -1.00, 214.9, 3.0)">t</text><text xml:space="preserve" font-family="Helvetica" font-size="22.0" fill="#FEFFFE" transform="matrix(1.00, 0.00, -0.00, -1.00, 221.0, 3.0)">e</text><text xml:space="preserve" font-family="Helvetica" font-size="22.0" fill="#FEFFFE" transform="matrix(1.00, 0.00, -0.00, -1.00, 233.3, 3.0)">a</text><text xml:space="preserve" font-family="Helvetica" font-size="22.0" fill="#FEFFFE" transform="matrix(1.00, 0.00, -0.00, -1.00, 245.5, 3.0)">d</text><text xml:space="preserve" font-family="Helvetica" font-size="22.0" fill="#FEFFFE" transform="matrix(1.00, 0.00, -0.00, -1.00, 257.8, 3.0)"> </text><text xml:space="preserve" font-family="Helvetica" font-size="22.0" fill="#FEFFFE" transform="matrix(1.00, 0.00, -0.00, -1.00, 263.9, 3.0)">o</text><text xml:space="preserve" font-family="Helvetica" font-size="22.0" fill="#FEFFFE" transform="matrix(1.00, 0.00, -0.00, -1.00, 276.1, 3.0)">f</text><text xml:space="preserve" font-family="Helvetica" font-size="22.0" fill="#FEFFFE" transform="matrix(1.00, 0.00, -0.00, -1.00, 282.2, 3.0)"> </text><text xml:space="preserve" font-family="Helvetica" font-size="22.0" fill="#FEFFFE" transform="matrix(1.00, 0.00, -0.00, -1.00, 288.3, 3.0)">C</text><text xml:space="preserve" font-family="Helvetica" font-size="22.0" fill="#FEFFFE" transform="matrix(1.00, 0.00, -0.00, -1.00, 304.2, 3.0)">M</text><text xml:space="preserve" font-family="Helvetica" font-size="22.0" fill="#FEFFFE" transform="matrix(1.00, 0.00, -0.00, -1.00, 322.5, 3.0)">D</text></g></svg>