<?xml version="1.0" encoding="UTF-8" standalone="no"?><svg xmlns="http://www.w3.org/2000/svg" xmlns:xlink="http://www.w3.org/1999/xlink" clip-rule="evenodd" stroke-miterlimit="4.00" viewBox="0 0 861 41"><desc>SVG generated by Keynote</desc><defs></defs><g transform="matrix(1.00, 0.00, -0.00, -1.00, 0.0, 41.0)"><text xml:space="preserve" font-family="Helvetica-Bold" font-weight="bold" font-size="19.0" fill="#5FCAC8" transform="matrix(1.00, 0.00, -0.00, -1.00, 0.5, 25.2)">3</text><text xml:space="preserve" font-family="Helvetica-Bold" font-weight="bold" font-size="19.0" fill="#5FCAC8" transform="matrix(1.00, 0.00, -0.00, -1.00, 11.1, 25.2)">.</text><text xml:space="preserve" font-family="Helvetica-Bold" font-weight="bold" font-size="19.0" fill="#5FCAC8" transform="matrix(1.00, 0.00, -0.00, -1.00, 46.0, 25.0)">L</text><text xml:space="preserve" font-family="Helvetica-Bold" font-weight="bold" font-size="19.0" fill="#5FCAC8" transform="matrix(1.00, 0.00, -0.00, -1.00, 57.2, 25.0)">E</text><text xml:space="preserve" font-family="Helvetica-Bold" font-weight="bold" font-size="19.0" fill="#5FCAC8" transform="matrix(1.00, 0.00, -0.00, -1.00, 69.5, 25.0)">T</text><text xml:space="preserve" font-family="Helvetica-Bold" font-weight="bold" font-size="19.0" fill="#5FCAC8" transform="matrix(1.00, 0.00, -0.00, -1.00, 80.7, 25.0)">S</text><text xml:space="preserve" font-family="Helvetica-Bold" font-weight="bold" font-size="19.0" fill="#5FCAC8" transform="matrix(1.00, 0.00, -0.00, -1.00, 93.0, 25.0)"> </text><text xml:space="preserve" font-family="Helvetica-Bold" font-weight="bold" font-size="19.0" fill="#5FCAC8" transform="matrix(1.00, 0.00, -0.00, -1.00, 97.9, 25.0)">W</text><text xml:space="preserve" font-family="Helvetica-Bold" font-weight="bold" font-size="19.0" fill="#5FCAC8" transform="matrix(1.00, 0.00, -0.00, -1.00, 115.5, 25.0)">R</text><text xml:space="preserve" font-family="Helvetica-Bold" font-weight="bold" font-size="19.0" fill="#5FCAC8" transform="matrix(1.00, 0.00, -0.00, -1.00, 128.8, 25.0)">I</text><text xml:space="preserve" font-family="Helvetica-Bold" font-weight="bold" font-size="19.0" fill="#5FCAC8" transform="matrix(1.00, 0.00, -0.00, -1.00, 133.7, 25.0)">T</text><text xml:space="preserve" font-family="Helvetica-Bold" font-weight="bold" font-size="19.0" fill="#5FCAC8" transform="matrix(1.00, 0.00, -0.00, -1.00, 144.9, 25.0)">E</text><text xml:space="preserve" font-family="Helvetica-Bold" font-weight="bold" font-size="19.0" fill="#5FCAC8" transform="matrix(1.00, 0.00, -0.00, -1.00, 157.2, 25.0)"> </text><text xml:space="preserve" font-family="Helvetica-Bold" font-weight="bold" font-size="19.0" fill="#5FCAC8" transform="matrix(1.00, 0.00, -0.00, -1.00, 161.4, 25.0)">A</text><text xml:space="preserve" font-family="Helvetica-Bold" font-weight="bold" font-size="19.0" fill="#5FCAC8" transform="matrix(1.00, 0.00, -0.00, -1.00, 174.1, 25.0)"> </text><text xml:space="preserve" font-family="Helvetica-Bold" font-weight="bold" font-size="19.0" fill="#5FCAC8" transform="matrix(1.00, 0.00, -0.00, -1.00, 179.0, 25.0)">“</text><text xml:space="preserve" font-family="Helvetica-Bold" font-weight="bold" font-size="19.0" fill="#5FCAC8" transform="matrix(1.00, 0.00, -0.00, -1.00, 188.1, 25.0)">D</text><text xml:space="preserve" font-family="Helvetica-Bold" font-weight="bold" font-size="19.0" fill="#5FCAC8" transform="matrix(1.00, 0.00, -0.00, -1.00, 201.4, 25.0)">I</text><text xml:space="preserve" font-family="Helvetica-Bold" font-weight="bold" font-size="19.0" fill="#5FCAC8" transform="matrix(1.00, 0.00, -0.00, -1.00, 206.3, 25.0)">S</text><text xml:space="preserve" font-family="Helvetica-Bold" font-weight="bold" font-size="19.0" fill="#5FCAC8" transform="matrix(1.00, 0.00, -0.00, -1.00, 218.6, 25.0)">P</text><text xml:space="preserve" font-family="Helvetica-Bold" font-weight="bold" font-size="19.0" fill="#5FCAC8" transform="matrix(1.00, 0.00, -0.00, -1.00, 230.9, 25.0)">L</text><text xml:space="preserve" font-family="Helvetica-Bold" font-weight="bold" font-size="19.0" fill="#5FCAC8" transform="matrix(1.00, 0.00, -0.00, -1.00, 242.1, 25.0)">A</text><text xml:space="preserve" font-family="Helvetica-Bold" font-weight="bold" font-size="19.0" fill="#5FCAC8" transform="matrix(1.00, 0.00, -0.00, -1.00, 253.7, 25.0)">Y</text><text xml:space="preserve" font-family="Helvetica-Bold" font-weight="bold" font-size="19.0" fill="#5FCAC8" transform="matrix(1.00, 0.00, -0.00, -1.00, 265.7, 25.0)"> </text><text xml:space="preserve" font-family="Helvetica-Bold" font-weight="bold" font-size="19.0" fill="#5FCAC8" transform="matrix(1.00, 0.00, -0.00, -1.00, 270.6, 25.0)">M</text><text xml:space="preserve" font-family="Helvetica-Bold" font-weight="bold" font-size="19.0" fill="#5FCAC8" transform="matrix(1.00, 0.00, -0.00, -1.00, 286.0, 25.0)">E</text><text xml:space="preserve" font-family="Helvetica-Bold" font-weight="bold" font-size="19.0" fill="#5FCAC8" transform="matrix(1.00, 0.00, -0.00, -1.00, 298.3, 25.0)">S</text><text xml:space="preserve" font-family="Helvetica-Bold" font-weight="bold" font-size="19.0" fill="#5FCAC8" transform="matrix(1.00, 0.00, -0.00, -1.00, 310.6, 25.0)">S</text><text xml:space="preserve" font-family="Helvetica-Bold" font-weight="bold" font-size="19.0" fill="#5FCAC8" transform="matrix(1.00, 0.00, -0.00, -1.00, 322.9, 25.0)">A</text><text xml:space="preserve" font-family="Helvetica-Bold" font-weight="bold" font-size="19.0" fill="#5FCAC8" transform="matrix(1.00, 0.00, -0.00, -1.00, 336.2, 25.0)">G</text><text xml:space="preserve" font-family="Helvetica-Bold" font-weight="bold" font-size="19.0" fill="#5FCAC8" transform="matrix(1.00, 0.00, -0.00, -1.00, 350.6, 25.0)">E</text><text xml:space="preserve" font-family="Helvetica-Bold" font-weight="bold" font-size="19.0" fill="#5FCAC8" transform="matrix(1.00, 0.00, -0.00, -1.00, 362.9, 25.0)">”</text><text xml:space="preserve" font-family="Helvetica-Bold" font-weight="bold" font-size="19.0" fill="#5FCAC8" transform="matrix(1.00, 0.00, -0.00, -1.00, 372.0, 25.0)"> </text><text xml:space="preserve" font-family="Helvetica-Bold" font-weight="bold" font-size="19.0" fill="#C82505" transform="matrix(1.00, 0.00, -0.00, -1.00, 377.0, 25.0)">F</text><text xml:space="preserve" font-family="Helvetica-Bold" font-weight="bold" font-size="19.0" fill="#C82505" transform="matrix(1.00, 0.00, -0.00, -1.00, 388.2, 25.0)">U</text><text xml:space="preserve" font-family="Helvetica-Bold" font-weight="bold" font-size="19.0" fill="#C82505" transform="matrix(1.00, 0.00, -0.00, -1.00, 401.6, 25.0)">N</text><text xml:space="preserve" font-family="Helvetica-Bold" font-weight="bold" font-size="19.0" fill="#C82505" transform="matrix(1.00, 0.00, -0.00, -1.00, 414.9, 25.0)">C</text><text xml:space="preserve" font-family="Helvetica-Bold" font-weight="bold" font-size="19.0" fill="#C82505" transform="matrix(1.00, 0.00, -0.00, -1.00, 428.2, 25.0)">T</text><text xml:space="preserve" font-family="Helvetica-Bold" font-weight="bold" font-size="19.0" fill="#C82505" transform="matrix(1.00, 0.00, -0.00, -1.00, 439.5, 25.0)">I</text><text xml:space="preserve" font-family="Helvetica-Bold" font-weight="bold" font-size="19.0" fill="#C82505" transform="matrix(1.00, 0.00, -0.00, -1.00, 444.4, 25.0)">O</text><text xml:space="preserve" font-family="Helvetica-Bold" font-weight="bold" font-size="19.0" fill="#C82505" transform="matrix(1.00, 0.00, -0.00, -1.00, 458.7, 25.0)">N</text><text xml:space="preserve" font-family="Helvetica-Bold" font-weight="bold" font-size="19.0" fill="#5FCAC8" transform="matrix(1.00, 0.00, -0.00, -1.00, 472.1, 25.0)"> </text><text xml:space="preserve" font-family="Helvetica-Bold" font-weight="bold" font-size="19.0" fill="#5FCAC8" transform="matrix(1.00, 0.00, -0.00, -1.00, 477.0, 25.0)">T</text><text xml:space="preserve" font-family="Helvetica-Bold" font-weight="bold" font-size="19.0" fill="#5FCAC8" transform="matrix(1.00, 0.00, -0.00, -1.00, 488.2, 25.0)">H</text><text xml:space="preserve" font-family="Helvetica-Bold" font-weight="bold" font-size="19.0" fill="#5FCAC8" transform="matrix(1.00, 0.00, -0.00, -1.00, 501.6, 25.0)">A</text><text xml:space="preserve" font-family="Helvetica-Bold" font-weight="bold" font-size="19.0" fill="#5FCAC8" transform="matrix(1.00, 0.00, -0.00, -1.00, 513.5, 25.0)">T</text><text xml:space="preserve" font-family="Helvetica-Bold" font-weight="bold" font-size="19.0" fill="#5FCAC8" transform="matrix(1.00, 0.00, -0.00, -1.00, 524.7, 25.0)"> </text><text xml:space="preserve" font-family="Helvetica-Bold" font-weight="bold" font-size="19.0" fill="#5FCAC8" transform="matrix(1.00, 0.00, -0.00, -1.00, 529.6, 25.0)">C</text><text xml:space="preserve" font-family="Helvetica-Bold" font-weight="bold" font-size="19.0" fill="#5FCAC8" transform="matrix(1.00, 0.00, -0.00, -1.00, 543.0, 25.0)">H</text><text xml:space="preserve" font-family="Helvetica-Bold" font-weight="bold" font-size="19.0" fill="#5FCAC8" transform="matrix(1.00, 0.00, -0.00, -1.00, 556.3, 25.0)">A</text><text xml:space="preserve" font-family="Helvetica-Bold" font-weight="bold" font-size="19.0" fill="#5FCAC8" transform="matrix(1.00, 0.00, -0.00, -1.00, 569.6, 25.0)">N</text><text xml:space="preserve" font-family="Helvetica-Bold" font-weight="bold" font-size="19.0" fill="#5FCAC8" transform="matrix(1.00, 0.00, -0.00, -1.00, 583.0, 25.0)">G</text><text xml:space="preserve" font-family="Helvetica-Bold" font-weight="bold" font-size="19.0" fill="#5FCAC8" transform="matrix(1.00, 0.00, -0.00, -1.00, 597.4, 25.0)">E</text><text xml:space="preserve" font-family="Helvetica-Bold" font-weight="bold" font-size="19.0" fill="#5FCAC8" transform="matrix(1.00, 0.00, -0.00, -1.00, 609.7, 25.0)">S</text><text xml:space="preserve" font-family="Helvetica-Bold" font-weight="bold" font-size="19.0" fill="#5FCAC8" transform="matrix(1.00, 0.00, -0.00, -1.00, 622.0, 25.0)"> </text><text xml:space="preserve" font-family="Helvetica-Bold" font-weight="bold" font-size="19.0" fill="#5FCAC8" transform="matrix(1.00, 0.00, -0.00, -1.00, 626.9, 25.0)">T</text><text xml:space="preserve" font-family="Helvetica-Bold" font-weight="bold" font-size="19.0" fill="#5FCAC8" transform="matrix(1.00, 0.00, -0.00, -1.00, 638.1, 25.0)">H</text><text xml:space="preserve" font-family="Helvetica-Bold" font-weight="bold" font-size="19.0" fill="#5FCAC8" transform="matrix(1.00, 0.00, -0.00, -1.00, 651.4, 25.0)">E</text><text xml:space="preserve" font-family="Helvetica-Bold" font-weight="bold" font-size="19.0" fill="#5FCAC8" transform="matrix(1.00, 0.00, -0.00, -1.00, 663.7, 25.0)"> </text><text xml:space="preserve" font-family="Helvetica-Bold" font-weight="bold" font-size="19.0" fill="#C82505" transform="matrix(1.00, 0.00, -0.00, -1.00, 668.7, 25.0)">I</text><text xml:space="preserve" font-family="Helvetica-Bold" font-weight="bold" font-size="19.0" fill="#C82505" transform="matrix(1.00, 0.00, -0.00, -1.00, 673.5, 25.0)">N</text><text xml:space="preserve" font-family="Helvetica-Bold" font-weight="bold" font-size="19.0" fill="#C82505" transform="matrix(1.00, 0.00, -0.00, -1.00, 686.9, 25.0)">N</text><text xml:space="preserve" font-family="Helvetica-Bold" font-weight="bold" font-size="19.0" fill="#C82505" transform="matrix(1.00, 0.00, -0.00, -1.00, 700.2, 25.0)">E</text><text xml:space="preserve" font-family="Helvetica-Bold" font-weight="bold" font-size="19.0" fill="#C82505" transform="matrix(1.00, 0.00, -0.00, -1.00, 712.5, 25.0)">R</text><text xml:space="preserve" font-family="Helvetica-Bold" font-weight="bold" font-size="19.0" fill="#C82505" transform="matrix(1.00, 0.00, -0.00, -1.00, 725.8, 25.0)"> </text><text xml:space="preserve" font-family="Helvetica-Bold" font-weight="bold" font-size="19.0" fill="#C82505" transform="matrix(1.00, 0.00, -0.00, -1.00, 730.7, 25.0)">H</text><text xml:space="preserve" font-family="Helvetica-Bold" font-weight="bold" font-size="19.0" fill="#C82505" transform="matrix(1.00, 0.00, -0.00, -1.00, 744.1, 25.0)">T</text><text xml:space="preserve" font-family="Helvetica-Bold" font-weight="bold" font-size="19.0" fill="#C82505" transform="matrix(1.00, 0.00, -0.00, -1.00, 755.3, 25.0)">M</text><text xml:space="preserve" font-family="Helvetica-Bold" font-weight="bold" font-size="19.0" fill="#C82505" transform="matrix(1.00, 0.00, -0.00, -1.00, 770.7, 25.0)">L</text><text xml:space="preserve" font-family="Helvetica-Bold" font-weight="bold" font-size="19.0" fill="#5FCAC8" transform="matrix(1.00, 0.00, -0.00, -1.00, 781.7, 25.0)"> </text><text xml:space="preserve" font-family="Helvetica-Bold" font-weight="bold" font-size="19.0" fill="#5FCAC8" transform="matrix(1.00, 0.00, -0.00, -1.00, 786.6, 25.0)">O</text><text xml:space="preserve" font-family="Helvetica-Bold" font-weight="bold" font-size="19.0" fill="#5FCAC8" transform="matrix(1.00, 0.00, -0.00, -1.00, 801.0, 25.0)">F</text><text xml:space="preserve" font-family="Helvetica-Bold" font-weight="bold" font-size="19.0" fill="#5FCAC8" transform="matrix(1.00, 0.00, -0.00, -1.00, 812.2, 25.0)"> </text><text xml:space="preserve" font-family="Helvetica-Bold" font-weight="bold" font-size="19.0" fill="#5FCAC8" transform="matrix(1.00, 0.00, -0.00, -1.00, 817.1, 25.0)">T</text><text xml:space="preserve" font-family="Helvetica-Bold" font-weight="bold" font-size="19.0" fill="#5FCAC8" transform="matrix(1.00, 0.00, -0.00, -1.00, 828.3, 25.0)">H</text><text xml:space="preserve" font-family="Helvetica-Bold" font-weight="bold" font-size="19.0" fill="#5FCAC8" transform="matrix(1.00, 0.00, -0.00, -1.00, 841.6, 25.0)">I</text><text xml:space="preserve" font-family="Helvetica-Bold" font-weight="bold" font-size="19.0" fill="#5FCAC8" transform="matrix(1.00, 0.00, -0.00, -1.00, 846.5, 25.0)">S</text><text xml:space="preserve" font-family="Helvetica-Bold" font-weight="bold" font-size="19.0" fill="#5FCAC8" transform="matrix(1.00, 0.00, -0.00, -1.00, 858.8, 25.0)"> </text><text xml:space="preserve" font-family="Helvetica-Bold" font-weight="bold" font-size="19.0" fill="#5FCAC8" transform="matrix(1.00, 0.00, -0.00, -1.00, 46.0, 2.0)">E</text><text xml:space="preserve" font-family="Helvetica-Bold" font-weight="bold" font-size="19.0" fill="#5FCAC8" transform="matrix(1.00, 0.00, -0.00, -1.00, 58.3, 2.0)">L</text><text xml:space="preserve" font-family="Helvetica-Bold" font-weight="bold" font-size="19.0" fill="#5FCAC8" transform="matrix(1.00, 0.00, -0.00, -1.00, 69.5, 2.0)">E</text><text xml:space="preserve" font-family="Helvetica-Bold" font-weight="bold" font-size="19.0" fill="#5FCAC8" transform="matrix(1.00, 0.00, -0.00, -1.00, 81.8, 2.0)">M</text><text xml:space="preserve" font-family="Helvetica-Bold" font-weight="bold" font-size="19.0" fill="#5FCAC8" transform="matrix(1.00, 0.00, -0.00, -1.00, 97.3, 2.0)">E</text><text xml:space="preserve" font-family="Helvetica-Bold" font-weight="bold" font-size="19.0" fill="#5FCAC8" transform="matrix(1.00, 0.00, -0.00, -1.00, 109.6, 2.0)">N</text><text xml:space="preserve" font-family="Helvetica-Bold" font-weight="bold" font-size="19.0" fill="#5FCAC8" transform="matrix(1.00, 0.00, -0.00, -1.00, 122.9, 2.0)">T</text></g></svg>