<?xml version="1.0" encoding="UTF-8" standalone="no"?><svg xmlns="http://www.w3.org/2000/svg" xmlns:xlink="http://www.w3.org/1999/xlink" clip-rule="evenodd" stroke-miterlimit="4.00" viewBox="0 0 325 19"><desc>SVG generated by Keynote</desc><defs></defs><g transform="matrix(1.00, 0.00, -0.00, -1.00, 0.0, 19.0)"><text xml:space="preserve" font-family="Helvetica" font-size="17.0" fill="#5FC9C8" transform="matrix(1.00, 0.00, -0.00, -1.00, 2.0, 5.0)"> </text><text xml:space="preserve" font-family="Helvetica" font-size="17.0" fill="#5FC9C8" transform="matrix(1.00, 0.00, -0.00, -1.00, 6.7, 5.0)"> </text><text xml:space="preserve" font-family="Helvetica" font-size="17.0" fill="#5FC9C8" transform="matrix(1.00, 0.00, -0.00, -1.00, 11.4, 5.0)"> </text><text xml:space="preserve" font-family="Helvetica" font-size="17.0" fill="#5FC9C8" transform="matrix(1.00, 0.00, -0.00, -1.00, 16.2, 5.0)">t</text><text xml:space="preserve" font-family="Helvetica" font-size="17.0" fill="#5FC9C8" transform="matrix(1.00, 0.00, -0.00, -1.00, 20.9, 5.0)">i</text><text xml:space="preserve" font-family="Helvetica" font-size="17.0" fill="#5FC9C8" transform="matrix(1.00, 0.00, -0.00, -1.00, 24.7, 5.0)">t</text><text xml:space="preserve" font-family="Helvetica" font-size="17.0" fill="#5FC9C8" transform="matrix(1.00, 0.00, -0.00, -1.00, 29.4, 5.0)">l</text><text xml:space="preserve" font-family="Helvetica" font-size="17.0" fill="#5FC9C8" transform="matrix(1.00, 0.00, -0.00, -1.00, 33.2, 5.0)">e</text><text xml:space="preserve" font-family="Helvetica" font-size="17.0" fill="#5FC9C8" transform="matrix(1.00, 0.00, -0.00, -1.00, 42.6, 5.0)">.</text><text xml:space="preserve" font-family="Helvetica" font-size="17.0" fill="#5FC9C8" transform="matrix(1.00, 0.00, -0.00, -1.00, 47.3, 5.0)">i</text><text xml:space="preserve" font-family="Helvetica" font-size="17.0" fill="#5FC9C8" transform="matrix(1.00, 0.00, -0.00, -1.00, 51.1, 5.0)">n</text><text xml:space="preserve" font-family="Helvetica" font-size="17.0" fill="#5FC9C8" transform="matrix(1.00, 0.00, -0.00, -1.00, 60.6, 5.0)">n</text><text xml:space="preserve" font-family="Helvetica" font-size="17.0" fill="#5FC9C8" transform="matrix(1.00, 0.00, -0.00, -1.00, 70.0, 5.0)">e</text><text xml:space="preserve" font-family="Helvetica" font-size="17.0" fill="#5FC9C8" transform="matrix(1.00, 0.00, -0.00, -1.00, 79.5, 5.0)">r</text><text xml:space="preserve" font-family="Helvetica" font-size="17.0" fill="#5FC9C8" transform="matrix(1.00, 0.00, -0.00, -1.00, 85.2, 5.0)">H</text><text xml:space="preserve" font-family="Helvetica" font-size="17.0" fill="#5FC9C8" transform="matrix(1.00, 0.00, -0.00, -1.00, 97.4, 5.0)">T</text><text xml:space="preserve" font-family="Helvetica" font-size="17.0" fill="#5FC9C8" transform="matrix(1.00, 0.00, -0.00, -1.00, 107.8, 5.0)">M</text><text xml:space="preserve" font-family="Helvetica" font-size="17.0" fill="#5FC9C8" transform="matrix(1.00, 0.00, -0.00, -1.00, 122.0, 5.0)">L</text><text xml:space="preserve" font-family="Helvetica" font-size="17.0" fill="#5FC9C8" transform="matrix(1.00, 0.00, -0.00, -1.00, 130.8, 5.0)"> </text><text xml:space="preserve" font-family="Helvetica" font-size="17.0" fill="#5FC9C8" transform="matrix(1.00, 0.00, -0.00, -1.00, 135.5, 5.0)">=</text><text xml:space="preserve" font-family="Helvetica" font-size="17.0" fill="#5FC9C8" transform="matrix(1.00, 0.00, -0.00, -1.00, 145.5, 5.0)"> </text><text xml:space="preserve" font-family="Helvetica" font-size="17.0" fill="#5FC9C8" transform="matrix(1.00, 0.00, -0.00, -1.00, 150.2, 5.0)">"</text><text xml:space="preserve" font-family="Helvetica" font-size="17.0" fill="#5FC9C8" transform="matrix(1.00, 0.00, -0.00, -1.00, 156.2, 5.0)">S</text><text xml:space="preserve" font-family="Helvetica" font-size="17.0" fill="#5FC9C8" transform="matrix(1.00, 0.00, -0.00, -1.00, 167.5, 5.0)">E</text><text xml:space="preserve" font-family="Helvetica" font-size="17.0" fill="#5FC9C8" transform="matrix(1.00, 0.00, -0.00, -1.00, 178.9, 5.0)">C</text><text xml:space="preserve" font-family="Helvetica" font-size="17.0" fill="#5FC9C8" transform="matrix(1.00, 0.00, -0.00, -1.00, 191.2, 5.0)">R</text><text xml:space="preserve" font-family="Helvetica" font-size="17.0" fill="#5FC9C8" transform="matrix(1.00, 0.00, -0.00, -1.00, 203.4, 5.0)">E</text><text xml:space="preserve" font-family="Helvetica" font-size="17.0" fill="#5FC9C8" transform="matrix(1.00, 0.00, -0.00, -1.00, 214.8, 5.0)">T</text><text xml:space="preserve" font-family="Helvetica" font-size="17.0" fill="#5FC9C8" transform="matrix(1.00, 0.00, -0.00, -1.00, 224.9, 5.0)"> </text><text xml:space="preserve" font-family="Helvetica" font-size="17.0" fill="#5FC9C8" transform="matrix(1.00, 0.00, -0.00, -1.00, 229.6, 5.0)">M</text><text xml:space="preserve" font-family="Helvetica" font-size="17.0" fill="#5FC9C8" transform="matrix(1.00, 0.00, -0.00, -1.00, 243.8, 5.0)">E</text><text xml:space="preserve" font-family="Helvetica" font-size="17.0" fill="#5FC9C8" transform="matrix(1.00, 0.00, -0.00, -1.00, 255.1, 5.0)">S</text><text xml:space="preserve" font-family="Helvetica" font-size="17.0" fill="#5FC9C8" transform="matrix(1.00, 0.00, -0.00, -1.00, 266.4, 5.0)">S</text><text xml:space="preserve" font-family="Helvetica" font-size="17.0" fill="#5FC9C8" transform="matrix(1.00, 0.00, -0.00, -1.00, 277.8, 5.0)">A</text><text xml:space="preserve" font-family="Helvetica" font-size="17.0" fill="#5FC9C8" transform="matrix(1.00, 0.00, -0.00, -1.00, 289.1, 5.0)">G</text><text xml:space="preserve" font-family="Helvetica" font-size="17.0" fill="#5FC9C8" transform="matrix(1.00, 0.00, -0.00, -1.00, 302.3, 5.0)">E</text><text xml:space="preserve" font-family="Helvetica" font-size="17.0" fill="#5FC9C8" transform="matrix(1.00, 0.00, -0.00, -1.00, 313.7, 5.0)">"</text><text xml:space="preserve" font-family="Helvetica" font-size="17.0" fill="#5FC9C8" transform="matrix(1.00, 0.00, -0.00, -1.00, 319.7, 5.0)">;</text></g></svg>