<?xml version="1.0" encoding="UTF-8" standalone="no"?><svg xmlns="http://www.w3.org/2000/svg" xmlns:xlink="http://www.w3.org/1999/xlink" clip-rule="evenodd" stroke-miterlimit="4.00" viewBox="0 0 650 21"><desc>SVG generated by Keynote</desc><defs></defs><g transform="matrix(1.00, 0.00, -0.00, -1.00, 0.0, 21.0)"><text xml:space="preserve" font-family="Helvetica-Bold" font-weight="bold" font-size="19.0" fill="#5FCAC8" transform="matrix(1.00, 0.00, -0.00, -1.00, 0.5, 5.2)">4</text><text xml:space="preserve" font-family="Helvetica-Bold" font-weight="bold" font-size="19.0" fill="#5FCAC8" transform="matrix(1.00, 0.00, -0.00, -1.00, 11.1, 5.2)">.</text><text xml:space="preserve" font-family="Helvetica-Bold" font-weight="bold" font-size="19.0" fill="#5FCAC8" transform="matrix(1.00, 0.00, -0.00, -1.00, 46.0, 5.0)">A</text><text xml:space="preserve" font-family="Helvetica-Bold" font-weight="bold" font-size="19.0" fill="#5FCAC8" transform="matrix(1.00, 0.00, -0.00, -1.00, 57.9, 5.0)">T</text><text xml:space="preserve" font-family="Helvetica-Bold" font-weight="bold" font-size="19.0" fill="#5FCAC8" transform="matrix(1.00, 0.00, -0.00, -1.00, 69.2, 5.0)">T</text><text xml:space="preserve" font-family="Helvetica-Bold" font-weight="bold" font-size="19.0" fill="#5FCAC8" transform="matrix(1.00, 0.00, -0.00, -1.00, 79.0, 5.0)">A</text><text xml:space="preserve" font-family="Helvetica-Bold" font-weight="bold" font-size="19.0" fill="#5FCAC8" transform="matrix(1.00, 0.00, -0.00, -1.00, 92.3, 5.0)">C</text><text xml:space="preserve" font-family="Helvetica-Bold" font-weight="bold" font-size="19.0" fill="#5FCAC8" transform="matrix(1.00, 0.00, -0.00, -1.00, 105.7, 5.0)">H</text><text xml:space="preserve" font-family="Helvetica-Bold" font-weight="bold" font-size="19.0" fill="#5FCAC8" transform="matrix(1.00, 0.00, -0.00, -1.00, 119.0, 5.0)"> </text><text xml:space="preserve" font-family="Helvetica-Bold" font-weight="bold" font-size="19.0" fill="#5FCAC8" transform="matrix(1.00, 0.00, -0.00, -1.00, 123.2, 5.0)">A</text><text xml:space="preserve" font-family="Helvetica-Bold" font-weight="bold" font-size="19.0" fill="#5FCAC8" transform="matrix(1.00, 0.00, -0.00, -1.00, 136.6, 5.0)">N</text><text xml:space="preserve" font-family="Helvetica-Bold" font-weight="bold" font-size="19.0" fill="#5FCAC8" transform="matrix(1.00, 0.00, -0.00, -1.00, 149.9, 5.0)"> </text><text xml:space="preserve" font-family="Helvetica-Bold" font-weight="bold" font-size="19.0" fill="#C82505" transform="matrix(1.00, 0.00, -0.00, -1.00, 154.8, 5.0)">E</text><text xml:space="preserve" font-family="Helvetica-Bold" font-weight="bold" font-size="19.0" fill="#C82505" transform="matrix(1.00, 0.00, -0.00, -1.00, 167.1, 5.0)">V</text><text xml:space="preserve" font-family="Helvetica-Bold" font-weight="bold" font-size="19.0" fill="#C82505" transform="matrix(1.00, 0.00, -0.00, -1.00, 179.4, 5.0)">E</text><text xml:space="preserve" font-family="Helvetica-Bold" font-weight="bold" font-size="19.0" fill="#C82505" transform="matrix(1.00, 0.00, -0.00, -1.00, 191.7, 5.0)">N</text><text xml:space="preserve" font-family="Helvetica-Bold" font-weight="bold" font-size="19.0" fill="#C82505" transform="matrix(1.00, 0.00, -0.00, -1.00, 205.0, 5.0)">T</text><text xml:space="preserve" font-family="Helvetica-Bold" font-weight="bold" font-size="19.0" fill="#C82505" transform="matrix(1.00, 0.00, -0.00, -1.00, 216.2, 5.0)"> </text><text xml:space="preserve" font-family="Helvetica-Bold" font-weight="bold" font-size="19.0" fill="#C82505" transform="matrix(1.00, 0.00, -0.00, -1.00, 221.1, 5.0)">L</text><text xml:space="preserve" font-family="Helvetica-Bold" font-weight="bold" font-size="19.0" fill="#C82505" transform="matrix(1.00, 0.00, -0.00, -1.00, 232.4, 5.0)">I</text><text xml:space="preserve" font-family="Helvetica-Bold" font-weight="bold" font-size="19.0" fill="#C82505" transform="matrix(1.00, 0.00, -0.00, -1.00, 237.3, 5.0)">S</text><text xml:space="preserve" font-family="Helvetica-Bold" font-weight="bold" font-size="19.0" fill="#C82505" transform="matrix(1.00, 0.00, -0.00, -1.00, 249.6, 5.0)">T</text><text xml:space="preserve" font-family="Helvetica-Bold" font-weight="bold" font-size="19.0" fill="#C82505" transform="matrix(1.00, 0.00, -0.00, -1.00, 260.8, 5.0)">E</text><text xml:space="preserve" font-family="Helvetica-Bold" font-weight="bold" font-size="19.0" fill="#C82505" transform="matrix(1.00, 0.00, -0.00, -1.00, 273.1, 5.0)">N</text><text xml:space="preserve" font-family="Helvetica-Bold" font-weight="bold" font-size="19.0" fill="#C82505" transform="matrix(1.00, 0.00, -0.00, -1.00, 286.4, 5.0)">E</text><text xml:space="preserve" font-family="Helvetica-Bold" font-weight="bold" font-size="19.0" fill="#C82505" transform="matrix(1.00, 0.00, -0.00, -1.00, 298.7, 5.0)">R</text><text xml:space="preserve" font-family="Helvetica-Bold" font-weight="bold" font-size="19.0" fill="#5FCAC8" transform="matrix(1.00, 0.00, -0.00, -1.00, 312.1, 5.0)"> </text><text xml:space="preserve" font-family="Helvetica-Bold" font-weight="bold" font-size="19.0" fill="#5FCAC8" transform="matrix(1.00, 0.00, -0.00, -1.00, 317.0, 5.0)">T</text><text xml:space="preserve" font-family="Helvetica-Bold" font-weight="bold" font-size="19.0" fill="#5FCAC8" transform="matrix(1.00, 0.00, -0.00, -1.00, 328.2, 5.0)">H</text><text xml:space="preserve" font-family="Helvetica-Bold" font-weight="bold" font-size="19.0" fill="#5FCAC8" transform="matrix(1.00, 0.00, -0.00, -1.00, 341.5, 5.0)">A</text><text xml:space="preserve" font-family="Helvetica-Bold" font-weight="bold" font-size="19.0" fill="#5FCAC8" transform="matrix(1.00, 0.00, -0.00, -1.00, 353.5, 5.0)">T</text><text xml:space="preserve" font-family="Helvetica-Bold" font-weight="bold" font-size="19.0" fill="#5FCAC8" transform="matrix(1.00, 0.00, -0.00, -1.00, 364.7, 5.0)"> </text><text xml:space="preserve" font-family="Helvetica-Bold" font-weight="bold" font-size="19.0" fill="#5FCAC8" transform="matrix(1.00, 0.00, -0.00, -1.00, 369.6, 5.0)">W</text><text xml:space="preserve" font-family="Helvetica-Bold" font-weight="bold" font-size="19.0" fill="#5FCAC8" transform="matrix(1.00, 0.00, -0.00, -1.00, 387.1, 5.0)">I</text><text xml:space="preserve" font-family="Helvetica-Bold" font-weight="bold" font-size="19.0" fill="#5FCAC8" transform="matrix(1.00, 0.00, -0.00, -1.00, 392.0, 5.0)">L</text><text xml:space="preserve" font-family="Helvetica-Bold" font-weight="bold" font-size="19.0" fill="#5FCAC8" transform="matrix(1.00, 0.00, -0.00, -1.00, 403.2, 5.0)">L</text><text xml:space="preserve" font-family="Helvetica-Bold" font-weight="bold" font-size="19.0" fill="#5FCAC8" transform="matrix(1.00, 0.00, -0.00, -1.00, 414.1, 5.0)"> </text><text xml:space="preserve" font-family="Helvetica-Bold" font-weight="bold" font-size="19.0" fill="#5FCAC8" transform="matrix(1.00, 0.00, -0.00, -1.00, 419.0, 5.0)">T</text><text xml:space="preserve" font-family="Helvetica-Bold" font-weight="bold" font-size="19.0" fill="#5FCAC8" transform="matrix(1.00, 0.00, -0.00, -1.00, 430.2, 5.0)">R</text><text xml:space="preserve" font-family="Helvetica-Bold" font-weight="bold" font-size="19.0" fill="#5FCAC8" transform="matrix(1.00, 0.00, -0.00, -1.00, 443.6, 5.0)">I</text><text xml:space="preserve" font-family="Helvetica-Bold" font-weight="bold" font-size="19.0" fill="#5FCAC8" transform="matrix(1.00, 0.00, -0.00, -1.00, 448.5, 5.0)">G</text><text xml:space="preserve" font-family="Helvetica-Bold" font-weight="bold" font-size="19.0" fill="#5FCAC8" transform="matrix(1.00, 0.00, -0.00, -1.00, 462.9, 5.0)">G</text><text xml:space="preserve" font-family="Helvetica-Bold" font-weight="bold" font-size="19.0" fill="#5FCAC8" transform="matrix(1.00, 0.00, -0.00, -1.00, 477.3, 5.0)">E</text><text xml:space="preserve" font-family="Helvetica-Bold" font-weight="bold" font-size="19.0" fill="#5FCAC8" transform="matrix(1.00, 0.00, -0.00, -1.00, 489.6, 5.0)">R</text><text xml:space="preserve" font-family="Helvetica-Bold" font-weight="bold" font-size="19.0" fill="#5FCAC8" transform="matrix(1.00, 0.00, -0.00, -1.00, 502.9, 5.0)"> </text><text xml:space="preserve" font-family="Helvetica-Bold" font-weight="bold" font-size="19.0" fill="#5FCAC8" transform="matrix(1.00, 0.00, -0.00, -1.00, 507.8, 5.0)">O</text><text xml:space="preserve" font-family="Helvetica-Bold" font-weight="bold" font-size="19.0" fill="#5FCAC8" transform="matrix(1.00, 0.00, -0.00, -1.00, 522.2, 5.0)">U</text><text xml:space="preserve" font-family="Helvetica-Bold" font-weight="bold" font-size="19.0" fill="#5FCAC8" transform="matrix(1.00, 0.00, -0.00, -1.00, 535.5, 5.0)">R</text><text xml:space="preserve" font-family="Helvetica-Bold" font-weight="bold" font-size="19.0" fill="#5FCAC8" transform="matrix(1.00, 0.00, -0.00, -1.00, 548.9, 5.0)"> </text><text xml:space="preserve" font-family="Helvetica-Bold" font-weight="bold" font-size="19.0" fill="#5FCAC8" transform="matrix(1.00, 0.00, -0.00, -1.00, 553.7, 5.0)">F</text><text xml:space="preserve" font-family="Helvetica-Bold" font-weight="bold" font-size="19.0" fill="#5FCAC8" transform="matrix(1.00, 0.00, -0.00, -1.00, 565.0, 5.0)">U</text><text xml:space="preserve" font-family="Helvetica-Bold" font-weight="bold" font-size="19.0" fill="#5FCAC8" transform="matrix(1.00, 0.00, -0.00, -1.00, 578.3, 5.0)">N</text><text xml:space="preserve" font-family="Helvetica-Bold" font-weight="bold" font-size="19.0" fill="#5FCAC8" transform="matrix(1.00, 0.00, -0.00, -1.00, 591.6, 5.0)">C</text><text xml:space="preserve" font-family="Helvetica-Bold" font-weight="bold" font-size="19.0" fill="#5FCAC8" transform="matrix(1.00, 0.00, -0.00, -1.00, 605.0, 5.0)">T</text><text xml:space="preserve" font-family="Helvetica-Bold" font-weight="bold" font-size="19.0" fill="#5FCAC8" transform="matrix(1.00, 0.00, -0.00, -1.00, 616.2, 5.0)">I</text><text xml:space="preserve" font-family="Helvetica-Bold" font-weight="bold" font-size="19.0" fill="#5FCAC8" transform="matrix(1.00, 0.00, -0.00, -1.00, 621.1, 5.0)">O</text><text xml:space="preserve" font-family="Helvetica-Bold" font-weight="bold" font-size="19.0" fill="#5FCAC8" transform="matrix(1.00, 0.00, -0.00, -1.00, 635.5, 5.0)">N</text></g></svg>