<?xml version="1.0" encoding="UTF-8" standalone="no"?><svg xmlns="http://www.w3.org/2000/svg" xmlns:xlink="http://www.w3.org/1999/xlink" clip-rule="evenodd" stroke-miterlimit="4.00" viewBox="0 0 232 30"><desc>SVG generated by Keynote</desc><defs></defs><g transform="matrix(1.00, 0.00, -0.00, -1.00, 0.0, 30.0)"><text xml:space="preserve" font-family="Helvetica-Bold" font-weight="bold" font-size="33.0" fill="#C82505" transform="matrix(1.00, 0.00, -0.00, -1.00, 0.0, 3.0)">C</text><text xml:space="preserve" font-family="Helvetica-Bold" font-weight="bold" font-size="33.0" fill="#C82505" transform="matrix(1.00, 0.00, -0.00, -1.00, 23.2, 3.0)">O</text><text xml:space="preserve" font-family="Helvetica-Bold" font-weight="bold" font-size="33.0" fill="#C82505" transform="matrix(1.00, 0.00, -0.00, -1.00, 48.2, 3.0)">N</text><text xml:space="preserve" font-family="Helvetica-Bold" font-weight="bold" font-size="33.0" fill="#C82505" transform="matrix(1.00, 0.00, -0.00, -1.00, 71.4, 3.0)">S</text><text xml:space="preserve" font-family="Helvetica-Bold" font-weight="bold" font-size="33.0" fill="#C82505" transform="matrix(1.00, 0.00, -0.00, -1.00, 92.7, 3.0)">O</text><text xml:space="preserve" font-family="Helvetica-Bold" font-weight="bold" font-size="33.0" fill="#C82505" transform="matrix(1.00, 0.00, -0.00, -1.00, 117.7, 3.0)">L</text><text xml:space="preserve" font-family="Helvetica-Bold" font-weight="bold" font-size="33.0" fill="#C82505" transform="matrix(1.00, 0.00, -0.00, -1.00, 137.2, 3.0)">E</text><text xml:space="preserve" font-family="Helvetica-Bold" font-weight="bold" font-size="33.0" fill="#C82505" transform="matrix(1.00, 0.00, -0.00, -1.00, 158.6, 3.0)"> </text><text xml:space="preserve" font-family="Helvetica-Bold" font-weight="bold" font-size="33.0" fill="#C82505" transform="matrix(1.00, 0.00, -0.00, -1.00, 167.1, 3.0)">T</text><text xml:space="preserve" font-family="Helvetica-Bold" font-weight="bold" font-size="33.0" fill="#C82505" transform="matrix(1.00, 0.00, -0.00, -1.00, 184.2, 3.0)">A</text><text xml:space="preserve" font-family="Helvetica-Bold" font-weight="bold" font-size="33.0" fill="#C82505" transform="matrix(1.00, 0.00, -0.00, -1.00, 207.4, 3.0)">B</text></g></svg>