<?xml version="1.0" encoding="UTF-8" standalone="no"?><svg xmlns="http://www.w3.org/2000/svg" xmlns:xlink="http://www.w3.org/1999/xlink" clip-rule="evenodd" stroke-miterlimit="4.00" viewBox="0 0 820 64"><desc>SVG generated by Keynote</desc><defs></defs><g transform="matrix(1.00, 0.00, -0.00, -1.00, 0.0, 64.0)"><text xml:space="preserve" font-family="LucidaGrande" font-size="19.6" fill="#FEFFFE" transform="matrix(1.00, 0.00, -0.00, -1.00, 0.1, 45.4)">‣</text><text xml:space="preserve" font-family="Helvetica" font-size="28.0" fill="#FEFFFE" transform="matrix(1.00, 0.00, -0.00, -1.00, 14.0, 42.0)">Y</text><text xml:space="preserve" font-family="Helvetica" font-size="28.0" fill="#FEFFFE" transform="matrix(1.00, 0.00, -0.00, -1.00, 30.1, 42.0)">o</text><text xml:space="preserve" font-family="Helvetica" font-size="28.0" fill="#FEFFFE" transform="matrix(1.00, 0.00, -0.00, -1.00, 45.7, 42.0)">u</text><text xml:space="preserve" font-family="Helvetica" font-size="28.0" fill="#FEFFFE" transform="matrix(1.00, 0.00, -0.00, -1.00, 61.3, 42.0)"> </text><text xml:space="preserve" font-family="Helvetica" font-size="28.0" fill="#FEFFFE" transform="matrix(1.00, 0.00, -0.00, -1.00, 69.0, 42.0)">c</text><text xml:space="preserve" font-family="Helvetica" font-size="28.0" fill="#FEFFFE" transform="matrix(1.00, 0.00, -0.00, -1.00, 83.0, 42.0)">a</text><text xml:space="preserve" font-family="Helvetica" font-size="28.0" fill="#FEFFFE" transform="matrix(1.00, 0.00, -0.00, -1.00, 98.6, 42.0)">n</text><text xml:space="preserve" font-family="Helvetica" font-size="28.0" fill="#FEFFFE" transform="matrix(1.00, 0.00, -0.00, -1.00, 114.2, 42.0)"> </text><text xml:space="preserve" font-family="Helvetica" font-size="28.0" fill="#FEFFFE" transform="matrix(1.00, 0.00, -0.00, -1.00, 122.0, 42.0)">u</text><text xml:space="preserve" font-family="Helvetica" font-size="28.0" fill="#FEFFFE" transform="matrix(1.00, 0.00, -0.00, -1.00, 137.5, 42.0)">s</text><text xml:space="preserve" font-family="Helvetica" font-size="28.0" fill="#FEFFFE" transform="matrix(1.00, 0.00, -0.00, -1.00, 151.5, 42.0)">e</text><text xml:space="preserve" font-family="Helvetica" font-size="28.0" fill="#FEFFFE" transform="matrix(1.00, 0.00, -0.00, -1.00, 167.1, 42.0)"> </text><text xml:space="preserve" font-family="Helvetica" font-size="28.0" fill="#FEFFFE" transform="matrix(1.00, 0.00, -0.00, -1.00, 174.9, 42.0)">t</text><text xml:space="preserve" font-family="Helvetica" font-size="28.0" fill="#FEFFFE" transform="matrix(1.00, 0.00, -0.00, -1.00, 182.7, 42.0)">h</text><text xml:space="preserve" font-family="Helvetica" font-size="28.0" fill="#FEFFFE" transform="matrix(1.00, 0.00, -0.00, -1.00, 198.2, 42.0)">e</text><text xml:space="preserve" font-family="Helvetica" font-size="28.0" fill="#FEFFFE" transform="matrix(1.00, 0.00, -0.00, -1.00, 213.8, 42.0)"> </text><text xml:space="preserve" font-family="Helvetica" font-size="28.0" fill="#FEFFFE" transform="matrix(1.00, 0.00, -0.00, -1.00, 221.6, 42.0)">p</text><text xml:space="preserve" font-family="Helvetica" font-size="28.0" fill="#FEFFFE" transform="matrix(1.00, 0.00, -0.00, -1.00, 237.2, 42.0)">h</text><text xml:space="preserve" font-family="Helvetica" font-size="28.0" fill="#FEFFFE" transform="matrix(1.00, 0.00, -0.00, -1.00, 252.8, 42.0)">o</text><text xml:space="preserve" font-family="Helvetica" font-size="28.0" fill="#FEFFFE" transform="matrix(1.00, 0.00, -0.00, -1.00, 268.3, 42.0)">n</text><text xml:space="preserve" font-family="Helvetica" font-size="28.0" fill="#FEFFFE" transform="matrix(1.00, 0.00, -0.00, -1.00, 283.9, 42.0)">e</text><text xml:space="preserve" font-family="Helvetica" font-size="28.0" fill="#FEFFFE" transform="matrix(1.00, 0.00, -0.00, -1.00, 299.5, 42.0)"> </text><text xml:space="preserve" font-family="Helvetica" font-size="28.0" fill="#FEFFFE" transform="matrix(1.00, 0.00, -0.00, -1.00, 307.3, 42.0)">i</text><text xml:space="preserve" font-family="Helvetica" font-size="28.0" fill="#FEFFFE" transform="matrix(1.00, 0.00, -0.00, -1.00, 313.5, 42.0)">c</text><text xml:space="preserve" font-family="Helvetica" font-size="28.0" fill="#FEFFFE" transform="matrix(1.00, 0.00, -0.00, -1.00, 327.5, 42.0)">o</text><text xml:space="preserve" font-family="Helvetica" font-size="28.0" fill="#FEFFFE" transform="matrix(1.00, 0.00, -0.00, -1.00, 343.1, 42.0)">n</text><text xml:space="preserve" font-family="Helvetica" font-size="28.0" fill="#FEFFFE" transform="matrix(1.00, 0.00, -0.00, -1.00, 358.6, 42.0)"> </text><text xml:space="preserve" font-family="Helvetica" font-size="28.0" fill="#FEFFFE" transform="matrix(1.00, 0.00, -0.00, -1.00, 366.4, 42.0)">t</text><text xml:space="preserve" font-family="Helvetica" font-size="28.0" fill="#FEFFFE" transform="matrix(1.00, 0.00, -0.00, -1.00, 374.2, 42.0)">o</text><text xml:space="preserve" font-family="Helvetica" font-size="28.0" fill="#FEFFFE" transform="matrix(1.00, 0.00, -0.00, -1.00, 389.8, 42.0)"> </text><text xml:space="preserve" font-family="Helvetica" font-size="28.0" fill="#FEFFFE" transform="matrix(1.00, 0.00, -0.00, -1.00, 397.5, 42.0)">s</text><text xml:space="preserve" font-family="Helvetica" font-size="28.0" fill="#FEFFFE" transform="matrix(1.00, 0.00, -0.00, -1.00, 411.5, 42.0)">i</text><text xml:space="preserve" font-family="Helvetica" font-size="28.0" fill="#FEFFFE" transform="matrix(1.00, 0.00, -0.00, -1.00, 417.8, 42.0)">m</text><text xml:space="preserve" font-family="Helvetica" font-size="28.0" fill="#FEFFFE" transform="matrix(1.00, 0.00, -0.00, -1.00, 441.1, 42.0)">u</text><text xml:space="preserve" font-family="Helvetica" font-size="28.0" fill="#FEFFFE" transform="matrix(1.00, 0.00, -0.00, -1.00, 456.7, 42.0)">l</text><text xml:space="preserve" font-family="Helvetica" font-size="28.0" fill="#FEFFFE" transform="matrix(1.00, 0.00, -0.00, -1.00, 462.9, 42.0)">a</text><text xml:space="preserve" font-family="Helvetica" font-size="28.0" fill="#FEFFFE" transform="matrix(1.00, 0.00, -0.00, -1.00, 478.5, 42.0)">t</text><text xml:space="preserve" font-family="Helvetica" font-size="28.0" fill="#FEFFFE" transform="matrix(1.00, 0.00, -0.00, -1.00, 486.2, 42.0)">e</text><text xml:space="preserve" font-family="Helvetica" font-size="28.0" fill="#FEFFFE" transform="matrix(1.00, 0.00, -0.00, -1.00, 501.8, 42.0)"> </text><text xml:space="preserve" font-family="Helvetica" font-size="28.0" fill="#FEFFFE" transform="matrix(1.00, 0.00, -0.00, -1.00, 509.6, 42.0)">a</text><text xml:space="preserve" font-family="Helvetica" font-size="28.0" fill="#FEFFFE" transform="matrix(1.00, 0.00, -0.00, -1.00, 525.2, 42.0)"> </text><text xml:space="preserve" font-family="Helvetica" font-size="28.0" fill="#FEFFFE" transform="matrix(1.00, 0.00, -0.00, -1.00, 533.0, 42.0)">m</text><text xml:space="preserve" font-family="Helvetica" font-size="28.0" fill="#FEFFFE" transform="matrix(1.00, 0.00, -0.00, -1.00, 556.3, 42.0)">o</text><text xml:space="preserve" font-family="Helvetica" font-size="28.0" fill="#FEFFFE" transform="matrix(1.00, 0.00, -0.00, -1.00, 571.9, 42.0)">b</text><text xml:space="preserve" font-family="Helvetica" font-size="28.0" fill="#FEFFFE" transform="matrix(1.00, 0.00, -0.00, -1.00, 587.4, 42.0)">i</text><text xml:space="preserve" font-family="Helvetica" font-size="28.0" fill="#FEFFFE" transform="matrix(1.00, 0.00, -0.00, -1.00, 593.7, 42.0)">l</text><text xml:space="preserve" font-family="Helvetica" font-size="28.0" fill="#FEFFFE" transform="matrix(1.00, 0.00, -0.00, -1.00, 599.9, 42.0)">e</text><text xml:space="preserve" font-family="Helvetica" font-size="28.0" fill="#FEFFFE" transform="matrix(1.00, 0.00, -0.00, -1.00, 615.5, 42.0)"> </text><text xml:space="preserve" font-family="Helvetica" font-size="28.0" fill="#FEFFFE" transform="matrix(1.00, 0.00, -0.00, -1.00, 623.2, 42.0)">v</text><text xml:space="preserve" font-family="Helvetica" font-size="28.0" fill="#FEFFFE" transform="matrix(1.00, 0.00, -0.00, -1.00, 637.2, 42.0)">i</text><text xml:space="preserve" font-family="Helvetica" font-size="28.0" fill="#FEFFFE" transform="matrix(1.00, 0.00, -0.00, -1.00, 643.5, 42.0)">e</text><text xml:space="preserve" font-family="Helvetica" font-size="28.0" fill="#FEFFFE" transform="matrix(1.00, 0.00, -0.00, -1.00, 659.0, 42.0)">w</text><text xml:space="preserve" font-family="Helvetica" font-size="28.0" fill="#FEFFFE" transform="matrix(1.00, 0.00, -0.00, -1.00, 679.3, 42.0)"> </text><text xml:space="preserve" font-family="Helvetica" font-size="28.0" fill="#FEFFFE" transform="matrix(1.00, 0.00, -0.00, -1.00, 687.0, 42.0)">a</text><text xml:space="preserve" font-family="Helvetica" font-size="28.0" fill="#FEFFFE" transform="matrix(1.00, 0.00, -0.00, -1.00, 702.6, 42.0)">n</text><text xml:space="preserve" font-family="Helvetica" font-size="28.0" fill="#FEFFFE" transform="matrix(1.00, 0.00, -0.00, -1.00, 718.2, 42.0)">d</text><text xml:space="preserve" font-family="Helvetica" font-size="28.0" fill="#FEFFFE" transform="matrix(1.00, 0.00, -0.00, -1.00, 733.8, 42.0)"> </text><text xml:space="preserve" font-family="Helvetica" font-size="28.0" fill="#FEFFFE" transform="matrix(1.00, 0.00, -0.00, -1.00, 741.5, 42.0)">s</text><text xml:space="preserve" font-family="Helvetica" font-size="28.0" fill="#FEFFFE" transform="matrix(1.00, 0.00, -0.00, -1.00, 755.5, 42.0)">p</text><text xml:space="preserve" font-family="Helvetica" font-size="28.0" fill="#FEFFFE" transform="matrix(1.00, 0.00, -0.00, -1.00, 771.1, 42.0)">e</text><text xml:space="preserve" font-family="Helvetica" font-size="28.0" fill="#FEFFFE" transform="matrix(1.00, 0.00, -0.00, -1.00, 786.7, 42.0)">e</text><text xml:space="preserve" font-family="Helvetica" font-size="28.0" fill="#FEFFFE" transform="matrix(1.00, 0.00, -0.00, -1.00, 802.3, 42.0)">d</text><text xml:space="preserve" font-family="Helvetica" font-size="28.0" fill="#FEFFFE" transform="matrix(1.00, 0.00, -0.00, -1.00, 817.9, 42.0)"> </text><text xml:space="preserve" font-family="Helvetica" font-size="28.0" fill="#FEFFFE" transform="matrix(1.00, 0.00, -0.00, -1.00, 14.0, 8.0)">t</text><text xml:space="preserve" font-family="Helvetica" font-size="28.0" fill="#FEFFFE" transform="matrix(1.00, 0.00, -0.00, -1.00, 21.8, 8.0)">h</text><text xml:space="preserve" font-family="Helvetica" font-size="28.0" fill="#FEFFFE" transform="matrix(1.00, 0.00, -0.00, -1.00, 37.4, 8.0)">r</text><text xml:space="preserve" font-family="Helvetica" font-size="28.0" fill="#FEFFFE" transform="matrix(1.00, 0.00, -0.00, -1.00, 46.7, 8.0)">o</text><text xml:space="preserve" font-family="Helvetica" font-size="28.0" fill="#FEFFFE" transform="matrix(1.00, 0.00, -0.00, -1.00, 62.3, 8.0)">t</text><text xml:space="preserve" font-family="Helvetica" font-size="28.0" fill="#FEFFFE" transform="matrix(1.00, 0.00, -0.00, -1.00, 70.0, 8.0)">t</text><text xml:space="preserve" font-family="Helvetica" font-size="28.0" fill="#FEFFFE" transform="matrix(1.00, 0.00, -0.00, -1.00, 77.8, 8.0)">l</text><text xml:space="preserve" font-family="Helvetica" font-size="28.0" fill="#FEFFFE" transform="matrix(1.00, 0.00, -0.00, -1.00, 84.0, 8.0)">i</text><text xml:space="preserve" font-family="Helvetica" font-size="28.0" fill="#FEFFFE" transform="matrix(1.00, 0.00, -0.00, -1.00, 90.3, 8.0)">n</text><text xml:space="preserve" font-family="Helvetica" font-size="28.0" fill="#FEFFFE" transform="matrix(1.00, 0.00, -0.00, -1.00, 105.8, 8.0)">g</text></g></svg>