<?xml version="1.0" encoding="UTF-8" standalone="no"?><svg xmlns="http://www.w3.org/2000/svg" xmlns:xlink="http://www.w3.org/1999/xlink" clip-rule="evenodd" stroke-miterlimit="4.00" viewBox="0 0 886 31"><desc>SVG generated by Keynote</desc><defs></defs><g transform="matrix(1.00, 0.00, -0.00, -1.00, 0.0, 31.0)"><text xml:space="preserve" font-family="LucidaGrande" font-size="19.6" fill="#FEFFFE" transform="matrix(1.00, 0.00, -0.00, -1.00, 0.1, 11.4)">‣</text><text xml:space="preserve" font-family="Helvetica" font-size="28.0" fill="#FEFFFE" transform="matrix(1.00, 0.00, -0.00, -1.00, 14.0, 8.0)">E</text><text xml:space="preserve" font-family="Helvetica" font-size="28.0" fill="#FEFFFE" transform="matrix(1.00, 0.00, -0.00, -1.00, 32.7, 8.0)">a</text><text xml:space="preserve" font-family="Helvetica" font-size="28.0" fill="#FEFFFE" transform="matrix(1.00, 0.00, -0.00, -1.00, 48.3, 8.0)">c</text><text xml:space="preserve" font-family="Helvetica" font-size="28.0" fill="#FEFFFE" transform="matrix(1.00, 0.00, -0.00, -1.00, 62.3, 8.0)">h</text><text xml:space="preserve" font-family="Helvetica" font-size="28.0" fill="#FEFFFE" transform="matrix(1.00, 0.00, -0.00, -1.00, 77.8, 8.0)"> </text><text xml:space="preserve" font-family="Helvetica" font-size="28.0" fill="#FEFFFE" transform="matrix(1.00, 0.00, -0.00, -1.00, 85.6, 8.0)">t</text><text xml:space="preserve" font-family="Helvetica" font-size="28.0" fill="#FEFFFE" transform="matrix(1.00, 0.00, -0.00, -1.00, 93.4, 8.0)">i</text><text xml:space="preserve" font-family="Helvetica" font-size="28.0" fill="#FEFFFE" transform="matrix(1.00, 0.00, -0.00, -1.00, 99.6, 8.0)">m</text><text xml:space="preserve" font-family="Helvetica" font-size="28.0" fill="#FEFFFE" transform="matrix(1.00, 0.00, -0.00, -1.00, 122.9, 8.0)">e</text><text xml:space="preserve" font-family="Helvetica" font-size="28.0" fill="#FEFFFE" transform="matrix(1.00, 0.00, -0.00, -1.00, 138.5, 8.0)"> </text><text xml:space="preserve" font-family="Helvetica" font-size="28.0" fill="#FEFFFE" transform="matrix(1.00, 0.00, -0.00, -1.00, 146.3, 8.0)">a</text><text xml:space="preserve" font-family="Helvetica" font-size="28.0" fill="#FEFFFE" transform="matrix(1.00, 0.00, -0.00, -1.00, 161.9, 8.0)">n</text><text xml:space="preserve" font-family="Helvetica" font-size="28.0" fill="#FEFFFE" transform="matrix(1.00, 0.00, -0.00, -1.00, 177.4, 8.0)"> </text><text xml:space="preserve" font-family="Helvetica" font-size="28.0" fill="#FEFFFE" transform="matrix(1.00, 0.00, -0.00, -1.00, 185.2, 8.0)">e</text><text xml:space="preserve" font-family="Helvetica" font-size="28.0" fill="#FEFFFE" transform="matrix(1.00, 0.00, -0.00, -1.00, 200.8, 8.0)">l</text><text xml:space="preserve" font-family="Helvetica" font-size="28.0" fill="#FEFFFE" transform="matrix(1.00, 0.00, -0.00, -1.00, 207.0, 8.0)">e</text><text xml:space="preserve" font-family="Helvetica" font-size="28.0" fill="#FEFFFE" transform="matrix(1.00, 0.00, -0.00, -1.00, 222.6, 8.0)">m</text><text xml:space="preserve" font-family="Helvetica" font-size="28.0" fill="#FEFFFE" transform="matrix(1.00, 0.00, -0.00, -1.00, 245.9, 8.0)">e</text><text xml:space="preserve" font-family="Helvetica" font-size="28.0" fill="#FEFFFE" transform="matrix(1.00, 0.00, -0.00, -1.00, 261.5, 8.0)">n</text><text xml:space="preserve" font-family="Helvetica" font-size="28.0" fill="#FEFFFE" transform="matrix(1.00, 0.00, -0.00, -1.00, 277.1, 8.0)">t</text><text xml:space="preserve" font-family="Helvetica" font-size="28.0" fill="#FEFFFE" transform="matrix(1.00, 0.00, -0.00, -1.00, 284.8, 8.0)"> </text><text xml:space="preserve" font-family="Helvetica" font-size="28.0" fill="#FEFFFE" transform="matrix(1.00, 0.00, -0.00, -1.00, 292.6, 8.0)">i</text><text xml:space="preserve" font-family="Helvetica" font-size="28.0" fill="#FEFFFE" transform="matrix(1.00, 0.00, -0.00, -1.00, 298.8, 8.0)">s</text><text xml:space="preserve" font-family="Helvetica" font-size="28.0" fill="#FEFFFE" transform="matrix(1.00, 0.00, -0.00, -1.00, 312.8, 8.0)"> </text><text xml:space="preserve" font-family="Helvetica" font-size="28.0" fill="#FEFFFE" transform="matrix(1.00, 0.00, -0.00, -1.00, 320.6, 8.0)">s</text><text xml:space="preserve" font-family="Helvetica" font-size="28.0" fill="#FEFFFE" transform="matrix(1.00, 0.00, -0.00, -1.00, 334.6, 8.0)">e</text><text xml:space="preserve" font-family="Helvetica" font-size="28.0" fill="#FEFFFE" transform="matrix(1.00, 0.00, -0.00, -1.00, 350.2, 8.0)">l</text><text xml:space="preserve" font-family="Helvetica" font-size="28.0" fill="#FEFFFE" transform="matrix(1.00, 0.00, -0.00, -1.00, 356.4, 8.0)">e</text><text xml:space="preserve" font-family="Helvetica" font-size="28.0" fill="#FEFFFE" transform="matrix(1.00, 0.00, -0.00, -1.00, 372.0, 8.0)">c</text><text xml:space="preserve" font-family="Helvetica" font-size="28.0" fill="#FEFFFE" transform="matrix(1.00, 0.00, -0.00, -1.00, 386.0, 8.0)">t</text><text xml:space="preserve" font-family="Helvetica" font-size="28.0" fill="#FEFFFE" transform="matrix(1.00, 0.00, -0.00, -1.00, 393.8, 8.0)">e</text><text xml:space="preserve" font-family="Helvetica" font-size="28.0" fill="#FEFFFE" transform="matrix(1.00, 0.00, -0.00, -1.00, 409.4, 8.0)">d</text><text xml:space="preserve" font-family="Helvetica" font-size="28.0" fill="#FEFFFE" transform="matrix(1.00, 0.00, -0.00, -1.00, 424.9, 8.0)">,</text><text xml:space="preserve" font-family="Helvetica" font-size="28.0" fill="#FEFFFE" transform="matrix(1.00, 0.00, -0.00, -1.00, 432.7, 8.0)"> </text><text xml:space="preserve" font-family="Helvetica" font-size="28.0" fill="#FEFFFE" transform="matrix(1.00, 0.00, -0.00, -1.00, 440.5, 8.0)">t</text><text xml:space="preserve" font-family="Helvetica" font-size="28.0" fill="#FEFFFE" transform="matrix(1.00, 0.00, -0.00, -1.00, 448.3, 8.0)">h</text><text xml:space="preserve" font-family="Helvetica" font-size="28.0" fill="#FEFFFE" transform="matrix(1.00, 0.00, -0.00, -1.00, 463.8, 8.0)">e</text><text xml:space="preserve" font-family="Helvetica" font-size="28.0" fill="#FEFFFE" transform="matrix(1.00, 0.00, -0.00, -1.00, 479.4, 8.0)"> </text><text xml:space="preserve" font-family="Helvetica" font-size="28.0" fill="#FEFFFE" transform="matrix(1.00, 0.00, -0.00, -1.00, 487.2, 8.0)">c</text><text xml:space="preserve" font-family="Helvetica" font-size="28.0" fill="#FEFFFE" transform="matrix(1.00, 0.00, -0.00, -1.00, 501.2, 8.0)">o</text><text xml:space="preserve" font-family="Helvetica" font-size="28.0" fill="#FEFFFE" transform="matrix(1.00, 0.00, -0.00, -1.00, 516.8, 8.0)">r</text><text xml:space="preserve" font-family="Helvetica" font-size="28.0" fill="#FEFFFE" transform="matrix(1.00, 0.00, -0.00, -1.00, 526.1, 8.0)">r</text><text xml:space="preserve" font-family="Helvetica" font-size="28.0" fill="#FEFFFE" transform="matrix(1.00, 0.00, -0.00, -1.00, 535.4, 8.0)">e</text><text xml:space="preserve" font-family="Helvetica" font-size="28.0" fill="#FEFFFE" transform="matrix(1.00, 0.00, -0.00, -1.00, 551.0, 8.0)">s</text><text xml:space="preserve" font-family="Helvetica" font-size="28.0" fill="#FEFFFE" transform="matrix(1.00, 0.00, -0.00, -1.00, 565.0, 8.0)">p</text><text xml:space="preserve" font-family="Helvetica" font-size="28.0" fill="#FEFFFE" transform="matrix(1.00, 0.00, -0.00, -1.00, 580.6, 8.0)">o</text><text xml:space="preserve" font-family="Helvetica" font-size="28.0" fill="#FEFFFE" transform="matrix(1.00, 0.00, -0.00, -1.00, 596.1, 8.0)">n</text><text xml:space="preserve" font-family="Helvetica" font-size="28.0" fill="#FEFFFE" transform="matrix(1.00, 0.00, -0.00, -1.00, 611.7, 8.0)">d</text><text xml:space="preserve" font-family="Helvetica" font-size="28.0" fill="#FEFFFE" transform="matrix(1.00, 0.00, -0.00, -1.00, 627.3, 8.0)">i</text><text xml:space="preserve" font-family="Helvetica" font-size="28.0" fill="#FEFFFE" transform="matrix(1.00, 0.00, -0.00, -1.00, 633.5, 8.0)">n</text><text xml:space="preserve" font-family="Helvetica" font-size="28.0" fill="#FEFFFE" transform="matrix(1.00, 0.00, -0.00, -1.00, 649.1, 8.0)">g</text><text xml:space="preserve" font-family="Helvetica" font-size="28.0" fill="#FEFFFE" transform="matrix(1.00, 0.00, -0.00, -1.00, 664.7, 8.0)"> </text><text xml:space="preserve" font-family="Helvetica" font-size="28.0" fill="#FEFFFE" transform="matrix(1.00, 0.00, -0.00, -1.00, 672.5, 8.0)">C</text><text xml:space="preserve" font-family="Helvetica" font-size="28.0" fill="#FEFFFE" transform="matrix(1.00, 0.00, -0.00, -1.00, 692.7, 8.0)">S</text><text xml:space="preserve" font-family="Helvetica" font-size="28.0" fill="#FEFFFE" transform="matrix(1.00, 0.00, -0.00, -1.00, 711.4, 8.0)">S</text><text xml:space="preserve" font-family="Helvetica" font-size="28.0" fill="#FEFFFE" transform="matrix(1.00, 0.00, -0.00, -1.00, 730.0, 8.0)"> </text><text xml:space="preserve" font-family="Helvetica" font-size="28.0" fill="#FEFFFE" transform="matrix(1.00, 0.00, -0.00, -1.00, 737.8, 8.0)">i</text><text xml:space="preserve" font-family="Helvetica" font-size="28.0" fill="#FEFFFE" transform="matrix(1.00, 0.00, -0.00, -1.00, 744.0, 8.0)">s</text><text xml:space="preserve" font-family="Helvetica" font-size="28.0" fill="#FEFFFE" transform="matrix(1.00, 0.00, -0.00, -1.00, 758.0, 8.0)"> </text><text xml:space="preserve" font-family="Helvetica" font-size="28.0" fill="#FEFFFE" transform="matrix(1.00, 0.00, -0.00, -1.00, 765.8, 8.0)">d</text><text xml:space="preserve" font-family="Helvetica" font-size="28.0" fill="#FEFFFE" transform="matrix(1.00, 0.00, -0.00, -1.00, 781.4, 8.0)">i</text><text xml:space="preserve" font-family="Helvetica" font-size="28.0" fill="#FEFFFE" transform="matrix(1.00, 0.00, -0.00, -1.00, 787.6, 8.0)">s</text><text xml:space="preserve" font-family="Helvetica" font-size="28.0" fill="#FEFFFE" transform="matrix(1.00, 0.00, -0.00, -1.00, 801.6, 8.0)">p</text><text xml:space="preserve" font-family="Helvetica" font-size="28.0" fill="#FEFFFE" transform="matrix(1.00, 0.00, -0.00, -1.00, 817.2, 8.0)">l</text><text xml:space="preserve" font-family="Helvetica" font-size="28.0" fill="#FEFFFE" transform="matrix(1.00, 0.00, -0.00, -1.00, 823.4, 8.0)">a</text><text xml:space="preserve" font-family="Helvetica" font-size="28.0" fill="#FEFFFE" transform="matrix(1.00, 0.00, -0.00, -1.00, 839.0, 8.0)">y</text><text xml:space="preserve" font-family="Helvetica" font-size="28.0" fill="#FEFFFE" transform="matrix(1.00, 0.00, -0.00, -1.00, 853.0, 8.0)">e</text><text xml:space="preserve" font-family="Helvetica" font-size="28.0" fill="#FEFFFE" transform="matrix(1.00, 0.00, -0.00, -1.00, 868.6, 8.0)">d</text><text xml:space="preserve" font-family="Helvetica" font-size="28.0" fill="#FEFFFE" transform="matrix(1.00, 0.00, -0.00, -1.00, 884.1, 8.0)"> </text></g></svg>