<?xml version="1.0" encoding="UTF-8" standalone="no"?><svg xmlns="http://www.w3.org/2000/svg" xmlns:xlink="http://www.w3.org/1999/xlink" clip-rule="evenodd" stroke-miterlimit="4.00" viewBox="0 0 900 80"><desc>SVG generated by Keynote</desc><defs></defs><g transform="matrix(1.00, 0.00, -0.00, -1.00, 0.0, 80.0)"><text xml:space="preserve" font-family="Helvetica-Bold" font-weight="bold" font-size="35.0" fill="#C82505" transform="matrix(1.00, 0.00, -0.00, -1.00, -1.0, 52.0)">E</text><text xml:space="preserve" font-family="Helvetica-Bold" font-weight="bold" font-size="35.0" fill="#C82505" transform="matrix(1.00, 0.00, -0.00, -1.00, 22.3, 52.0)">L</text><text xml:space="preserve" font-family="Helvetica-Bold" font-weight="bold" font-size="35.0" fill="#C82505" transform="matrix(1.00, 0.00, -0.00, -1.00, 43.7, 52.0)">E</text><text xml:space="preserve" font-family="Helvetica-Bold" font-weight="bold" font-size="35.0" fill="#C82505" transform="matrix(1.00, 0.00, -0.00, -1.00, 67.1, 52.0)">M</text><text xml:space="preserve" font-family="Helvetica-Bold" font-weight="bold" font-size="35.0" fill="#C82505" transform="matrix(1.00, 0.00, -0.00, -1.00, 96.2, 52.0)">E</text><text xml:space="preserve" font-family="Helvetica-Bold" font-weight="bold" font-size="35.0" fill="#C82505" transform="matrix(1.00, 0.00, -0.00, -1.00, 119.6, 52.0)">N</text><text xml:space="preserve" font-family="Helvetica-Bold" font-weight="bold" font-size="35.0" fill="#C82505" transform="matrix(1.00, 0.00, -0.00, -1.00, 144.8, 52.0)">T</text><text xml:space="preserve" font-family="Helvetica-Bold" font-weight="bold" font-size="35.0" fill="#C82505" transform="matrix(1.00, 0.00, -0.00, -1.00, 166.2, 52.0)">S</text><text xml:space="preserve" font-family="Helvetica-Bold" font-weight="bold" font-size="35.0" fill="#74F6F4" transform="matrix(1.00, 0.00, -0.00, -1.00, 189.6, 52.0)"> </text><text xml:space="preserve" font-family="Helvetica-Bold" font-weight="bold" font-size="35.0" fill="#74F6F4" transform="matrix(1.00, 0.00, -0.00, -1.00, 199.3, 52.0)">-</text><text xml:space="preserve" font-family="Helvetica-Bold" font-weight="bold" font-size="35.0" fill="#74F6F4" transform="matrix(1.00, 0.00, -0.00, -1.00, 210.9, 52.0)"> </text><text xml:space="preserve" font-family="Helvetica-Bold" font-weight="bold" font-size="35.0" fill="#74F6F4" transform="matrix(1.00, 0.00, -0.00, -1.00, 220.7, 52.0)">W</text><text xml:space="preserve" font-family="Helvetica-Bold" font-weight="bold" font-size="35.0" fill="#74F6F4" transform="matrix(1.00, 0.00, -0.00, -1.00, 253.7, 52.0)">h</text><text xml:space="preserve" font-family="Helvetica-Bold" font-weight="bold" font-size="35.0" fill="#74F6F4" transform="matrix(1.00, 0.00, -0.00, -1.00, 275.1, 52.0)">a</text><text xml:space="preserve" font-family="Helvetica-Bold" font-weight="bold" font-size="35.0" fill="#74F6F4" transform="matrix(1.00, 0.00, -0.00, -1.00, 294.5, 52.0)">t</text><text xml:space="preserve" font-family="Helvetica-Bold" font-weight="bold" font-size="35.0" fill="#74F6F4" transform="matrix(1.00, 0.00, -0.00, -1.00, 306.2, 52.0)"> </text><text xml:space="preserve" font-family="Helvetica-Bold" font-weight="bold" font-size="35.0" fill="#74F6F4" transform="matrix(1.00, 0.00, -0.00, -1.00, 315.9, 52.0)">h</text><text xml:space="preserve" font-family="Helvetica-Bold" font-weight="bold" font-size="35.0" fill="#74F6F4" transform="matrix(1.00, 0.00, -0.00, -1.00, 337.3, 52.0)">a</text><text xml:space="preserve" font-family="Helvetica-Bold" font-weight="bold" font-size="35.0" fill="#74F6F4" transform="matrix(1.00, 0.00, -0.00, -1.00, 356.7, 52.0)">v</text><text xml:space="preserve" font-family="Helvetica-Bold" font-weight="bold" font-size="35.0" fill="#74F6F4" transform="matrix(1.00, 0.00, -0.00, -1.00, 376.2, 52.0)">e</text><text xml:space="preserve" font-family="Helvetica-Bold" font-weight="bold" font-size="35.0" fill="#74F6F4" transform="matrix(1.00, 0.00, -0.00, -1.00, 395.7, 52.0)"> </text><text xml:space="preserve" font-family="Helvetica-Bold" font-weight="bold" font-size="35.0" fill="#74F6F4" transform="matrix(1.00, 0.00, -0.00, -1.00, 405.4, 52.0)">y</text><text xml:space="preserve" font-family="Helvetica-Bold" font-weight="bold" font-size="35.0" fill="#74F6F4" transform="matrix(1.00, 0.00, -0.00, -1.00, 424.9, 52.0)">o</text><text xml:space="preserve" font-family="Helvetica-Bold" font-weight="bold" font-size="35.0" fill="#74F6F4" transform="matrix(1.00, 0.00, -0.00, -1.00, 446.3, 52.0)">u</text><text xml:space="preserve" font-family="Helvetica-Bold" font-weight="bold" font-size="35.0" fill="#74F6F4" transform="matrix(1.00, 0.00, -0.00, -1.00, 467.6, 52.0)"> </text><text xml:space="preserve" font-family="Helvetica-Bold" font-weight="bold" font-size="35.0" fill="#74F6F4" transform="matrix(1.00, 0.00, -0.00, -1.00, 477.3, 52.0)">l</text><text xml:space="preserve" font-family="Helvetica-Bold" font-weight="bold" font-size="35.0" fill="#74F6F4" transform="matrix(1.00, 0.00, -0.00, -1.00, 487.1, 52.0)">e</text><text xml:space="preserve" font-family="Helvetica-Bold" font-weight="bold" font-size="35.0" fill="#74F6F4" transform="matrix(1.00, 0.00, -0.00, -1.00, 506.5, 52.0)">a</text><text xml:space="preserve" font-family="Helvetica-Bold" font-weight="bold" font-size="35.0" fill="#74F6F4" transform="matrix(1.00, 0.00, -0.00, -1.00, 526.0, 52.0)">r</text><text xml:space="preserve" font-family="Helvetica-Bold" font-weight="bold" font-size="35.0" fill="#74F6F4" transform="matrix(1.00, 0.00, -0.00, -1.00, 539.6, 52.0)">n</text><text xml:space="preserve" font-family="Helvetica-Bold" font-weight="bold" font-size="35.0" fill="#74F6F4" transform="matrix(1.00, 0.00, -0.00, -1.00, 561.0, 52.0)">e</text><text xml:space="preserve" font-family="Helvetica-Bold" font-weight="bold" font-size="35.0" fill="#74F6F4" transform="matrix(1.00, 0.00, -0.00, -1.00, 580.5, 52.0)">d</text><text xml:space="preserve" font-family="Helvetica-Bold" font-weight="bold" font-size="35.0" fill="#74F6F4" transform="matrix(1.00, 0.00, -0.00, -1.00, 601.9, 52.0)"> </text><text xml:space="preserve" font-family="Helvetica-Bold" font-weight="bold" font-size="35.0" fill="#74F6F4" transform="matrix(1.00, 0.00, -0.00, -1.00, 611.6, 52.0)">f</text><text xml:space="preserve" font-family="Helvetica-Bold" font-weight="bold" font-size="35.0" fill="#74F6F4" transform="matrix(1.00, 0.00, -0.00, -1.00, 623.2, 52.0)">r</text><text xml:space="preserve" font-family="Helvetica-Bold" font-weight="bold" font-size="35.0" fill="#74F6F4" transform="matrix(1.00, 0.00, -0.00, -1.00, 636.9, 52.0)">o</text><text xml:space="preserve" font-family="Helvetica-Bold" font-weight="bold" font-size="35.0" fill="#74F6F4" transform="matrix(1.00, 0.00, -0.00, -1.00, 658.2, 52.0)">m</text><text xml:space="preserve" font-family="Helvetica-Bold" font-weight="bold" font-size="35.0" fill="#74F6F4" transform="matrix(1.00, 0.00, -0.00, -1.00, 689.4, 52.0)"> </text><text xml:space="preserve" font-family="Helvetica-Bold" font-weight="bold" font-size="35.0" fill="#74F6F4" transform="matrix(1.00, 0.00, -0.00, -1.00, 699.1, 52.0)">r</text><text xml:space="preserve" font-family="Helvetica-Bold" font-weight="bold" font-size="35.0" fill="#74F6F4" transform="matrix(1.00, 0.00, -0.00, -1.00, 712.7, 52.0)">e</text><text xml:space="preserve" font-family="Helvetica-Bold" font-weight="bold" font-size="35.0" fill="#74F6F4" transform="matrix(1.00, 0.00, -0.00, -1.00, 732.2, 52.0)">s</text><text xml:space="preserve" font-family="Helvetica-Bold" font-weight="bold" font-size="35.0" fill="#74F6F4" transform="matrix(1.00, 0.00, -0.00, -1.00, 751.6, 52.0)">e</text><text xml:space="preserve" font-family="Helvetica-Bold" font-weight="bold" font-size="35.0" fill="#74F6F4" transform="matrix(1.00, 0.00, -0.00, -1.00, 771.1, 52.0)">a</text><text xml:space="preserve" font-family="Helvetica-Bold" font-weight="bold" font-size="35.0" fill="#74F6F4" transform="matrix(1.00, 0.00, -0.00, -1.00, 790.6, 52.0)">r</text><text xml:space="preserve" font-family="Helvetica-Bold" font-weight="bold" font-size="35.0" fill="#74F6F4" transform="matrix(1.00, 0.00, -0.00, -1.00, 804.2, 52.0)">c</text><text xml:space="preserve" font-family="Helvetica-Bold" font-weight="bold" font-size="35.0" fill="#74F6F4" transform="matrix(1.00, 0.00, -0.00, -1.00, 823.7, 52.0)">h</text><text xml:space="preserve" font-family="Helvetica-Bold" font-weight="bold" font-size="35.0" fill="#74F6F4" transform="matrix(1.00, 0.00, -0.00, -1.00, 845.1, 52.0)">i</text><text xml:space="preserve" font-family="Helvetica-Bold" font-weight="bold" font-size="35.0" fill="#74F6F4" transform="matrix(1.00, 0.00, -0.00, -1.00, 854.8, 52.0)">n</text><text xml:space="preserve" font-family="Helvetica-Bold" font-weight="bold" font-size="35.0" fill="#74F6F4" transform="matrix(1.00, 0.00, -0.00, -1.00, 876.1, 52.0)">g</text><text xml:space="preserve" font-family="Helvetica-Bold" font-weight="bold" font-size="35.0" fill="#74F6F4" transform="matrix(1.00, 0.00, -0.00, -1.00, 897.5, 52.0)"> </text><text xml:space="preserve" font-family="Helvetica-Bold" font-weight="bold" font-size="35.0" fill="#74F6F4" transform="matrix(1.00, 0.00, -0.00, -1.00, -1.0, 10.0)">i</text><text xml:space="preserve" font-family="Helvetica-Bold" font-weight="bold" font-size="35.0" fill="#74F6F4" transform="matrix(1.00, 0.00, -0.00, -1.00, 8.7, 10.0)">n</text><text xml:space="preserve" font-family="Helvetica-Bold" font-weight="bold" font-size="35.0" fill="#74F6F4" transform="matrix(1.00, 0.00, -0.00, -1.00, 30.1, 10.0)"> </text><text xml:space="preserve" font-family="Helvetica-Bold" font-weight="bold" font-size="35.0" fill="#74F6F4" transform="matrix(1.00, 0.00, -0.00, -1.00, 39.8, 10.0)">p</text><text xml:space="preserve" font-family="Helvetica-Bold" font-weight="bold" font-size="35.0" fill="#74F6F4" transform="matrix(1.00, 0.00, -0.00, -1.00, 61.2, 10.0)">a</text><text xml:space="preserve" font-family="Helvetica-Bold" font-weight="bold" font-size="35.0" fill="#74F6F4" transform="matrix(1.00, 0.00, -0.00, -1.00, 80.6, 10.0)">i</text><text xml:space="preserve" font-family="Helvetica-Bold" font-weight="bold" font-size="35.0" fill="#74F6F4" transform="matrix(1.00, 0.00, -0.00, -1.00, 90.4, 10.0)">r</text><text xml:space="preserve" font-family="Helvetica-Bold" font-weight="bold" font-size="35.0" fill="#74F6F4" transform="matrix(1.00, 0.00, -0.00, -1.00, 104.0, 10.0)">s</text><text xml:space="preserve" font-family="Helvetica-Bold" font-weight="bold" font-size="35.0" fill="#74F6F4" transform="matrix(1.00, 0.00, -0.00, -1.00, 123.4, 10.0)">?</text></g></svg>