<?xml version="1.0" encoding="UTF-8" standalone="no"?><svg xmlns="http://www.w3.org/2000/svg" xmlns:xlink="http://www.w3.org/1999/xlink" clip-rule="evenodd" stroke-miterlimit="4.00" viewBox="0 0 522 30"><desc>SVG generated by Keynote</desc><defs></defs><g transform="matrix(1.00, 0.00, -0.00, -1.00, 0.0, 30.0)"><text xml:space="preserve" font-family="LucidaGrande" font-size="19.6" fill="#FEFFFE" transform="matrix(1.00, 0.00, -0.00, -1.00, 0.1, 11.4)">‣</text><text xml:space="preserve" font-family="Helvetica" font-size="28.0" fill="#FEFFFE" transform="matrix(1.00, 0.00, -0.00, -1.00, 14.0, 8.0)">U</text><text xml:space="preserve" font-family="Helvetica" font-size="28.0" fill="#FEFFFE" transform="matrix(1.00, 0.00, -0.00, -1.00, 34.2, 8.0)">s</text><text xml:space="preserve" font-family="Helvetica" font-size="28.0" fill="#FEFFFE" transform="matrix(1.00, 0.00, -0.00, -1.00, 48.2, 8.0)">e</text><text xml:space="preserve" font-family="Helvetica" font-size="28.0" fill="#FEFFFE" transform="matrix(1.00, 0.00, -0.00, -1.00, 63.8, 8.0)"> </text><text xml:space="preserve" font-family="Helvetica" font-size="28.0" fill="#FEFFFE" transform="matrix(1.00, 0.00, -0.00, -1.00, 71.6, 8.0)">k</text><text xml:space="preserve" font-family="Helvetica" font-size="28.0" fill="#FEFFFE" transform="matrix(1.00, 0.00, -0.00, -1.00, 85.6, 8.0)">e</text><text xml:space="preserve" font-family="Helvetica" font-size="28.0" fill="#FEFFFE" transform="matrix(1.00, 0.00, -0.00, -1.00, 101.2, 8.0)">y</text><text xml:space="preserve" font-family="Helvetica" font-size="28.0" fill="#FEFFFE" transform="matrix(1.00, 0.00, -0.00, -1.00, 115.2, 8.0)">b</text><text xml:space="preserve" font-family="Helvetica" font-size="28.0" fill="#FEFFFE" transform="matrix(1.00, 0.00, -0.00, -1.00, 130.7, 8.0)">o</text><text xml:space="preserve" font-family="Helvetica" font-size="28.0" fill="#FEFFFE" transform="matrix(1.00, 0.00, -0.00, -1.00, 146.3, 8.0)">a</text><text xml:space="preserve" font-family="Helvetica" font-size="28.0" fill="#FEFFFE" transform="matrix(1.00, 0.00, -0.00, -1.00, 161.9, 8.0)">r</text><text xml:space="preserve" font-family="Helvetica" font-size="28.0" fill="#FEFFFE" transform="matrix(1.00, 0.00, -0.00, -1.00, 171.2, 8.0)">d</text><text xml:space="preserve" font-family="Helvetica" font-size="28.0" fill="#FEFFFE" transform="matrix(1.00, 0.00, -0.00, -1.00, 186.8, 8.0)"> </text><text xml:space="preserve" font-family="Helvetica" font-size="28.0" fill="#FEFFFE" transform="matrix(1.00, 0.00, -0.00, -1.00, 194.6, 8.0)">a</text><text xml:space="preserve" font-family="Helvetica" font-size="28.0" fill="#FEFFFE" transform="matrix(1.00, 0.00, -0.00, -1.00, 210.1, 8.0)">r</text><text xml:space="preserve" font-family="Helvetica" font-size="28.0" fill="#FEFFFE" transform="matrix(1.00, 0.00, -0.00, -1.00, 219.5, 8.0)">r</text><text xml:space="preserve" font-family="Helvetica" font-size="28.0" fill="#FEFFFE" transform="matrix(1.00, 0.00, -0.00, -1.00, 228.8, 8.0)">o</text><text xml:space="preserve" font-family="Helvetica" font-size="28.0" fill="#FEFFFE" transform="matrix(1.00, 0.00, -0.00, -1.00, 244.4, 8.0)">w</text><text xml:space="preserve" font-family="Helvetica" font-size="28.0" fill="#FEFFFE" transform="matrix(1.00, 0.00, -0.00, -1.00, 264.6, 8.0)">s</text><text xml:space="preserve" font-family="Helvetica" font-size="28.0" fill="#FEFFFE" transform="matrix(1.00, 0.00, -0.00, -1.00, 278.6, 8.0)"> </text><text xml:space="preserve" font-family="Helvetica" font-size="28.0" fill="#FEFFFE" transform="matrix(1.00, 0.00, -0.00, -1.00, 286.4, 8.0)">t</text><text xml:space="preserve" font-family="Helvetica" font-size="28.0" fill="#FEFFFE" transform="matrix(1.00, 0.00, -0.00, -1.00, 294.1, 8.0)">o</text><text xml:space="preserve" font-family="Helvetica" font-size="28.0" fill="#FEFFFE" transform="matrix(1.00, 0.00, -0.00, -1.00, 309.7, 8.0)"> </text><text xml:space="preserve" font-family="Helvetica" font-size="28.0" fill="#FEFFFE" transform="matrix(1.00, 0.00, -0.00, -1.00, 317.5, 8.0)">t</text><text xml:space="preserve" font-family="Helvetica" font-size="28.0" fill="#FEFFFE" transform="matrix(1.00, 0.00, -0.00, -1.00, 325.3, 8.0)">r</text><text xml:space="preserve" font-family="Helvetica" font-size="28.0" fill="#FEFFFE" transform="matrix(1.00, 0.00, -0.00, -1.00, 334.6, 8.0)">a</text><text xml:space="preserve" font-family="Helvetica" font-size="28.0" fill="#FEFFFE" transform="matrix(1.00, 0.00, -0.00, -1.00, 350.2, 8.0)">v</text><text xml:space="preserve" font-family="Helvetica" font-size="28.0" fill="#FEFFFE" transform="matrix(1.00, 0.00, -0.00, -1.00, 364.2, 8.0)">e</text><text xml:space="preserve" font-family="Helvetica" font-size="28.0" fill="#FEFFFE" transform="matrix(1.00, 0.00, -0.00, -1.00, 379.7, 8.0)">r</text><text xml:space="preserve" font-family="Helvetica" font-size="28.0" fill="#FEFFFE" transform="matrix(1.00, 0.00, -0.00, -1.00, 389.1, 8.0)">s</text><text xml:space="preserve" font-family="Helvetica" font-size="28.0" fill="#FEFFFE" transform="matrix(1.00, 0.00, -0.00, -1.00, 403.1, 8.0)">e</text><text xml:space="preserve" font-family="Helvetica" font-size="28.0" fill="#FEFFFE" transform="matrix(1.00, 0.00, -0.00, -1.00, 418.7, 8.0)"> </text><text xml:space="preserve" font-family="Helvetica" font-size="28.0" fill="#FEFFFE" transform="matrix(1.00, 0.00, -0.00, -1.00, 426.4, 8.0)">t</text><text xml:space="preserve" font-family="Helvetica" font-size="28.0" fill="#FEFFFE" transform="matrix(1.00, 0.00, -0.00, -1.00, 434.2, 8.0)">h</text><text xml:space="preserve" font-family="Helvetica" font-size="28.0" fill="#FEFFFE" transform="matrix(1.00, 0.00, -0.00, -1.00, 449.8, 8.0)">e</text><text xml:space="preserve" font-family="Helvetica" font-size="28.0" fill="#FEFFFE" transform="matrix(1.00, 0.00, -0.00, -1.00, 465.4, 8.0)"> </text><text xml:space="preserve" font-family="Helvetica" font-size="28.0" fill="#FEFFFE" transform="matrix(1.00, 0.00, -0.00, -1.00, 473.1, 8.0)">t</text><text xml:space="preserve" font-family="Helvetica" font-size="28.0" fill="#FEFFFE" transform="matrix(1.00, 0.00, -0.00, -1.00, 480.9, 8.0)">r</text><text xml:space="preserve" font-family="Helvetica" font-size="28.0" fill="#FEFFFE" transform="matrix(1.00, 0.00, -0.00, -1.00, 490.2, 8.0)">e</text><text xml:space="preserve" font-family="Helvetica" font-size="28.0" fill="#FEFFFE" transform="matrix(1.00, 0.00, -0.00, -1.00, 505.8, 8.0)">e</text></g></svg>