<?xml version="1.0" encoding="UTF-8" standalone="no"?><svg xmlns="http://www.w3.org/2000/svg" xmlns:xlink="http://www.w3.org/1999/xlink" clip-rule="evenodd" stroke-miterlimit="4.00" viewBox="0 0 1024 640"><desc>SVG generated by Keynote</desc><defs></defs><g transform="matrix(1.00, 0.00, -0.00, -1.00, 0.0, 640.0)"><path d="M 0.0 640.0 L 1024.0 640.0 L 1024.0 0.0 L 0.0 0.0 Z M 0.0 640.0 " fill="#000000"></path><path d="M 0.0 0.0 L 653.6 653.6 " fill="none" stroke="#FEFFFF" stroke-width="15.00" transform="matrix(0.71, 0.71, 0.71, -0.71, 50.0, 571.6)"></path><path d="M 0.0 0.0 L 653.8 653.8 " fill="none" stroke="#FEFFFF" stroke-width="1.50" transform="matrix(0.71, 0.71, 0.71, -0.71, 50.2, 64.4)"></path><text xml:space="preserve" font-family="Helvetica-Bold" font-weight="bold" font-size="70.0" fill="#FEFFFF" transform="matrix(1.00, 0.00, -0.00, -1.00, 50.0, 479.0)">O</text><text xml:space="preserve" font-family="Helvetica-Bold" font-weight="bold" font-size="70.0" fill="#FEFFFF" transform="matrix(1.00, 0.00, -0.00, -1.00, 103.0, 479.0)">B</text><text xml:space="preserve" font-family="Helvetica-Bold" font-weight="bold" font-size="70.0" fill="#FEFFFF" transform="matrix(1.00, 0.00, -0.00, -1.00, 152.2, 479.0)">J</text><text xml:space="preserve" font-family="Helvetica-Bold" font-weight="bold" font-size="70.0" fill="#FEFFFF" transform="matrix(1.00, 0.00, -0.00, -1.00, 189.7, 479.0)">E</text><text xml:space="preserve" font-family="Helvetica-Bold" font-weight="bold" font-size="70.0" fill="#FEFFFF" transform="matrix(1.00, 0.00, -0.00, -1.00, 235.0, 479.0)">C</text><text xml:space="preserve" font-family="Helvetica-Bold" font-weight="bold" font-size="70.0" fill="#FEFFFF" transform="matrix(1.00, 0.00, -0.00, -1.00, 284.1, 479.0)">T</text><text xml:space="preserve" font-family="Helvetica-Bold" font-weight="bold" font-size="70.0" fill="#FEFFFF" transform="matrix(1.00, 0.00, -0.00, -1.00, 325.4, 479.0)">I</text><text xml:space="preserve" font-family="Helvetica-Bold" font-weight="bold" font-size="70.0" fill="#FEFFFF" transform="matrix(1.00, 0.00, -0.00, -1.00, 343.5, 479.0)">V</text><text xml:space="preserve" font-family="Helvetica-Bold" font-weight="bold" font-size="70.0" fill="#FEFFFF" transform="matrix(1.00, 0.00, -0.00, -1.00, 388.8, 479.0)">E</text><text xml:space="preserve" font-family="Helvetica-Bold" font-weight="bold" font-size="70.0" fill="#FEFFFF" transform="matrix(1.00, 0.00, -0.00, -1.00, 434.0, 479.0)">S</text><text xml:space="preserve" font-family="Helvetica-Bold" font-weight="bold" font-size="16.0" fill="#FEFFFF" transform="matrix(1.00, 0.00, -0.00, -1.00, 52.0, 41.0)">W</text><text xml:space="preserve" font-family="Helvetica-Bold" font-weight="bold" font-size="16.0" fill="#FEFFFF" transform="matrix(1.00, 0.00, -0.00, -1.00, 66.8, 41.0)">E</text><text xml:space="preserve" font-family="Helvetica-Bold" font-weight="bold" font-size="16.0" fill="#FEFFFF" transform="matrix(1.00, 0.00, -0.00, -1.00, 77.1, 41.0)">B</text><text xml:space="preserve" font-family="Helvetica-Bold" font-weight="bold" font-size="16.0" fill="#FEFFFF" transform="matrix(1.00, 0.00, -0.00, -1.00, 88.4, 41.0)"> </text><text xml:space="preserve" font-family="Helvetica-Bold" font-weight="bold" font-size="16.0" fill="#FEFFFF" transform="matrix(1.00, 0.00, -0.00, -1.00, 92.5, 41.0)">D</text><text xml:space="preserve" font-family="Helvetica-Bold" font-weight="bold" font-size="16.0" fill="#FEFFFF" transform="matrix(1.00, 0.00, -0.00, -1.00, 103.7, 41.0)">E</text><text xml:space="preserve" font-family="Helvetica-Bold" font-weight="bold" font-size="16.0" fill="#FEFFFF" transform="matrix(1.00, 0.00, -0.00, -1.00, 114.1, 41.0)">V</text><text xml:space="preserve" font-family="Helvetica-Bold" font-weight="bold" font-size="16.0" fill="#FEFFFF" transform="matrix(1.00, 0.00, -0.00, -1.00, 124.4, 41.0)">E</text><text xml:space="preserve" font-family="Helvetica-Bold" font-weight="bold" font-size="16.0" fill="#FEFFFF" transform="matrix(1.00, 0.00, -0.00, -1.00, 134.8, 41.0)">L</text><text xml:space="preserve" font-family="Helvetica-Bold" font-weight="bold" font-size="16.0" fill="#FEFFFF" transform="matrix(1.00, 0.00, -0.00, -1.00, 144.2, 41.0)">O</text><text xml:space="preserve" font-family="Helvetica-Bold" font-weight="bold" font-size="16.0" fill="#FEFFFF" transform="matrix(1.00, 0.00, -0.00, -1.00, 156.3, 41.0)">P</text><text xml:space="preserve" font-family="Helvetica-Bold" font-weight="bold" font-size="16.0" fill="#FEFFFF" transform="matrix(1.00, 0.00, -0.00, -1.00, 166.7, 41.0)">M</text><text xml:space="preserve" font-family="Helvetica-Bold" font-weight="bold" font-size="16.0" fill="#FEFFFF" transform="matrix(1.00, 0.00, -0.00, -1.00, 179.7, 41.0)">E</text><text xml:space="preserve" font-family="Helvetica-Bold" font-weight="bold" font-size="16.0" fill="#FEFFFF" transform="matrix(1.00, 0.00, -0.00, -1.00, 190.0, 41.0)">N</text><text xml:space="preserve" font-family="Helvetica-Bold" font-weight="bold" font-size="16.0" fill="#FEFFFF" transform="matrix(1.00, 0.00, -0.00, -1.00, 201.3, 41.0)">T</text><text xml:space="preserve" font-family="Helvetica-Bold" font-weight="bold" font-size="16.0" fill="#FEFFFF" transform="matrix(1.00, 0.00, -0.00, -1.00, 210.7, 41.0)"> </text><text xml:space="preserve" font-family="Helvetica-Bold" font-weight="bold" font-size="16.0" fill="#FEFFFF" transform="matrix(1.00, 0.00, -0.00, -1.00, 214.8, 41.0)">I</text><text xml:space="preserve" font-family="Helvetica-Bold" font-weight="bold" font-size="16.0" fill="#FEFFFF" transform="matrix(1.00, 0.00, -0.00, -1.00, 219.0, 41.0)">M</text><text xml:space="preserve" font-family="Helvetica-Bold" font-weight="bold" font-size="16.0" fill="#FEFFFF" transform="matrix(1.00, 0.00, -0.00, -1.00, 232.0, 41.0)">M</text><text xml:space="preserve" font-family="Helvetica-Bold" font-weight="bold" font-size="16.0" fill="#FEFFFF" transform="matrix(1.00, 0.00, -0.00, -1.00, 245.0, 41.0)">E</text><text xml:space="preserve" font-family="Helvetica-Bold" font-weight="bold" font-size="16.0" fill="#FEFFFF" transform="matrix(1.00, 0.00, -0.00, -1.00, 255.3, 41.0)">R</text><text xml:space="preserve" font-family="Helvetica-Bold" font-weight="bold" font-size="16.0" fill="#FEFFFF" transform="matrix(1.00, 0.00, -0.00, -1.00, 266.5, 41.0)">S</text><text xml:space="preserve" font-family="Helvetica-Bold" font-weight="bold" font-size="16.0" fill="#FEFFFF" transform="matrix(1.00, 0.00, -0.00, -1.00, 276.9, 41.0)">I</text><text xml:space="preserve" font-family="Helvetica-Bold" font-weight="bold" font-size="16.0" fill="#FEFFFF" transform="matrix(1.00, 0.00, -0.00, -1.00, 281.0, 41.0)">V</text><text xml:space="preserve" font-family="Helvetica-Bold" font-weight="bold" font-size="16.0" fill="#FEFFFF" transform="matrix(1.00, 0.00, -0.00, -1.00, 291.4, 41.0)">E</text><g><clipPath id="clip-6"><path d="M 949.0 54.9 L 974.9 54.9 L 974.9 29.0 L 949.0 29.0 Z M 949.0 54.9 "></path></clipPath><g clip-path="url(#clip-6)"><g><clipPath id="clip-7"><path d="M 949.0 29.0 L 975.0 29.0 L 975.0 55.0 L 949.0 55.0 Z M 949.0 29.0 "></path></clipPath><g clip-path="url(#clip-7)"><path d="M 965.9 34.4 L 965.5 38.1 L 964.2 38.1 L 963.7 34.4 L 961.6 34.4 L 963.6 49.4 L 966.1 49.4 L 968.1 34.4 L 965.9 34.4 Z M 961.1 44.5 L 959.0 44.5 L 959.0 46.7 C 959.0 46.8 959.0 46.9 959.0 47.0 C 958.9 47.1 958.9 47.2 958.9 47.3 C 958.8 47.3 958.7 47.4 958.7 47.5 C 958.6 47.5 958.5 47.6 958.3 47.6 C 958.3 47.6 958.3 47.6 958.3 47.5 L 958.3 47.6 C 958.2 47.6 958.0 47.5 958.0 47.5 C 957.9 47.4 957.8 47.3 957.8 47.3 C 957.7 47.2 957.7 47.1 957.7 47.0 C 957.6 46.9 957.6 46.8 957.6 46.7 L 957.6 36.9 C 957.6 36.8 957.7 36.6 957.7 36.5 C 957.8 36.4 958.0 36.3 958.2 36.3 C 958.4 36.3 958.6 36.4 958.7 36.5 C 958.8 36.6 958.9 36.7 958.9 36.9 L 958.9 39.7 L 958.2 39.7 L 958.2 41.5 L 961.0 41.5 L 961.0 37.0 C 961.0 36.1 960.7 35.5 960.3 35.0 C 959.8 34.6 959.1 34.3 958.3 34.3 C 957.3 34.3 956.7 34.6 956.2 35.0 C 955.8 35.5 955.6 36.1 955.6 37.0 L 955.6 46.7 C 955.6 47.6 955.8 48.3 956.3 48.8 C 956.7 49.3 957.4 49.5 958.3 49.5 L 958.3 49.5 C 959.2 49.5 959.9 49.3 960.4 48.8 C 960.8 48.3 961.1 47.6 961.1 46.7 L 961.1 44.5 Z M 973.9 41.9 C 973.9 42.4 974.3 42.9 974.9 42.9 C 974.8 43.4 974.8 43.9 974.7 44.4 L 974.7 44.4 C 974.2 44.3 973.7 44.5 973.5 45.0 C 973.4 45.5 973.7 46.0 974.2 46.2 L 974.2 46.2 C 974.0 46.7 973.8 47.1 973.6 47.6 L 973.6 47.6 C 973.1 47.3 972.6 47.5 972.3 47.9 C 972.1 48.4 972.2 48.9 972.7 49.2 L 972.7 49.2 C 972.4 49.6 972.1 50.0 971.7 50.4 L 971.7 50.4 C 971.4 50.1 970.8 50.1 970.4 50.4 C 970.1 50.8 970.1 51.4 970.4 51.7 L 970.4 51.7 C 970.0 52.1 969.6 52.4 969.2 52.7 L 969.2 52.7 C 968.9 52.2 968.4 52.1 967.9 52.3 C 967.5 52.6 967.3 53.2 967.6 53.6 L 967.6 53.6 C 967.1 53.8 966.7 54.0 966.2 54.2 L 966.2 54.2 C 966.0 53.7 965.5 53.4 965.0 53.5 C 964.5 53.7 964.2 54.2 964.4 54.7 L 964.4 54.7 C 963.9 54.8 963.4 54.8 962.9 54.9 C 962.9 54.4 962.4 53.9 961.9 53.9 C 961.4 53.9 961.0 54.4 961.0 54.9 C 960.5 54.8 960.0 54.8 959.5 54.7 L 959.5 54.7 C 959.6 54.2 959.3 53.7 958.8 53.5 C 958.3 53.4 957.8 53.7 957.7 54.2 L 957.7 54.2 C 957.2 54.0 956.7 53.8 956.3 53.6 L 956.3 53.6 C 956.5 53.2 956.4 52.6 955.9 52.3 C 955.5 52.1 954.9 52.2 954.7 52.7 L 954.7 52.7 C 954.2 52.4 953.8 52.1 953.4 51.7 C 953.8 51.4 953.8 50.8 953.4 50.4 C 953.1 50.1 952.5 50.1 952.1 50.4 L 952.1 50.4 C 951.8 50.0 951.5 49.6 951.2 49.2 L 951.2 49.2 C 951.6 48.9 951.8 48.4 951.5 47.9 C 951.3 47.5 950.7 47.3 950.3 47.6 L 950.3 47.6 C 950.0 47.1 949.8 46.7 949.7 46.2 L 949.7 46.2 C 950.2 46.0 950.5 45.5 950.3 45.0 C 950.2 44.5 949.7 44.3 949.2 44.4 L 949.2 44.4 C 949.1 43.9 949.0 43.4 949.0 42.9 C 949.5 42.9 949.9 42.4 949.9 41.9 C 949.9 41.4 949.5 41.0 949.0 41.0 C 949.0 40.5 949.1 40.0 949.2 39.5 L 949.2 39.5 C 949.7 39.6 950.2 39.3 950.3 38.8 C 950.5 38.3 950.2 37.8 949.7 37.7 L 949.7 37.7 C 949.8 37.2 950.0 36.7 950.3 36.3 L 950.3 36.3 C 950.7 36.5 951.3 36.4 951.5 35.9 C 951.8 35.5 951.6 34.9 951.2 34.7 L 951.2 34.7 C 951.5 34.2 951.8 33.8 952.1 33.4 C 952.5 33.8 953.1 33.8 953.4 33.4 C 953.8 33.1 953.8 32.5 953.4 32.1 L 953.4 32.1 C 953.8 31.8 954.2 31.5 954.7 31.2 L 954.7 31.2 C 954.9 31.6 955.5 31.8 955.9 31.5 C 956.4 31.3 956.5 30.7 956.3 30.3 L 956.3 30.3 C 956.7 30.0 957.2 29.8 957.7 29.7 L 957.7 29.7 C 957.8 30.2 958.3 30.5 958.8 30.3 C 959.3 30.2 959.6 29.7 959.5 29.2 L 959.5 29.2 C 960.0 29.1 960.5 29.0 961.0 29.0 C 961.0 29.5 961.4 29.9 961.9 29.9 C 962.4 29.9 962.9 29.5 962.9 29.0 L 962.9 29.0 C 963.4 29.0 963.9 29.1 964.4 29.2 L 964.4 29.2 C 964.2 29.7 964.5 30.2 965.0 30.3 C 965.5 30.5 966.0 30.2 966.2 29.7 L 966.2 29.7 C 966.7 29.8 967.1 30.0 967.6 30.3 L 967.6 30.3 C 967.3 30.7 967.5 31.3 967.9 31.5 C 968.4 31.8 968.9 31.6 969.2 31.2 L 969.2 31.2 C 969.6 31.5 970.0 31.8 970.4 32.1 L 970.4 32.1 C 970.1 32.5 970.1 33.1 970.4 33.4 C 970.8 33.8 971.4 33.8 971.7 33.4 L 971.7 33.4 C 972.1 33.8 972.4 34.2 972.7 34.7 L 972.7 34.7 C 972.2 34.9 972.1 35.5 972.3 35.9 C 972.6 36.4 973.1 36.5 973.6 36.3 L 973.6 36.3 C 973.8 36.7 974.0 37.2 974.2 37.7 L 974.2 37.7 C 973.7 37.8 973.4 38.3 973.5 38.8 C 973.7 39.3 974.2 39.6 974.7 39.5 L 974.7 39.5 C 974.8 40.0 974.8 40.5 974.9 41.0 C 974.3 41.0 973.9 41.4 973.9 41.9 " fill="#FFFEFE"></path></g></g></g></g><g><clipPath id="clip-8"><path d="M 949.0 29.0 L 975.0 29.0 L 975.0 55.0 L 949.0 55.0 Z M 949.0 29.0 "></path></clipPath><g clip-path="url(#clip-8)"><path d="M 964.8 41.7 C 964.3 41.7 963.9 41.3 963.9 40.8 C 963.9 40.3 964.3 39.8 964.8 39.8 C 965.3 39.8 965.7 40.3 965.7 40.8 C 965.7 41.3 965.3 41.7 964.8 41.7 " fill="#FFFEFE"></path></g></g></g></svg>