<?xml version="1.0" encoding="UTF-8" standalone="no"?><svg xmlns="http://www.w3.org/2000/svg" xmlns:xlink="http://www.w3.org/1999/xlink" clip-rule="evenodd" stroke-miterlimit="4.00" viewBox="0 0 254 28"><desc>SVG generated by Keynote</desc><defs></defs><g transform="matrix(1.00, 0.00, -0.00, -1.00, 0.0, 28.0)"><text xml:space="preserve" font-family="LucidaGrande" font-size="20.3" fill="#FEFFFE" transform="matrix(1.00, 0.00, -0.00, -1.00, 0.2, 7.6)">‣</text><text xml:space="preserve" font-family="Helvetica" font-size="29.0" fill="#FEFFFE" transform="matrix(1.00, 0.00, -0.00, -1.00, 14.0, 4.0)">A</text><text xml:space="preserve" font-family="Helvetica" font-size="29.0" fill="#FEFFFE" transform="matrix(1.00, 0.00, -0.00, -1.00, 33.3, 4.0)">U</text><text xml:space="preserve" font-family="Helvetica" font-size="29.0" fill="#FEFFFE" transform="matrix(1.00, 0.00, -0.00, -1.00, 54.3, 4.0)">T</text><text xml:space="preserve" font-family="Helvetica" font-size="29.0" fill="#FEFFFE" transform="matrix(1.00, 0.00, -0.00, -1.00, 71.5, 4.0)">O</text><text xml:space="preserve" font-family="Helvetica" font-size="29.0" fill="#FEFFFE" transform="matrix(1.00, 0.00, -0.00, -1.00, 94.0, 4.0)">C</text><text xml:space="preserve" font-family="Helvetica" font-size="29.0" fill="#FEFFFE" transform="matrix(1.00, 0.00, -0.00, -1.00, 115.0, 4.0)">O</text><text xml:space="preserve" font-family="Helvetica" font-size="29.0" fill="#FEFFFE" transform="matrix(1.00, 0.00, -0.00, -1.00, 137.5, 4.0)">M</text><text xml:space="preserve" font-family="Helvetica" font-size="29.0" fill="#FEFFFE" transform="matrix(1.00, 0.00, -0.00, -1.00, 161.7, 4.0)">P</text><text xml:space="preserve" font-family="Helvetica" font-size="29.0" fill="#FEFFFE" transform="matrix(1.00, 0.00, -0.00, -1.00, 181.0, 4.0)">L</text><text xml:space="preserve" font-family="Helvetica" font-size="29.0" fill="#FEFFFE" transform="matrix(1.00, 0.00, -0.00, -1.00, 197.2, 4.0)">E</text><text xml:space="preserve" font-family="Helvetica" font-size="29.0" fill="#FEFFFE" transform="matrix(1.00, 0.00, -0.00, -1.00, 216.5, 4.0)">T</text><text xml:space="preserve" font-family="Helvetica" font-size="29.0" fill="#FEFFFE" transform="matrix(1.00, 0.00, -0.00, -1.00, 234.2, 4.0)">E</text></g></svg>