<?xml version="1.0" encoding="UTF-8" standalone="no"?><svg xmlns="http://www.w3.org/2000/svg" xmlns:xlink="http://www.w3.org/1999/xlink" clip-rule="evenodd" stroke-miterlimit="4.00" viewBox="0 0 348 31"><desc>SVG generated by Keynote</desc><defs></defs><g transform="matrix(1.00, 0.00, -0.00, -1.00, 0.0, 31.0)"><text xml:space="preserve" font-family="LucidaGrande" font-size="20.3" fill="#FEFFFE" transform="matrix(1.00, 0.00, -0.00, -1.00, 0.2, 11.6)">‣</text><text xml:space="preserve" font-family="Helvetica" font-size="29.0" fill="#FEFFFE" transform="matrix(1.00, 0.00, -0.00, -1.00, 14.0, 8.0)">A</text><text xml:space="preserve" font-family="Helvetica" font-size="29.0" fill="#FEFFFE" transform="matrix(1.00, 0.00, -0.00, -1.00, 31.8, 8.0)"> </text><text xml:space="preserve" font-family="Helvetica" font-size="29.0" fill="#FEFFFE" transform="matrix(1.00, 0.00, -0.00, -1.00, 39.8, 8.0)">J</text><text xml:space="preserve" font-family="Helvetica" font-size="29.0" fill="#FEFFFE" transform="matrix(1.00, 0.00, -0.00, -1.00, 54.3, 8.0)">a</text><text xml:space="preserve" font-family="Helvetica" font-size="29.0" fill="#FEFFFE" transform="matrix(1.00, 0.00, -0.00, -1.00, 70.4, 8.0)">v</text><text xml:space="preserve" font-family="Helvetica" font-size="29.0" fill="#FEFFFE" transform="matrix(1.00, 0.00, -0.00, -1.00, 84.9, 8.0)">a</text><text xml:space="preserve" font-family="Helvetica" font-size="29.0" fill="#FEFFFE" transform="matrix(1.00, 0.00, -0.00, -1.00, 101.1, 8.0)">s</text><text xml:space="preserve" font-family="Helvetica" font-size="29.0" fill="#FEFFFE" transform="matrix(1.00, 0.00, -0.00, -1.00, 115.6, 8.0)">c</text><text xml:space="preserve" font-family="Helvetica" font-size="29.0" fill="#FEFFFE" transform="matrix(1.00, 0.00, -0.00, -1.00, 130.1, 8.0)">r</text><text xml:space="preserve" font-family="Helvetica" font-size="29.0" fill="#FEFFFE" transform="matrix(1.00, 0.00, -0.00, -1.00, 139.7, 8.0)">i</text><text xml:space="preserve" font-family="Helvetica" font-size="29.0" fill="#FEFFFE" transform="matrix(1.00, 0.00, -0.00, -1.00, 146.2, 8.0)">p</text><text xml:space="preserve" font-family="Helvetica" font-size="29.0" fill="#FEFFFE" transform="matrix(1.00, 0.00, -0.00, -1.00, 162.3, 8.0)">t</text><text xml:space="preserve" font-family="Helvetica" font-size="29.0" fill="#FEFFFE" transform="matrix(1.00, 0.00, -0.00, -1.00, 170.4, 8.0)"> </text><text xml:space="preserve" font-family="Helvetica" font-size="29.0" fill="#FEFFFE" transform="matrix(1.00, 0.00, -0.00, -1.00, 178.4, 8.0)">p</text><text xml:space="preserve" font-family="Helvetica" font-size="29.0" fill="#FEFFFE" transform="matrix(1.00, 0.00, -0.00, -1.00, 194.6, 8.0)">l</text><text xml:space="preserve" font-family="Helvetica" font-size="29.0" fill="#FEFFFE" transform="matrix(1.00, 0.00, -0.00, -1.00, 201.0, 8.0)">a</text><text xml:space="preserve" font-family="Helvetica" font-size="29.0" fill="#FEFFFE" transform="matrix(1.00, 0.00, -0.00, -1.00, 217.1, 8.0)">y</text><text xml:space="preserve" font-family="Helvetica" font-size="29.0" fill="#FEFFFE" transform="matrix(1.00, 0.00, -0.00, -1.00, 231.6, 8.0)">g</text><text xml:space="preserve" font-family="Helvetica" font-size="29.0" fill="#FEFFFE" transform="matrix(1.00, 0.00, -0.00, -1.00, 247.8, 8.0)">r</text><text xml:space="preserve" font-family="Helvetica" font-size="29.0" fill="#FEFFFE" transform="matrix(1.00, 0.00, -0.00, -1.00, 257.4, 8.0)">o</text><text xml:space="preserve" font-family="Helvetica" font-size="29.0" fill="#FEFFFE" transform="matrix(1.00, 0.00, -0.00, -1.00, 273.6, 8.0)">u</text><text xml:space="preserve" font-family="Helvetica" font-size="29.0" fill="#FEFFFE" transform="matrix(1.00, 0.00, -0.00, -1.00, 289.7, 8.0)">n</text><text xml:space="preserve" font-family="Helvetica" font-size="29.0" fill="#FEFFFE" transform="matrix(1.00, 0.00, -0.00, -1.00, 305.8, 8.0)">d</text><text xml:space="preserve" font-family="Helvetica" font-size="29.0" fill="#FEFFFE" transform="matrix(1.00, 0.00, -0.00, -1.00, 322.0, 8.0)"> </text><text xml:space="preserve" font-family="Helvetica" font-size="29.0" fill="#FEFFFE" transform="matrix(1.00, 0.00, -0.00, -1.00, 330.0, 8.0)">:</text><text xml:space="preserve" font-family="Helvetica" font-size="29.0" fill="#FEFFFE" transform="matrix(1.00, 0.00, -0.00, -1.00, 338.1, 8.0)">)</text></g></svg>