<?xml version="1.0" encoding="UTF-8" standalone="no"?><svg xmlns="http://www.w3.org/2000/svg" xmlns:xlink="http://www.w3.org/1999/xlink" clip-rule="evenodd" stroke-miterlimit="4.00" viewBox="0 0 860 32"><desc>SVG generated by Keynote</desc><defs></defs><g transform="matrix(1.00, 0.00, -0.00, -1.00, 0.0, 32.0)"><text xml:space="preserve" font-family="Helvetica-Bold" font-weight="bold" font-size="29.0" fill="#C82505" transform="matrix(1.00, 0.00, -0.00, -1.00, 0.0, 8.0)">C</text><text xml:space="preserve" font-family="Helvetica-Bold" font-weight="bold" font-size="29.0" fill="#C82505" transform="matrix(1.00, 0.00, -0.00, -1.00, 20.9, 8.0)">O</text><text xml:space="preserve" font-family="Helvetica-Bold" font-weight="bold" font-size="29.0" fill="#C82505" transform="matrix(1.00, 0.00, -0.00, -1.00, 43.5, 8.0)">N</text><text xml:space="preserve" font-family="Helvetica-Bold" font-weight="bold" font-size="29.0" fill="#C82505" transform="matrix(1.00, 0.00, -0.00, -1.00, 64.4, 8.0)">S</text><text xml:space="preserve" font-family="Helvetica-Bold" font-weight="bold" font-size="29.0" fill="#C82505" transform="matrix(1.00, 0.00, -0.00, -1.00, 83.8, 8.0)">O</text><text xml:space="preserve" font-family="Helvetica-Bold" font-weight="bold" font-size="29.0" fill="#C82505" transform="matrix(1.00, 0.00, -0.00, -1.00, 106.3, 8.0)">L</text><text xml:space="preserve" font-family="Helvetica-Bold" font-weight="bold" font-size="29.0" fill="#C82505" transform="matrix(1.00, 0.00, -0.00, -1.00, 124.1, 8.0)">E</text><text xml:space="preserve" font-family="Helvetica-Bold" font-weight="bold" font-size="29.0" fill="#67D6D2" transform="matrix(1.00, 0.00, -0.00, -1.00, 143.4, 8.0)"> </text><text xml:space="preserve" font-family="Helvetica-Bold" font-weight="bold" font-size="29.0" fill="#67D6D2" transform="matrix(1.00, 0.00, -0.00, -1.00, 151.5, 8.0)">-</text><text xml:space="preserve" font-family="Helvetica-Bold" font-weight="bold" font-size="29.0" fill="#67D6D2" transform="matrix(1.00, 0.00, -0.00, -1.00, 161.1, 8.0)"> </text><text xml:space="preserve" font-family="Helvetica-Bold" font-weight="bold" font-size="29.0" fill="#67D6D2" transform="matrix(1.00, 0.00, -0.00, -1.00, 169.2, 8.0)">W</text><text xml:space="preserve" font-family="Helvetica-Bold" font-weight="bold" font-size="29.0" fill="#67D6D2" transform="matrix(1.00, 0.00, -0.00, -1.00, 196.5, 8.0)">h</text><text xml:space="preserve" font-family="Helvetica-Bold" font-weight="bold" font-size="29.0" fill="#67D6D2" transform="matrix(1.00, 0.00, -0.00, -1.00, 214.2, 8.0)">a</text><text xml:space="preserve" font-family="Helvetica-Bold" font-weight="bold" font-size="29.0" fill="#67D6D2" transform="matrix(1.00, 0.00, -0.00, -1.00, 230.4, 8.0)">t</text><text xml:space="preserve" font-family="Helvetica-Bold" font-weight="bold" font-size="29.0" fill="#67D6D2" transform="matrix(1.00, 0.00, -0.00, -1.00, 240.0, 8.0)"> </text><text xml:space="preserve" font-family="Helvetica-Bold" font-weight="bold" font-size="29.0" fill="#67D6D2" transform="matrix(1.00, 0.00, -0.00, -1.00, 248.1, 8.0)">h</text><text xml:space="preserve" font-family="Helvetica-Bold" font-weight="bold" font-size="29.0" fill="#67D6D2" transform="matrix(1.00, 0.00, -0.00, -1.00, 265.8, 8.0)">a</text><text xml:space="preserve" font-family="Helvetica-Bold" font-weight="bold" font-size="29.0" fill="#67D6D2" transform="matrix(1.00, 0.00, -0.00, -1.00, 281.9, 8.0)">v</text><text xml:space="preserve" font-family="Helvetica-Bold" font-weight="bold" font-size="29.0" fill="#67D6D2" transform="matrix(1.00, 0.00, -0.00, -1.00, 298.1, 8.0)">e</text><text xml:space="preserve" font-family="Helvetica-Bold" font-weight="bold" font-size="29.0" fill="#67D6D2" transform="matrix(1.00, 0.00, -0.00, -1.00, 314.2, 8.0)"> </text><text xml:space="preserve" font-family="Helvetica-Bold" font-weight="bold" font-size="29.0" fill="#67D6D2" transform="matrix(1.00, 0.00, -0.00, -1.00, 322.2, 8.0)">y</text><text xml:space="preserve" font-family="Helvetica-Bold" font-weight="bold" font-size="29.0" fill="#67D6D2" transform="matrix(1.00, 0.00, -0.00, -1.00, 338.4, 8.0)">o</text><text xml:space="preserve" font-family="Helvetica-Bold" font-weight="bold" font-size="29.0" fill="#67D6D2" transform="matrix(1.00, 0.00, -0.00, -1.00, 356.1, 8.0)">u</text><text xml:space="preserve" font-family="Helvetica-Bold" font-weight="bold" font-size="29.0" fill="#67D6D2" transform="matrix(1.00, 0.00, -0.00, -1.00, 373.8, 8.0)"> </text><text xml:space="preserve" font-family="Helvetica-Bold" font-weight="bold" font-size="29.0" fill="#67D6D2" transform="matrix(1.00, 0.00, -0.00, -1.00, 381.8, 8.0)">l</text><text xml:space="preserve" font-family="Helvetica-Bold" font-weight="bold" font-size="29.0" fill="#67D6D2" transform="matrix(1.00, 0.00, -0.00, -1.00, 389.9, 8.0)">e</text><text xml:space="preserve" font-family="Helvetica-Bold" font-weight="bold" font-size="29.0" fill="#67D6D2" transform="matrix(1.00, 0.00, -0.00, -1.00, 406.0, 8.0)">a</text><text xml:space="preserve" font-family="Helvetica-Bold" font-weight="bold" font-size="29.0" fill="#67D6D2" transform="matrix(1.00, 0.00, -0.00, -1.00, 422.2, 8.0)">r</text><text xml:space="preserve" font-family="Helvetica-Bold" font-weight="bold" font-size="29.0" fill="#67D6D2" transform="matrix(1.00, 0.00, -0.00, -1.00, 433.5, 8.0)">n</text><text xml:space="preserve" font-family="Helvetica-Bold" font-weight="bold" font-size="29.0" fill="#67D6D2" transform="matrix(1.00, 0.00, -0.00, -1.00, 451.2, 8.0)">e</text><text xml:space="preserve" font-family="Helvetica-Bold" font-weight="bold" font-size="29.0" fill="#67D6D2" transform="matrix(1.00, 0.00, -0.00, -1.00, 467.3, 8.0)">d</text><text xml:space="preserve" font-family="Helvetica-Bold" font-weight="bold" font-size="29.0" fill="#67D6D2" transform="matrix(1.00, 0.00, -0.00, -1.00, 485.0, 8.0)"> </text><text xml:space="preserve" font-family="Helvetica-Bold" font-weight="bold" font-size="29.0" fill="#67D6D2" transform="matrix(1.00, 0.00, -0.00, -1.00, 493.1, 8.0)">f</text><text xml:space="preserve" font-family="Helvetica-Bold" font-weight="bold" font-size="29.0" fill="#67D6D2" transform="matrix(1.00, 0.00, -0.00, -1.00, 502.7, 8.0)">r</text><text xml:space="preserve" font-family="Helvetica-Bold" font-weight="bold" font-size="29.0" fill="#67D6D2" transform="matrix(1.00, 0.00, -0.00, -1.00, 514.0, 8.0)">o</text><text xml:space="preserve" font-family="Helvetica-Bold" font-weight="bold" font-size="29.0" fill="#67D6D2" transform="matrix(1.00, 0.00, -0.00, -1.00, 531.7, 8.0)">m</text><text xml:space="preserve" font-family="Helvetica-Bold" font-weight="bold" font-size="29.0" fill="#67D6D2" transform="matrix(1.00, 0.00, -0.00, -1.00, 557.5, 8.0)"> </text><text xml:space="preserve" font-family="Helvetica-Bold" font-weight="bold" font-size="29.0" fill="#67D6D2" transform="matrix(1.00, 0.00, -0.00, -1.00, 565.6, 8.0)">r</text><text xml:space="preserve" font-family="Helvetica-Bold" font-weight="bold" font-size="29.0" fill="#67D6D2" transform="matrix(1.00, 0.00, -0.00, -1.00, 576.8, 8.0)">e</text><text xml:space="preserve" font-family="Helvetica-Bold" font-weight="bold" font-size="29.0" fill="#67D6D2" transform="matrix(1.00, 0.00, -0.00, -1.00, 593.0, 8.0)">s</text><text xml:space="preserve" font-family="Helvetica-Bold" font-weight="bold" font-size="29.0" fill="#67D6D2" transform="matrix(1.00, 0.00, -0.00, -1.00, 609.1, 8.0)">e</text><text xml:space="preserve" font-family="Helvetica-Bold" font-weight="bold" font-size="29.0" fill="#67D6D2" transform="matrix(1.00, 0.00, -0.00, -1.00, 625.3, 8.0)">a</text><text xml:space="preserve" font-family="Helvetica-Bold" font-weight="bold" font-size="29.0" fill="#67D6D2" transform="matrix(1.00, 0.00, -0.00, -1.00, 641.4, 8.0)">r</text><text xml:space="preserve" font-family="Helvetica-Bold" font-weight="bold" font-size="29.0" fill="#67D6D2" transform="matrix(1.00, 0.00, -0.00, -1.00, 652.7, 8.0)">c</text><text xml:space="preserve" font-family="Helvetica-Bold" font-weight="bold" font-size="29.0" fill="#67D6D2" transform="matrix(1.00, 0.00, -0.00, -1.00, 668.8, 8.0)">h</text><text xml:space="preserve" font-family="Helvetica-Bold" font-weight="bold" font-size="29.0" fill="#67D6D2" transform="matrix(1.00, 0.00, -0.00, -1.00, 686.5, 8.0)">i</text><text xml:space="preserve" font-family="Helvetica-Bold" font-weight="bold" font-size="29.0" fill="#67D6D2" transform="matrix(1.00, 0.00, -0.00, -1.00, 694.6, 8.0)">n</text><text xml:space="preserve" font-family="Helvetica-Bold" font-weight="bold" font-size="29.0" fill="#67D6D2" transform="matrix(1.00, 0.00, -0.00, -1.00, 712.3, 8.0)">g</text><text xml:space="preserve" font-family="Helvetica-Bold" font-weight="bold" font-size="29.0" fill="#67D6D2" transform="matrix(1.00, 0.00, -0.00, -1.00, 730.0, 8.0)"> </text><text xml:space="preserve" font-family="Helvetica-Bold" font-weight="bold" font-size="29.0" fill="#67D6D2" transform="matrix(1.00, 0.00, -0.00, -1.00, 738.0, 8.0)">i</text><text xml:space="preserve" font-family="Helvetica-Bold" font-weight="bold" font-size="29.0" fill="#67D6D2" transform="matrix(1.00, 0.00, -0.00, -1.00, 746.1, 8.0)">n</text><text xml:space="preserve" font-family="Helvetica-Bold" font-weight="bold" font-size="29.0" fill="#67D6D2" transform="matrix(1.00, 0.00, -0.00, -1.00, 763.8, 8.0)"> </text><text xml:space="preserve" font-family="Helvetica-Bold" font-weight="bold" font-size="29.0" fill="#67D6D2" transform="matrix(1.00, 0.00, -0.00, -1.00, 771.8, 8.0)">p</text><text xml:space="preserve" font-family="Helvetica-Bold" font-weight="bold" font-size="29.0" fill="#67D6D2" transform="matrix(1.00, 0.00, -0.00, -1.00, 789.6, 8.0)">a</text><text xml:space="preserve" font-family="Helvetica-Bold" font-weight="bold" font-size="29.0" fill="#67D6D2" transform="matrix(1.00, 0.00, -0.00, -1.00, 805.7, 8.0)">i</text><text xml:space="preserve" font-family="Helvetica-Bold" font-weight="bold" font-size="29.0" fill="#67D6D2" transform="matrix(1.00, 0.00, -0.00, -1.00, 813.7, 8.0)">r</text><text xml:space="preserve" font-family="Helvetica-Bold" font-weight="bold" font-size="29.0" fill="#67D6D2" transform="matrix(1.00, 0.00, -0.00, -1.00, 825.0, 8.0)">s</text><text xml:space="preserve" font-family="Helvetica-Bold" font-weight="bold" font-size="29.0" fill="#67D6D2" transform="matrix(1.00, 0.00, -0.00, -1.00, 841.2, 8.0)">?</text></g></svg>