<?xml version="1.0" encoding="UTF-8" standalone="no"?><svg xmlns="http://www.w3.org/2000/svg" xmlns:xlink="http://www.w3.org/1999/xlink" clip-rule="evenodd" stroke-miterlimit="4.00" viewBox="0 0 29 28"><desc>SVG generated by Keynote</desc><defs></defs><g transform="matrix(1.00, 0.00, -0.00, -1.00, 0.0, 28.0)"><g><clipPath id="clip-61"><path d="M -2.5 30.1 L 30.5 30.1 L 30.5 -1.4 L -2.5 -1.4 Z M -2.5 30.1 "></path></clipPath><g clip-path="url(#clip-61)"><g><clipPath id="clip-62"><path d="M 1.0 1.0 L 27.0 1.0 L 27.0 27.0 L 1.0 27.0 Z M 1.0 1.0 "></path></clipPath><g clip-path="url(#clip-62)"><path d="M 18.0 6.5 L 17.5 10.1 L 16.3 10.1 L 15.8 6.5 L 13.6 6.5 L 15.6 21.5 L 18.2 21.5 L 20.2 6.5 Z M 13.1 16.6 L 11.1 16.6 L 11.1 18.8 C 11.1 18.9 11.0 19.0 11.0 19.1 C 11.0 19.2 11.0 19.3 10.9 19.4 C 10.9 19.4 10.8 19.5 10.7 19.6 C 10.6 19.6 10.5 19.6 10.4 19.6 C 10.4 19.6 10.4 19.6 10.3 19.6 L 10.3 19.6 C 10.2 19.6 10.1 19.6 10.0 19.6 C 9.9 19.5 9.9 19.4 9.8 19.4 C 9.8 19.3 9.7 19.2 9.7 19.1 C 9.7 19.0 9.7 18.9 9.7 18.8 L 9.7 9.0 C 9.7 8.8 9.7 8.7 9.8 8.5 C 9.9 8.4 10.0 8.4 10.3 8.4 C 10.5 8.4 10.6 8.4 10.8 8.5 C 10.9 8.6 11.0 8.8 11.0 8.9 L 11.0 11.8 L 10.3 11.8 L 10.3 13.6 L 13.0 13.6 L 13.0 9.0 C 13.0 8.2 12.8 7.5 12.3 7.0 C 11.9 6.6 11.2 6.4 10.3 6.4 C 9.4 6.4 8.7 6.6 8.3 7.0 C 7.8 7.5 7.6 8.2 7.6 9.1 L 7.6 18.8 C 7.6 19.7 7.8 20.4 8.3 20.9 C 8.8 21.4 9.5 21.6 10.4 21.6 L 10.4 21.6 C 11.3 21.6 11.9 21.4 12.4 20.9 C 12.9 20.4 13.1 19.7 13.1 18.8 Z M 26.1 14.0 C 26.1 14.5 26.5 14.9 27.0 14.9 C 27.0 15.5 26.9 16.0 26.8 16.5 L 26.8 16.5 C 26.3 16.3 25.8 16.6 25.7 17.1 C 25.5 17.6 25.8 18.1 26.3 18.3 L 26.3 18.3 C 26.1 18.8 26.0 19.2 25.7 19.7 L 25.7 19.7 C 25.3 19.4 24.7 19.6 24.5 20.0 C 24.2 20.5 24.3 21.0 24.8 21.3 L 24.8 21.3 C 24.5 21.7 24.2 22.1 23.9 22.5 L 23.9 22.5 C 23.5 22.2 22.9 22.2 22.5 22.5 C 22.2 22.9 22.2 23.5 22.5 23.9 L 22.5 23.9 C 22.1 24.2 21.7 24.5 21.3 24.8 L 21.3 24.8 C 21.0 24.3 20.5 24.2 20.0 24.5 C 19.6 24.7 19.4 25.3 19.7 25.7 L 19.7 25.7 C 19.2 26.0 18.8 26.1 18.3 26.3 L 18.3 26.3 C 18.1 25.8 17.6 25.5 17.1 25.7 C 16.6 25.8 16.3 26.3 16.5 26.8 L 16.5 26.8 C 16.0 26.9 15.5 27.0 14.9 27.0 C 14.9 26.5 14.5 26.1 14.0 26.1 C 13.5 26.1 13.1 26.5 13.1 27.0 C 12.5 27.0 12.0 26.9 11.5 26.8 L 11.5 26.8 C 11.7 26.3 11.4 25.8 10.9 25.7 C 10.4 25.5 9.9 25.8 9.7 26.3 L 9.7 26.3 C 9.2 26.1 8.8 26.0 8.3 25.7 L 8.3 25.7 C 8.6 25.3 8.4 24.7 8.0 24.5 C 7.5 24.2 7.0 24.3 6.7 24.8 L 6.7 24.8 C 6.3 24.5 5.9 24.2 5.5 23.9 C 5.8 23.5 5.8 22.9 5.5 22.5 C 5.1 22.2 4.5 22.2 4.1 22.5 L 4.1 22.5 C 3.8 22.1 3.5 21.7 3.2 21.3 L 3.2 21.3 C 3.7 21.0 3.8 20.5 3.5 20.0 C 3.3 19.6 2.7 19.4 2.3 19.7 L 2.3 19.7 C 2.0 19.2 1.9 18.8 1.7 18.3 L 1.7 18.3 C 2.2 18.1 2.5 17.6 2.3 17.1 C 2.2 16.6 1.7 16.3 1.2 16.5 L 1.2 16.5 C 1.1 16.0 1.0 15.5 1.0 14.9 C 1.5 14.9 1.9 14.5 1.9 14.0 C 1.9 13.5 1.5 13.1 1.0 13.1 C 1.0 12.5 1.1 12.0 1.2 11.5 L 1.2 11.5 C 1.7 11.7 2.2 11.4 2.3 10.9 C 2.5 10.4 2.2 9.9 1.7 9.7 L 1.7 9.7 C 1.9 9.2 2.0 8.8 2.3 8.3 L 2.3 8.3 C 2.7 8.6 3.3 8.4 3.5 8.0 C 3.8 7.5 3.7 7.0 3.2 6.7 L 3.2 6.7 C 3.5 6.3 3.8 5.9 4.1 5.5 C 4.5 5.8 5.1 5.8 5.5 5.5 C 5.8 5.1 5.8 4.5 5.5 4.1 L 5.5 4.1 C 5.9 3.8 6.3 3.5 6.7 3.2 L 6.7 3.2 C 7.0 3.7 7.5 3.8 8.0 3.5 C 8.4 3.3 8.6 2.7 8.3 2.3 L 8.3 2.3 C 8.8 2.0 9.2 1.9 9.7 1.7 L 9.7 1.7 C 9.9 2.2 10.4 2.5 10.9 2.3 C 11.4 2.2 11.7 1.7 11.5 1.2 L 11.5 1.2 C 12.0 1.1 12.5 1.0 13.1 1.0 C 13.1 1.5 13.5 1.9 14.0 1.9 C 14.5 1.9 14.9 1.5 14.9 1.0 L 14.9 1.0 C 15.5 1.0 16.0 1.1 16.5 1.2 L 16.5 1.2 C 16.3 1.7 16.6 2.2 17.1 2.3 C 17.6 2.5 18.1 2.2 18.3 1.7 L 18.3 1.7 C 18.8 1.9 19.2 2.0 19.7 2.3 L 19.7 2.3 C 19.4 2.7 19.6 3.3 20.0 3.5 C 20.5 3.8 21.0 3.7 21.3 3.2 L 21.3 3.2 C 21.7 3.5 22.1 3.8 22.5 4.1 L 22.5 4.1 C 22.2 4.5 22.2 5.1 22.5 5.5 C 22.9 5.8 23.5 5.8 23.9 5.5 L 23.9 5.5 C 24.2 5.9 24.5 6.3 24.8 6.7 L 24.8 6.7 C 24.3 7.0 24.2 7.5 24.5 8.0 C 24.7 8.4 25.3 8.6 25.7 8.3 L 25.7 8.3 C 26.0 8.8 26.1 9.2 26.3 9.7 L 26.3 9.7 C 25.8 9.9 25.5 10.4 25.7 10.9 C 25.8 11.4 26.3 11.7 26.8 11.5 L 26.8 11.5 C 26.9 12.0 27.0 12.5 27.0 13.1 C 26.5 13.1 26.1 13.5 26.1 14.0 " fill="#FDFDFD"></path><path d="M 16.9 13.7 C 16.4 13.7 16.0 13.3 16.0 12.8 C 16.0 12.3 16.4 11.9 16.9 11.9 C 17.4 11.9 17.8 12.3 17.8 12.8 C 17.8 13.3 17.4 13.7 16.9 13.7 " fill="#FDFDFD"></path></g></g></g></g></g></svg>