<?xml version="1.0" encoding="UTF-8" standalone="no"?><svg xmlns="http://www.w3.org/2000/svg" xmlns:xlink="http://www.w3.org/1999/xlink" clip-rule="evenodd" stroke-miterlimit="4.00" viewBox="0 0 407 77"><desc>SVG generated by Keynote</desc><defs></defs><g transform="matrix(1.00, 0.00, -0.00, -1.00, 0.0, 77.0)"><text xml:space="preserve" font-family="LucidaGrande" font-size="15.4" fill="#FEFFFE" transform="matrix(1.00, 0.00, -0.00, -1.00, 0.2, 60.9)">‣</text><text xml:space="preserve" font-family="Helvetica" font-size="22.0" fill="#FEFFFE" transform="matrix(1.00, 0.00, -0.00, -1.00, 14.0, 59.0)">S</text><text xml:space="preserve" font-family="Helvetica" font-size="22.0" fill="#FEFFFE" transform="matrix(1.00, 0.00, -0.00, -1.00, 28.7, 59.0)">o</text><text xml:space="preserve" font-family="Helvetica" font-size="22.0" fill="#FEFFFE" transform="matrix(1.00, 0.00, -0.00, -1.00, 40.9, 59.0)">u</text><text xml:space="preserve" font-family="Helvetica" font-size="22.0" fill="#FEFFFE" transform="matrix(1.00, 0.00, -0.00, -1.00, 53.2, 59.0)">r</text><text xml:space="preserve" font-family="Helvetica" font-size="22.0" fill="#FEFFFE" transform="matrix(1.00, 0.00, -0.00, -1.00, 60.5, 59.0)">c</text><text xml:space="preserve" font-family="Helvetica" font-size="22.0" fill="#FEFFFE" transform="matrix(1.00, 0.00, -0.00, -1.00, 71.5, 59.0)">e</text><text xml:space="preserve" font-family="Helvetica" font-size="22.0" fill="#FEFFFE" transform="matrix(1.00, 0.00, -0.00, -1.00, 83.7, 59.0)">s</text><text xml:space="preserve" font-family="Helvetica" font-size="22.0" fill="#FEFFFE" transform="matrix(1.00, 0.00, -0.00, -1.00, 94.7, 59.0)"> </text><text xml:space="preserve" font-family="Helvetica" font-size="22.0" fill="#FEFFFE" transform="matrix(1.00, 0.00, -0.00, -1.00, 100.8, 59.0)">a</text><text xml:space="preserve" font-family="Helvetica" font-size="22.0" fill="#FEFFFE" transform="matrix(1.00, 0.00, -0.00, -1.00, 113.1, 59.0)">r</text><text xml:space="preserve" font-family="Helvetica" font-size="22.0" fill="#FEFFFE" transform="matrix(1.00, 0.00, -0.00, -1.00, 120.4, 59.0)">e</text><text xml:space="preserve" font-family="Helvetica" font-size="22.0" fill="#FEFFFE" transform="matrix(1.00, 0.00, -0.00, -1.00, 132.6, 59.0)"> </text><text xml:space="preserve" font-family="Helvetica" font-size="22.0" fill="#FEFFFE" transform="matrix(1.00, 0.00, -0.00, -1.00, 138.7, 59.0)">v</text><text xml:space="preserve" font-family="Helvetica" font-size="22.0" fill="#FEFFFE" transform="matrix(1.00, 0.00, -0.00, -1.00, 149.7, 59.0)">i</text><text xml:space="preserve" font-family="Helvetica" font-size="22.0" fill="#FEFFFE" transform="matrix(1.00, 0.00, -0.00, -1.00, 154.6, 59.0)">s</text><text xml:space="preserve" font-family="Helvetica" font-size="22.0" fill="#FEFFFE" transform="matrix(1.00, 0.00, -0.00, -1.00, 165.6, 59.0)">i</text><text xml:space="preserve" font-family="Helvetica" font-size="22.0" fill="#FEFFFE" transform="matrix(1.00, 0.00, -0.00, -1.00, 170.5, 59.0)">b</text><text xml:space="preserve" font-family="Helvetica" font-size="22.0" fill="#FEFFFE" transform="matrix(1.00, 0.00, -0.00, -1.00, 182.8, 59.0)">l</text><text xml:space="preserve" font-family="Helvetica" font-size="22.0" fill="#FEFFFE" transform="matrix(1.00, 0.00, -0.00, -1.00, 187.7, 59.0)">e</text><text xml:space="preserve" font-family="Helvetica" font-size="22.0" fill="#FEFFFE" transform="matrix(1.00, 0.00, -0.00, -1.00, 199.9, 59.0)"> </text><text xml:space="preserve" font-family="Helvetica" font-size="22.0" fill="#FEFFFE" transform="matrix(1.00, 0.00, -0.00, -1.00, 206.0, 59.0)">i</text><text xml:space="preserve" font-family="Helvetica" font-size="22.0" fill="#FEFFFE" transform="matrix(1.00, 0.00, -0.00, -1.00, 210.9, 59.0)">n</text><text xml:space="preserve" font-family="Helvetica" font-size="22.0" fill="#FEFFFE" transform="matrix(1.00, 0.00, -0.00, -1.00, 223.1, 59.0)"> </text><text xml:space="preserve" font-family="Helvetica" font-size="22.0" fill="#FEFFFE" transform="matrix(1.00, 0.00, -0.00, -1.00, 229.2, 59.0)">s</text><text xml:space="preserve" font-family="Helvetica" font-size="22.0" fill="#FEFFFE" transform="matrix(1.00, 0.00, -0.00, -1.00, 240.2, 59.0)">e</text><text xml:space="preserve" font-family="Helvetica" font-size="22.0" fill="#FEFFFE" transform="matrix(1.00, 0.00, -0.00, -1.00, 252.5, 59.0)">p</text><text xml:space="preserve" font-family="Helvetica" font-size="22.0" fill="#FEFFFE" transform="matrix(1.00, 0.00, -0.00, -1.00, 264.7, 59.0)">a</text><text xml:space="preserve" font-family="Helvetica" font-size="22.0" fill="#FEFFFE" transform="matrix(1.00, 0.00, -0.00, -1.00, 277.0, 59.0)">r</text><text xml:space="preserve" font-family="Helvetica" font-size="22.0" fill="#FEFFFE" transform="matrix(1.00, 0.00, -0.00, -1.00, 284.3, 59.0)">a</text><text xml:space="preserve" font-family="Helvetica" font-size="22.0" fill="#FEFFFE" transform="matrix(1.00, 0.00, -0.00, -1.00, 296.5, 59.0)">t</text><text xml:space="preserve" font-family="Helvetica" font-size="22.0" fill="#FEFFFE" transform="matrix(1.00, 0.00, -0.00, -1.00, 302.6, 59.0)">e</text><text xml:space="preserve" font-family="Helvetica" font-size="22.0" fill="#FEFFFE" transform="matrix(1.00, 0.00, -0.00, -1.00, 314.9, 59.0)"> </text><text xml:space="preserve" font-family="Helvetica" font-size="22.0" fill="#FEFFFE" transform="matrix(1.00, 0.00, -0.00, -1.00, 321.0, 59.0)">t</text><text xml:space="preserve" font-family="Helvetica" font-size="22.0" fill="#FEFFFE" transform="matrix(1.00, 0.00, -0.00, -1.00, 327.1, 59.0)">a</text><text xml:space="preserve" font-family="Helvetica" font-size="22.0" fill="#FEFFFE" transform="matrix(1.00, 0.00, -0.00, -1.00, 339.3, 59.0)">b</text><text xml:space="preserve" font-family="Helvetica" font-size="22.0" fill="#FEFFFE" transform="matrix(1.00, 0.00, -0.00, -1.00, 351.6, 59.0)">s</text><text xml:space="preserve" font-family="Helvetica" font-size="22.0" fill="#FEFFFE" transform="matrix(1.00, 0.00, -0.00, -1.00, 362.6, 59.0)"> </text><text xml:space="preserve" font-family="Helvetica" font-size="22.0" fill="#FEFFFE" transform="matrix(1.00, 0.00, -0.00, -1.00, 368.7, 59.0)">a</text><text xml:space="preserve" font-family="Helvetica" font-size="22.0" fill="#FEFFFE" transform="matrix(1.00, 0.00, -0.00, -1.00, 380.9, 59.0)">n</text><text xml:space="preserve" font-family="Helvetica" font-size="22.0" fill="#FEFFFE" transform="matrix(1.00, 0.00, -0.00, -1.00, 393.2, 59.0)">d</text><text xml:space="preserve" font-family="Helvetica" font-size="22.0" fill="#FEFFFE" transform="matrix(1.00, 0.00, -0.00, -1.00, 405.4, 59.0)"> </text><text xml:space="preserve" font-family="Helvetica" font-size="22.0" fill="#FEFFFE" transform="matrix(1.00, 0.00, -0.00, -1.00, 14.0, 33.0)">c</text><text xml:space="preserve" font-family="Helvetica" font-size="22.0" fill="#FEFFFE" transform="matrix(1.00, 0.00, -0.00, -1.00, 25.0, 33.0)">l</text><text xml:space="preserve" font-family="Helvetica" font-size="22.0" fill="#FEFFFE" transform="matrix(1.00, 0.00, -0.00, -1.00, 29.9, 33.0)">i</text><text xml:space="preserve" font-family="Helvetica" font-size="22.0" fill="#FEFFFE" transform="matrix(1.00, 0.00, -0.00, -1.00, 34.8, 33.0)">c</text><text xml:space="preserve" font-family="Helvetica" font-size="22.0" fill="#FEFFFE" transform="matrix(1.00, 0.00, -0.00, -1.00, 45.8, 33.0)">k</text><text xml:space="preserve" font-family="Helvetica" font-size="22.0" fill="#FEFFFE" transform="matrix(1.00, 0.00, -0.00, -1.00, 56.8, 33.0)">i</text><text xml:space="preserve" font-family="Helvetica" font-size="22.0" fill="#FEFFFE" transform="matrix(1.00, 0.00, -0.00, -1.00, 61.7, 33.0)">n</text><text xml:space="preserve" font-family="Helvetica" font-size="22.0" fill="#FEFFFE" transform="matrix(1.00, 0.00, -0.00, -1.00, 73.9, 33.0)">g</text><text xml:space="preserve" font-family="Helvetica" font-size="22.0" fill="#FEFFFE" transform="matrix(1.00, 0.00, -0.00, -1.00, 86.2, 33.0)"> </text><text xml:space="preserve" font-family="Helvetica" font-size="22.0" fill="#FEFFFE" transform="matrix(1.00, 0.00, -0.00, -1.00, 92.3, 33.0)"> </text><text xml:space="preserve" font-family="Helvetica" font-size="22.0" fill="#FEFFFE" transform="matrix(1.00, 0.00, -0.00, -1.00, 98.4, 33.0)">o</text><text xml:space="preserve" font-family="Helvetica" font-size="22.0" fill="#FEFFFE" transform="matrix(1.00, 0.00, -0.00, -1.00, 110.6, 33.0)">p</text><text xml:space="preserve" font-family="Helvetica" font-size="22.0" fill="#FEFFFE" transform="matrix(1.00, 0.00, -0.00, -1.00, 122.9, 33.0)">e</text><text xml:space="preserve" font-family="Helvetica" font-size="22.0" fill="#FEFFFE" transform="matrix(1.00, 0.00, -0.00, -1.00, 135.1, 33.0)">n</text><text xml:space="preserve" font-family="Helvetica" font-size="22.0" fill="#FEFFFE" transform="matrix(1.00, 0.00, -0.00, -1.00, 147.3, 33.0)">s</text><text xml:space="preserve" font-family="Helvetica" font-size="22.0" fill="#FEFFFE" transform="matrix(1.00, 0.00, -0.00, -1.00, 158.3, 33.0)"> </text><text xml:space="preserve" font-family="Helvetica" font-size="22.0" fill="#FEFFFE" transform="matrix(1.00, 0.00, -0.00, -1.00, 164.4, 33.0)">t</text><text xml:space="preserve" font-family="Helvetica" font-size="22.0" fill="#FEFFFE" transform="matrix(1.00, 0.00, -0.00, -1.00, 170.5, 33.0)">h</text><text xml:space="preserve" font-family="Helvetica" font-size="22.0" fill="#FEFFFE" transform="matrix(1.00, 0.00, -0.00, -1.00, 182.8, 33.0)">e</text><text xml:space="preserve" font-family="Helvetica" font-size="22.0" fill="#FEFFFE" transform="matrix(1.00, 0.00, -0.00, -1.00, 195.0, 33.0)"> </text><text xml:space="preserve" font-family="Helvetica" font-size="22.0" fill="#FEFFFE" transform="matrix(1.00, 0.00, -0.00, -1.00, 201.1, 33.0)">ﬁ</text><text xml:space="preserve" font-family="Helvetica" font-size="22.0" fill="#FEFFFE" transform="matrix(1.00, 0.00, -0.00, -1.00, 212.1, 33.0)">l</text><text xml:space="preserve" font-family="Helvetica" font-size="22.0" fill="#FEFFFE" transform="matrix(1.00, 0.00, -0.00, -1.00, 217.0, 33.0)">e</text><text xml:space="preserve" font-family="Helvetica" font-size="22.0" fill="#FEFFFE" transform="matrix(1.00, 0.00, -0.00, -1.00, 229.3, 33.0)"> </text><text xml:space="preserve" font-family="Helvetica" font-size="22.0" fill="#FEFFFE" transform="matrix(1.00, 0.00, -0.00, -1.00, 235.4, 33.0)">n</text><text xml:space="preserve" font-family="Helvetica" font-size="22.0" fill="#FEFFFE" transform="matrix(1.00, 0.00, -0.00, -1.00, 247.6, 33.0)">a</text><text xml:space="preserve" font-family="Helvetica" font-size="22.0" fill="#FEFFFE" transform="matrix(1.00, 0.00, -0.00, -1.00, 259.9, 33.0)">v</text><text xml:space="preserve" font-family="Helvetica" font-size="22.0" fill="#FEFFFE" transform="matrix(1.00, 0.00, -0.00, -1.00, 270.9, 33.0)">i</text><text xml:space="preserve" font-family="Helvetica" font-size="22.0" fill="#FEFFFE" transform="matrix(1.00, 0.00, -0.00, -1.00, 275.7, 33.0)">g</text><text xml:space="preserve" font-family="Helvetica" font-size="22.0" fill="#FEFFFE" transform="matrix(1.00, 0.00, -0.00, -1.00, 288.0, 33.0)">a</text><text xml:space="preserve" font-family="Helvetica" font-size="22.0" fill="#FEFFFE" transform="matrix(1.00, 0.00, -0.00, -1.00, 300.2, 33.0)">t</text><text xml:space="preserve" font-family="Helvetica" font-size="22.0" fill="#FEFFFE" transform="matrix(1.00, 0.00, -0.00, -1.00, 306.3, 33.0)">o</text><text xml:space="preserve" font-family="Helvetica" font-size="22.0" fill="#FEFFFE" transform="matrix(1.00, 0.00, -0.00, -1.00, 318.6, 33.0)">r</text><text xml:space="preserve" font-family="Helvetica" font-size="22.0" fill="#FEFFFE" transform="matrix(1.00, 0.00, -0.00, -1.00, 325.9, 33.0)"> </text><text xml:space="preserve" font-family="Helvetica" font-size="22.0" fill="#FEFFFE" transform="matrix(1.00, 0.00, -0.00, -1.00, 332.0, 33.0)">w</text><text xml:space="preserve" font-family="Helvetica" font-size="22.0" fill="#FEFFFE" transform="matrix(1.00, 0.00, -0.00, -1.00, 347.9, 33.0)">h</text><text xml:space="preserve" font-family="Helvetica" font-size="22.0" fill="#FEFFFE" transform="matrix(1.00, 0.00, -0.00, -1.00, 360.1, 33.0)">i</text><text xml:space="preserve" font-family="Helvetica" font-size="22.0" fill="#FEFFFE" transform="matrix(1.00, 0.00, -0.00, -1.00, 365.0, 33.0)">c</text><text xml:space="preserve" font-family="Helvetica" font-size="22.0" fill="#FEFFFE" transform="matrix(1.00, 0.00, -0.00, -1.00, 376.0, 33.0)">h</text><text xml:space="preserve" font-family="Helvetica" font-size="22.0" fill="#FEFFFE" transform="matrix(1.00, 0.00, -0.00, -1.00, 388.3, 33.0)"> </text><text xml:space="preserve" font-family="Helvetica" font-size="22.0" fill="#FEFFFE" transform="matrix(1.00, 0.00, -0.00, -1.00, 14.0, 7.0)">w</text><text xml:space="preserve" font-family="Helvetica" font-size="22.0" fill="#FEFFFE" transform="matrix(1.00, 0.00, -0.00, -1.00, 29.9, 7.0)">i</text><text xml:space="preserve" font-family="Helvetica" font-size="22.0" fill="#FEFFFE" transform="matrix(1.00, 0.00, -0.00, -1.00, 34.8, 7.0)">l</text><text xml:space="preserve" font-family="Helvetica" font-size="22.0" fill="#FEFFFE" transform="matrix(1.00, 0.00, -0.00, -1.00, 39.7, 7.0)">l</text><text xml:space="preserve" font-family="Helvetica" font-size="22.0" fill="#FEFFFE" transform="matrix(1.00, 0.00, -0.00, -1.00, 44.6, 7.0)"> </text><text xml:space="preserve" font-family="Helvetica" font-size="22.0" fill="#FEFFFE" transform="matrix(1.00, 0.00, -0.00, -1.00, 50.7, 7.0)">d</text><text xml:space="preserve" font-family="Helvetica" font-size="22.0" fill="#FEFFFE" transform="matrix(1.00, 0.00, -0.00, -1.00, 62.9, 7.0)">i</text><text xml:space="preserve" font-family="Helvetica" font-size="22.0" fill="#FEFFFE" transform="matrix(1.00, 0.00, -0.00, -1.00, 67.8, 7.0)">s</text><text xml:space="preserve" font-family="Helvetica" font-size="22.0" fill="#FEFFFE" transform="matrix(1.00, 0.00, -0.00, -1.00, 78.8, 7.0)">p</text><text xml:space="preserve" font-family="Helvetica" font-size="22.0" fill="#FEFFFE" transform="matrix(1.00, 0.00, -0.00, -1.00, 91.0, 7.0)">l</text><text xml:space="preserve" font-family="Helvetica" font-size="22.0" fill="#FEFFFE" transform="matrix(1.00, 0.00, -0.00, -1.00, 95.9, 7.0)">a</text><text xml:space="preserve" font-family="Helvetica" font-size="22.0" fill="#FEFFFE" transform="matrix(1.00, 0.00, -0.00, -1.00, 108.2, 7.0)">y</text><text xml:space="preserve" font-family="Helvetica" font-size="22.0" fill="#FEFFFE" transform="matrix(1.00, 0.00, -0.00, -1.00, 119.2, 7.0)"> </text><text xml:space="preserve" font-family="Helvetica" font-size="22.0" fill="#FEFFFE" transform="matrix(1.00, 0.00, -0.00, -1.00, 125.3, 7.0)">a</text><text xml:space="preserve" font-family="Helvetica" font-size="22.0" fill="#FEFFFE" transform="matrix(1.00, 0.00, -0.00, -1.00, 137.5, 7.0)">l</text><text xml:space="preserve" font-family="Helvetica" font-size="22.0" fill="#FEFFFE" transform="matrix(1.00, 0.00, -0.00, -1.00, 142.4, 7.0)">l</text><text xml:space="preserve" font-family="Helvetica" font-size="22.0" fill="#FEFFFE" transform="matrix(1.00, 0.00, -0.00, -1.00, 147.3, 7.0)"> </text><text xml:space="preserve" font-family="Helvetica" font-size="22.0" fill="#FEFFFE" transform="matrix(1.00, 0.00, -0.00, -1.00, 153.4, 7.0)">o</text><text xml:space="preserve" font-family="Helvetica" font-size="22.0" fill="#FEFFFE" transform="matrix(1.00, 0.00, -0.00, -1.00, 165.7, 7.0)">p</text><text xml:space="preserve" font-family="Helvetica" font-size="22.0" fill="#FEFFFE" transform="matrix(1.00, 0.00, -0.00, -1.00, 177.9, 7.0)">e</text><text xml:space="preserve" font-family="Helvetica" font-size="22.0" fill="#FEFFFE" transform="matrix(1.00, 0.00, -0.00, -1.00, 190.1, 7.0)">n</text><text xml:space="preserve" font-family="Helvetica" font-size="22.0" fill="#FEFFFE" transform="matrix(1.00, 0.00, -0.00, -1.00, 202.4, 7.0)"> </text><text xml:space="preserve" font-family="Helvetica" font-size="22.0" fill="#FEFFFE" transform="matrix(1.00, 0.00, -0.00, -1.00, 208.5, 7.0)">s</text><text xml:space="preserve" font-family="Helvetica" font-size="22.0" fill="#FEFFFE" transform="matrix(1.00, 0.00, -0.00, -1.00, 219.5, 7.0)">c</text><text xml:space="preserve" font-family="Helvetica" font-size="22.0" fill="#FEFFFE" transform="matrix(1.00, 0.00, -0.00, -1.00, 230.5, 7.0)">r</text><text xml:space="preserve" font-family="Helvetica" font-size="22.0" fill="#FEFFFE" transform="matrix(1.00, 0.00, -0.00, -1.00, 237.8, 7.0)">i</text><text xml:space="preserve" font-family="Helvetica" font-size="22.0" fill="#FEFFFE" transform="matrix(1.00, 0.00, -0.00, -1.00, 242.7, 7.0)">p</text><text xml:space="preserve" font-family="Helvetica" font-size="22.0" fill="#FEFFFE" transform="matrix(1.00, 0.00, -0.00, -1.00, 254.9, 7.0)">t</text><text xml:space="preserve" font-family="Helvetica" font-size="22.0" fill="#FEFFFE" transform="matrix(1.00, 0.00, -0.00, -1.00, 261.1, 7.0)">s</text><text xml:space="preserve" font-family="Helvetica" font-size="22.0" fill="#FEFFFE" transform="matrix(1.00, 0.00, -0.00, -1.00, 272.1, 7.0)">.</text></g></svg>