<?xml version="1.0" encoding="UTF-8" standalone="no"?><svg xmlns="http://www.w3.org/2000/svg" xmlns:xlink="http://www.w3.org/1999/xlink" clip-rule="evenodd" stroke-miterlimit="4.00" viewBox="0 0 384 102"><desc>SVG generated by Keynote</desc><defs></defs><g transform="matrix(1.00, 0.00, -0.00, -1.00, 0.0, 102.0)"><text xml:space="preserve" font-family="Helvetica-Bold" font-weight="bold" font-size="29.0" fill="#C82505" transform="matrix(1.00, 0.00, -0.00, -1.00, 0.0, 78.0)">S</text><text xml:space="preserve" font-family="Helvetica-Bold" font-weight="bold" font-size="29.0" fill="#C82505" transform="matrix(1.00, 0.00, -0.00, -1.00, 19.3, 78.0)">O</text><text xml:space="preserve" font-family="Helvetica-Bold" font-weight="bold" font-size="29.0" fill="#C82505" transform="matrix(1.00, 0.00, -0.00, -1.00, 41.9, 78.0)">U</text><text xml:space="preserve" font-family="Helvetica-Bold" font-weight="bold" font-size="29.0" fill="#C82505" transform="matrix(1.00, 0.00, -0.00, -1.00, 62.8, 78.0)">R</text><text xml:space="preserve" font-family="Helvetica-Bold" font-weight="bold" font-size="29.0" fill="#C82505" transform="matrix(1.00, 0.00, -0.00, -1.00, 83.8, 78.0)">C</text><text xml:space="preserve" font-family="Helvetica-Bold" font-weight="bold" font-size="29.0" fill="#C82505" transform="matrix(1.00, 0.00, -0.00, -1.00, 104.7, 78.0)">E</text><text xml:space="preserve" font-family="Helvetica-Bold" font-weight="bold" font-size="29.0" fill="#C82505" transform="matrix(1.00, 0.00, -0.00, -1.00, 124.1, 78.0)">S</text><text xml:space="preserve" font-family="Helvetica-Bold" font-weight="bold" font-size="29.0" fill="#67D6D2" transform="matrix(1.00, 0.00, -0.00, -1.00, 143.4, 78.0)"> </text><text xml:space="preserve" font-family="Helvetica-Bold" font-weight="bold" font-size="29.0" fill="#67D6D2" transform="matrix(1.00, 0.00, -0.00, -1.00, 151.5, 78.0)">-</text><text xml:space="preserve" font-family="Helvetica-Bold" font-weight="bold" font-size="29.0" fill="#67D6D2" transform="matrix(1.00, 0.00, -0.00, -1.00, 161.1, 78.0)"> </text><text xml:space="preserve" font-family="Helvetica-Bold" font-weight="bold" font-size="29.0" fill="#67D6D2" transform="matrix(1.00, 0.00, -0.00, -1.00, 169.2, 78.0)">W</text><text xml:space="preserve" font-family="Helvetica-Bold" font-weight="bold" font-size="29.0" fill="#67D6D2" transform="matrix(1.00, 0.00, -0.00, -1.00, 196.5, 78.0)">h</text><text xml:space="preserve" font-family="Helvetica-Bold" font-weight="bold" font-size="29.0" fill="#67D6D2" transform="matrix(1.00, 0.00, -0.00, -1.00, 214.2, 78.0)">a</text><text xml:space="preserve" font-family="Helvetica-Bold" font-weight="bold" font-size="29.0" fill="#67D6D2" transform="matrix(1.00, 0.00, -0.00, -1.00, 230.4, 78.0)">t</text><text xml:space="preserve" font-family="Helvetica-Bold" font-weight="bold" font-size="29.0" fill="#67D6D2" transform="matrix(1.00, 0.00, -0.00, -1.00, 240.0, 78.0)"> </text><text xml:space="preserve" font-family="Helvetica-Bold" font-weight="bold" font-size="29.0" fill="#67D6D2" transform="matrix(1.00, 0.00, -0.00, -1.00, 248.1, 78.0)">h</text><text xml:space="preserve" font-family="Helvetica-Bold" font-weight="bold" font-size="29.0" fill="#67D6D2" transform="matrix(1.00, 0.00, -0.00, -1.00, 265.8, 78.0)">a</text><text xml:space="preserve" font-family="Helvetica-Bold" font-weight="bold" font-size="29.0" fill="#67D6D2" transform="matrix(1.00, 0.00, -0.00, -1.00, 281.9, 78.0)">v</text><text xml:space="preserve" font-family="Helvetica-Bold" font-weight="bold" font-size="29.0" fill="#67D6D2" transform="matrix(1.00, 0.00, -0.00, -1.00, 298.1, 78.0)">e</text><text xml:space="preserve" font-family="Helvetica-Bold" font-weight="bold" font-size="29.0" fill="#67D6D2" transform="matrix(1.00, 0.00, -0.00, -1.00, 314.2, 78.0)"> </text><text xml:space="preserve" font-family="Helvetica-Bold" font-weight="bold" font-size="29.0" fill="#67D6D2" transform="matrix(1.00, 0.00, -0.00, -1.00, 322.3, 78.0)">y</text><text xml:space="preserve" font-family="Helvetica-Bold" font-weight="bold" font-size="29.0" fill="#67D6D2" transform="matrix(1.00, 0.00, -0.00, -1.00, 338.4, 78.0)">o</text><text xml:space="preserve" font-family="Helvetica-Bold" font-weight="bold" font-size="29.0" fill="#67D6D2" transform="matrix(1.00, 0.00, -0.00, -1.00, 356.1, 78.0)">u</text><text xml:space="preserve" font-family="Helvetica-Bold" font-weight="bold" font-size="29.0" fill="#67D6D2" transform="matrix(1.00, 0.00, -0.00, -1.00, 373.8, 78.0)"> </text><text xml:space="preserve" font-family="Helvetica-Bold" font-weight="bold" font-size="29.0" fill="#67D6D2" transform="matrix(1.00, 0.00, -0.00, -1.00, 0.0, 43.0)">l</text><text xml:space="preserve" font-family="Helvetica-Bold" font-weight="bold" font-size="29.0" fill="#67D6D2" transform="matrix(1.00, 0.00, -0.00, -1.00, 8.1, 43.0)">e</text><text xml:space="preserve" font-family="Helvetica-Bold" font-weight="bold" font-size="29.0" fill="#67D6D2" transform="matrix(1.00, 0.00, -0.00, -1.00, 24.2, 43.0)">a</text><text xml:space="preserve" font-family="Helvetica-Bold" font-weight="bold" font-size="29.0" fill="#67D6D2" transform="matrix(1.00, 0.00, -0.00, -1.00, 40.3, 43.0)">r</text><text xml:space="preserve" font-family="Helvetica-Bold" font-weight="bold" font-size="29.0" fill="#67D6D2" transform="matrix(1.00, 0.00, -0.00, -1.00, 51.6, 43.0)">n</text><text xml:space="preserve" font-family="Helvetica-Bold" font-weight="bold" font-size="29.0" fill="#67D6D2" transform="matrix(1.00, 0.00, -0.00, -1.00, 69.3, 43.0)">e</text><text xml:space="preserve" font-family="Helvetica-Bold" font-weight="bold" font-size="29.0" fill="#67D6D2" transform="matrix(1.00, 0.00, -0.00, -1.00, 85.5, 43.0)">d</text><text xml:space="preserve" font-family="Helvetica-Bold" font-weight="bold" font-size="29.0" fill="#67D6D2" transform="matrix(1.00, 0.00, -0.00, -1.00, 103.2, 43.0)"> </text><text xml:space="preserve" font-family="Helvetica-Bold" font-weight="bold" font-size="29.0" fill="#67D6D2" transform="matrix(1.00, 0.00, -0.00, -1.00, 111.2, 43.0)">f</text><text xml:space="preserve" font-family="Helvetica-Bold" font-weight="bold" font-size="29.0" fill="#67D6D2" transform="matrix(1.00, 0.00, -0.00, -1.00, 120.9, 43.0)">r</text><text xml:space="preserve" font-family="Helvetica-Bold" font-weight="bold" font-size="29.0" fill="#67D6D2" transform="matrix(1.00, 0.00, -0.00, -1.00, 132.2, 43.0)">o</text><text xml:space="preserve" font-family="Helvetica-Bold" font-weight="bold" font-size="29.0" fill="#67D6D2" transform="matrix(1.00, 0.00, -0.00, -1.00, 149.9, 43.0)">m</text><text xml:space="preserve" font-family="Helvetica-Bold" font-weight="bold" font-size="29.0" fill="#67D6D2" transform="matrix(1.00, 0.00, -0.00, -1.00, 175.7, 43.0)"> </text><text xml:space="preserve" font-family="Helvetica-Bold" font-weight="bold" font-size="29.0" fill="#67D6D2" transform="matrix(1.00, 0.00, -0.00, -1.00, 183.7, 43.0)">r</text><text xml:space="preserve" font-family="Helvetica-Bold" font-weight="bold" font-size="29.0" fill="#67D6D2" transform="matrix(1.00, 0.00, -0.00, -1.00, 195.0, 43.0)">e</text><text xml:space="preserve" font-family="Helvetica-Bold" font-weight="bold" font-size="29.0" fill="#67D6D2" transform="matrix(1.00, 0.00, -0.00, -1.00, 211.1, 43.0)">s</text><text xml:space="preserve" font-family="Helvetica-Bold" font-weight="bold" font-size="29.0" fill="#67D6D2" transform="matrix(1.00, 0.00, -0.00, -1.00, 227.3, 43.0)">e</text><text xml:space="preserve" font-family="Helvetica-Bold" font-weight="bold" font-size="29.0" fill="#67D6D2" transform="matrix(1.00, 0.00, -0.00, -1.00, 243.4, 43.0)">a</text><text xml:space="preserve" font-family="Helvetica-Bold" font-weight="bold" font-size="29.0" fill="#67D6D2" transform="matrix(1.00, 0.00, -0.00, -1.00, 259.5, 43.0)">r</text><text xml:space="preserve" font-family="Helvetica-Bold" font-weight="bold" font-size="29.0" fill="#67D6D2" transform="matrix(1.00, 0.00, -0.00, -1.00, 270.8, 43.0)">c</text><text xml:space="preserve" font-family="Helvetica-Bold" font-weight="bold" font-size="29.0" fill="#67D6D2" transform="matrix(1.00, 0.00, -0.00, -1.00, 287.0, 43.0)">h</text><text xml:space="preserve" font-family="Helvetica-Bold" font-weight="bold" font-size="29.0" fill="#67D6D2" transform="matrix(1.00, 0.00, -0.00, -1.00, 304.7, 43.0)">i</text><text xml:space="preserve" font-family="Helvetica-Bold" font-weight="bold" font-size="29.0" fill="#67D6D2" transform="matrix(1.00, 0.00, -0.00, -1.00, 312.7, 43.0)">n</text><text xml:space="preserve" font-family="Helvetica-Bold" font-weight="bold" font-size="29.0" fill="#67D6D2" transform="matrix(1.00, 0.00, -0.00, -1.00, 330.4, 43.0)">g</text><text xml:space="preserve" font-family="Helvetica-Bold" font-weight="bold" font-size="29.0" fill="#67D6D2" transform="matrix(1.00, 0.00, -0.00, -1.00, 348.1, 43.0)"> </text><text xml:space="preserve" font-family="Helvetica-Bold" font-weight="bold" font-size="29.0" fill="#67D6D2" transform="matrix(1.00, 0.00, -0.00, -1.00, 356.2, 43.0)">i</text><text xml:space="preserve" font-family="Helvetica-Bold" font-weight="bold" font-size="29.0" fill="#67D6D2" transform="matrix(1.00, 0.00, -0.00, -1.00, 364.2, 43.0)">n</text><text xml:space="preserve" font-family="Helvetica-Bold" font-weight="bold" font-size="29.0" fill="#67D6D2" transform="matrix(1.00, 0.00, -0.00, -1.00, 382.0, 43.0)"> </text><text xml:space="preserve" font-family="Helvetica-Bold" font-weight="bold" font-size="29.0" fill="#67D6D2" transform="matrix(1.00, 0.00, -0.00, -1.00, 0.0, 8.0)">p</text><text xml:space="preserve" font-family="Helvetica-Bold" font-weight="bold" font-size="29.0" fill="#67D6D2" transform="matrix(1.00, 0.00, -0.00, -1.00, 17.7, 8.0)">a</text><text xml:space="preserve" font-family="Helvetica-Bold" font-weight="bold" font-size="29.0" fill="#67D6D2" transform="matrix(1.00, 0.00, -0.00, -1.00, 33.8, 8.0)">i</text><text xml:space="preserve" font-family="Helvetica-Bold" font-weight="bold" font-size="29.0" fill="#67D6D2" transform="matrix(1.00, 0.00, -0.00, -1.00, 41.9, 8.0)">r</text><text xml:space="preserve" font-family="Helvetica-Bold" font-weight="bold" font-size="29.0" fill="#67D6D2" transform="matrix(1.00, 0.00, -0.00, -1.00, 53.2, 8.0)">s</text><text xml:space="preserve" font-family="Helvetica-Bold" font-weight="bold" font-size="29.0" fill="#67D6D2" transform="matrix(1.00, 0.00, -0.00, -1.00, 69.3, 8.0)">?</text></g></svg>