<?xml version="1.0" encoding="UTF-8" standalone="no"?><svg xmlns="http://www.w3.org/2000/svg" xmlns:xlink="http://www.w3.org/1999/xlink" clip-rule="evenodd" stroke-miterlimit="4.00" viewBox="0 0 378 90"><desc>SVG generated by Keynote</desc><defs></defs><g transform="matrix(1.00, 0.00, -0.00, -1.00, 0.0, 90.0)"><image xlink:href="EDDCE7F2936FED70144EB88BED7A1660.png" width="375.00" height="87.00" transform="matrix(1.00, 0.00, -0.00, -1.00, 2.0, 88.0)"></image><text xml:space="preserve" font-family="Helvetica-Bold" font-weight="bold" font-size="48.0" fill="#74F6F4" transform="matrix(1.00, 0.00, -0.00, -1.00, 19.0, 45.0)">E</text><text xml:space="preserve" font-family="Helvetica-Bold" font-weight="bold" font-size="48.0" fill="#74F6F4" transform="matrix(1.00, 0.00, -0.00, -1.00, 50.1, 45.0)">L</text><text xml:space="preserve" font-family="Helvetica-Bold" font-weight="bold" font-size="48.0" fill="#74F6F4" transform="matrix(1.00, 0.00, -0.00, -1.00, 78.4, 45.0)">E</text><text xml:space="preserve" font-family="Helvetica-Bold" font-weight="bold" font-size="48.0" fill="#74F6F4" transform="matrix(1.00, 0.00, -0.00, -1.00, 109.5, 45.0)">M</text><text xml:space="preserve" font-family="Helvetica-Bold" font-weight="bold" font-size="48.0" fill="#74F6F4" transform="matrix(1.00, 0.00, -0.00, -1.00, 148.5, 45.0)">E</text><text xml:space="preserve" font-family="Helvetica-Bold" font-weight="bold" font-size="48.0" fill="#74F6F4" transform="matrix(1.00, 0.00, -0.00, -1.00, 179.6, 45.0)">N</text><text xml:space="preserve" font-family="Helvetica-Bold" font-weight="bold" font-size="48.0" fill="#74F6F4" transform="matrix(1.00, 0.00, -0.00, -1.00, 213.3, 45.0)">T</text><text xml:space="preserve" font-family="Helvetica-Bold" font-weight="bold" font-size="48.0" fill="#74F6F4" transform="matrix(1.00, 0.00, -0.00, -1.00, 241.6, 45.0)"> </text><text xml:space="preserve" font-family="Helvetica-Bold" font-weight="bold" font-size="48.0" fill="#74F6F4" transform="matrix(1.00, 0.00, -0.00, -1.00, 254.0, 45.0)">T</text><text xml:space="preserve" font-family="Helvetica-Bold" font-weight="bold" font-size="48.0" fill="#74F6F4" transform="matrix(1.00, 0.00, -0.00, -1.00, 278.8, 45.0)">A</text><text xml:space="preserve" font-family="Helvetica-Bold" font-weight="bold" font-size="48.0" fill="#74F6F4" transform="matrix(1.00, 0.00, -0.00, -1.00, 312.5, 45.0)">B</text></g></svg>