<?xml version="1.0" encoding="UTF-8" standalone="no"?><svg xmlns="http://www.w3.org/2000/svg" xmlns:xlink="http://www.w3.org/1999/xlink" clip-rule="evenodd" stroke-miterlimit="4.00" viewBox="0 0 1024 640"><desc>SVG generated by Keynote</desc><defs></defs><g transform="matrix(1.00, 0.00, -0.00, -1.00, 0.0, 640.0)"><path d="M 0.0 640.0 L 1024.0 640.0 L 1024.0 0.0 L 0.0 0.0 Z M 0.0 640.0 " fill="#000000"></path><path d="M 0.0 0.0 L 50.7 50.7 " fill="none" stroke="#FEFFFF" stroke-width="12.00" transform="matrix(0.71, 0.71, 0.71, -0.71, 51.5, 571.1)"></path><path d="M 0.0 0.0 L 653.8 653.8 " fill="none" stroke="#FEFFFF" stroke-width="1.25" transform="matrix(0.71, 0.71, 0.71, -0.71, 50.2, 49.4)"></path><text xml:space="preserve" font-family="Helvetica-Bold" font-weight="bold" font-size="14.0" fill="#FEFFFE" transform="matrix(1.00, 0.00, -0.00, -1.00, 50.0, 30.0)">W</text><text xml:space="preserve" font-family="Helvetica-Bold" font-weight="bold" font-size="14.0" fill="#FEFFFE" transform="matrix(1.00, 0.00, -0.00, -1.00, 62.9, 30.0)">E</text><text xml:space="preserve" font-family="Helvetica-Bold" font-weight="bold" font-size="14.0" fill="#FEFFFE" transform="matrix(1.00, 0.00, -0.00, -1.00, 72.0, 30.0)">B</text><text xml:space="preserve" font-family="Helvetica-Bold" font-weight="bold" font-size="14.0" fill="#FEFFFE" transform="matrix(1.00, 0.00, -0.00, -1.00, 81.8, 30.0)"> </text><text xml:space="preserve" font-family="Helvetica-Bold" font-weight="bold" font-size="14.0" fill="#FEFFFE" transform="matrix(1.00, 0.00, -0.00, -1.00, 85.4, 30.0)">D</text><text xml:space="preserve" font-family="Helvetica-Bold" font-weight="bold" font-size="14.0" fill="#FEFFFE" transform="matrix(1.00, 0.00, -0.00, -1.00, 95.2, 30.0)">E</text><text xml:space="preserve" font-family="Helvetica-Bold" font-weight="bold" font-size="14.0" fill="#FEFFFE" transform="matrix(1.00, 0.00, -0.00, -1.00, 104.3, 30.0)">V</text><text xml:space="preserve" font-family="Helvetica-Bold" font-weight="bold" font-size="14.0" fill="#FEFFFE" transform="matrix(1.00, 0.00, -0.00, -1.00, 113.4, 30.0)">E</text><text xml:space="preserve" font-family="Helvetica-Bold" font-weight="bold" font-size="14.0" fill="#FEFFFE" transform="matrix(1.00, 0.00, -0.00, -1.00, 122.4, 30.0)">L</text><text xml:space="preserve" font-family="Helvetica-Bold" font-weight="bold" font-size="14.0" fill="#FEFFFE" transform="matrix(1.00, 0.00, -0.00, -1.00, 130.7, 30.0)">O</text><text xml:space="preserve" font-family="Helvetica-Bold" font-weight="bold" font-size="14.0" fill="#FEFFFE" transform="matrix(1.00, 0.00, -0.00, -1.00, 141.3, 30.0)">P</text><text xml:space="preserve" font-family="Helvetica-Bold" font-weight="bold" font-size="14.0" fill="#FEFFFE" transform="matrix(1.00, 0.00, -0.00, -1.00, 150.3, 30.0)">M</text><text xml:space="preserve" font-family="Helvetica-Bold" font-weight="bold" font-size="14.0" fill="#FEFFFE" transform="matrix(1.00, 0.00, -0.00, -1.00, 161.7, 30.0)">E</text><text xml:space="preserve" font-family="Helvetica-Bold" font-weight="bold" font-size="14.0" fill="#FEFFFE" transform="matrix(1.00, 0.00, -0.00, -1.00, 170.8, 30.0)">N</text><text xml:space="preserve" font-family="Helvetica-Bold" font-weight="bold" font-size="14.0" fill="#FEFFFE" transform="matrix(1.00, 0.00, -0.00, -1.00, 180.6, 30.0)">T</text><text xml:space="preserve" font-family="Helvetica-Bold" font-weight="bold" font-size="14.0" fill="#FEFFFE" transform="matrix(1.00, 0.00, -0.00, -1.00, 188.9, 30.0)"> </text><text xml:space="preserve" font-family="Helvetica-Bold" font-weight="bold" font-size="14.0" fill="#FEFFFE" transform="matrix(1.00, 0.00, -0.00, -1.00, 192.5, 30.0)">I</text><text xml:space="preserve" font-family="Helvetica-Bold" font-weight="bold" font-size="14.0" fill="#FEFFFE" transform="matrix(1.00, 0.00, -0.00, -1.00, 196.1, 30.0)">M</text><text xml:space="preserve" font-family="Helvetica-Bold" font-weight="bold" font-size="14.0" fill="#FEFFFE" transform="matrix(1.00, 0.00, -0.00, -1.00, 207.5, 30.0)">M</text><text xml:space="preserve" font-family="Helvetica-Bold" font-weight="bold" font-size="14.0" fill="#FEFFFE" transform="matrix(1.00, 0.00, -0.00, -1.00, 218.8, 30.0)">E</text><text xml:space="preserve" font-family="Helvetica-Bold" font-weight="bold" font-size="14.0" fill="#FEFFFE" transform="matrix(1.00, 0.00, -0.00, -1.00, 227.9, 30.0)">R</text><text xml:space="preserve" font-family="Helvetica-Bold" font-weight="bold" font-size="14.0" fill="#FEFFFE" transform="matrix(1.00, 0.00, -0.00, -1.00, 237.7, 30.0)">S</text><text xml:space="preserve" font-family="Helvetica-Bold" font-weight="bold" font-size="14.0" fill="#FEFFFE" transform="matrix(1.00, 0.00, -0.00, -1.00, 246.8, 30.0)">I</text><text xml:space="preserve" font-family="Helvetica-Bold" font-weight="bold" font-size="14.0" fill="#FEFFFE" transform="matrix(1.00, 0.00, -0.00, -1.00, 250.4, 30.0)">V</text><text xml:space="preserve" font-family="Helvetica-Bold" font-weight="bold" font-size="14.0" fill="#FEFFFE" transform="matrix(1.00, 0.00, -0.00, -1.00, 259.4, 30.0)">E</text><g><clipPath id="clip-100"><path d="M 945.5 46.1 L 978.5 46.1 L 978.5 14.6 L 945.5 14.6 Z M 945.5 46.1 "></path></clipPath><g clip-path="url(#clip-100)"><g><clipPath id="clip-101"><path d="M 949.0 17.0 L 975.0 17.0 L 975.0 43.0 L 949.0 43.0 Z M 949.0 17.0 "></path></clipPath><g clip-path="url(#clip-101)"><path d="M 966.0 22.5 L 965.5 26.1 L 964.3 26.1 L 963.8 22.5 L 961.6 22.5 L 963.6 37.5 L 966.2 37.5 L 968.2 22.5 Z M 961.1 32.6 L 959.1 32.6 L 959.1 34.8 C 959.1 34.9 959.0 35.0 959.0 35.1 C 959.0 35.2 959.0 35.3 958.9 35.4 C 958.9 35.4 958.8 35.5 958.7 35.6 C 958.6 35.6 958.5 35.6 958.4 35.6 C 958.4 35.6 958.4 35.6 958.3 35.6 L 958.3 35.6 C 958.2 35.6 958.1 35.6 958.0 35.6 C 957.9 35.5 957.9 35.4 957.8 35.4 C 957.8 35.3 957.7 35.2 957.7 35.1 C 957.7 35.0 957.7 34.9 957.7 34.8 L 957.7 25.0 C 957.7 24.8 957.7 24.7 957.8 24.5 C 957.9 24.4 958.0 24.4 958.3 24.4 C 958.5 24.4 958.6 24.4 958.8 24.5 C 958.9 24.6 959.0 24.8 959.0 24.9 L 959.0 27.8 L 958.3 27.8 L 958.3 29.6 L 961.0 29.6 L 961.0 25.0 C 961.0 24.2 960.8 23.5 960.3 23.0 C 959.9 22.6 959.2 22.4 958.3 22.4 C 957.4 22.4 956.7 22.6 956.3 23.0 C 955.8 23.5 955.6 24.2 955.6 25.1 L 955.6 34.8 C 955.6 35.7 955.8 36.4 956.3 36.9 C 956.8 37.4 957.5 37.6 958.4 37.6 L 958.4 37.6 C 959.3 37.6 959.9 37.4 960.4 36.9 C 960.9 36.4 961.1 35.7 961.1 34.8 Z M 974.1 30.0 C 974.1 30.5 974.5 30.9 975.0 30.9 C 975.0 31.5 974.9 32.0 974.8 32.5 L 974.8 32.5 C 974.3 32.3 973.8 32.6 973.7 33.1 C 973.5 33.6 973.8 34.1 974.3 34.3 L 974.3 34.3 C 974.1 34.8 974.0 35.2 973.7 35.7 L 973.7 35.7 C 973.3 35.4 972.7 35.6 972.5 36.0 C 972.2 36.5 972.3 37.0 972.8 37.3 L 972.8 37.3 C 972.5 37.7 972.2 38.1 971.9 38.5 L 971.9 38.5 C 971.5 38.2 970.9 38.2 970.5 38.5 C 970.2 38.9 970.2 39.5 970.5 39.9 L 970.5 39.9 C 970.1 40.2 969.7 40.5 969.3 40.8 L 969.3 40.8 C 969.0 40.3 968.5 40.2 968.0 40.5 C 967.6 40.7 967.4 41.3 967.7 41.7 L 967.7 41.7 C 967.2 42.0 966.8 42.1 966.3 42.3 L 966.3 42.3 C 966.1 41.8 965.6 41.5 965.1 41.7 C 964.6 41.8 964.3 42.3 964.5 42.8 L 964.5 42.8 C 964.0 42.9 963.5 43.0 962.9 43.0 C 962.9 42.5 962.5 42.1 962.0 42.1 C 961.5 42.1 961.1 42.5 961.1 43.0 C 960.5 43.0 960.0 42.9 959.5 42.8 L 959.5 42.8 C 959.7 42.3 959.4 41.8 958.9 41.7 C 958.4 41.5 957.9 41.8 957.7 42.3 L 957.7 42.3 C 957.2 42.1 956.8 42.0 956.3 41.7 L 956.3 41.7 C 956.6 41.3 956.4 40.7 956.0 40.5 C 955.5 40.2 955.0 40.3 954.7 40.8 L 954.7 40.8 C 954.3 40.5 953.9 40.2 953.5 39.9 C 953.8 39.5 953.8 38.9 953.5 38.5 C 953.1 38.2 952.5 38.2 952.1 38.5 L 952.1 38.5 C 951.8 38.1 951.5 37.7 951.2 37.3 L 951.2 37.3 C 951.7 37.0 951.8 36.5 951.5 36.0 C 951.3 35.6 950.7 35.4 950.3 35.7 L 950.3 35.7 C 950.0 35.2 949.9 34.8 949.7 34.3 L 949.7 34.3 C 950.2 34.1 950.5 33.6 950.3 33.1 C 950.2 32.6 949.7 32.3 949.2 32.5 L 949.2 32.5 C 949.1 32.0 949.0 31.5 949.0 30.9 C 949.5 30.9 949.9 30.5 949.9 30.0 C 949.9 29.5 949.5 29.1 949.0 29.1 C 949.0 28.5 949.1 28.0 949.2 27.5 L 949.2 27.5 C 949.7 27.7 950.2 27.4 950.3 26.9 C 950.5 26.4 950.2 25.9 949.7 25.7 L 949.7 25.7 C 949.9 25.2 950.0 24.8 950.3 24.3 L 950.3 24.3 C 950.7 24.6 951.3 24.4 951.5 24.0 C 951.8 23.5 951.7 23.0 951.2 22.7 L 951.2 22.7 C 951.5 22.3 951.8 21.9 952.1 21.5 C 952.5 21.8 953.1 21.8 953.5 21.5 C 953.8 21.1 953.8 20.5 953.5 20.1 L 953.5 20.1 C 953.9 19.8 954.3 19.5 954.7 19.2 L 954.7 19.2 C 955.0 19.7 955.5 19.8 956.0 19.5 C 956.4 19.3 956.6 18.7 956.3 18.3 L 956.3 18.3 C 956.8 18.0 957.2 17.9 957.7 17.7 L 957.7 17.7 C 957.9 18.2 958.4 18.5 958.9 18.3 C 959.4 18.2 959.7 17.7 959.5 17.2 L 959.5 17.2 C 960.0 17.1 960.5 17.0 961.1 17.0 C 961.1 17.5 961.5 17.9 962.0 17.9 C 962.5 17.9 962.9 17.5 962.9 17.0 L 962.9 17.0 C 963.5 17.0 964.0 17.1 964.5 17.2 L 964.5 17.2 C 964.3 17.7 964.6 18.2 965.1 18.3 C 965.6 18.5 966.1 18.2 966.3 17.7 L 966.3 17.7 C 966.8 17.9 967.2 18.0 967.7 18.3 L 967.7 18.3 C 967.4 18.7 967.6 19.3 968.0 19.5 C 968.5 19.8 969.0 19.7 969.3 19.2 L 969.3 19.2 C 969.7 19.5 970.1 19.8 970.5 20.1 L 970.5 20.1 C 970.2 20.5 970.2 21.1 970.5 21.5 C 970.9 21.8 971.5 21.8 971.9 21.5 L 971.9 21.5 C 972.2 21.9 972.5 22.3 972.8 22.7 L 972.8 22.7 C 972.3 23.0 972.2 23.5 972.5 24.0 C 972.7 24.4 973.3 24.6 973.7 24.3 L 973.7 24.3 C 974.0 24.8 974.1 25.2 974.3 25.7 L 974.3 25.7 C 973.8 25.9 973.5 26.4 973.7 26.9 C 973.8 27.4 974.3 27.7 974.8 27.5 L 974.8 27.5 C 974.9 28.0 975.0 28.5 975.0 29.1 C 974.5 29.1 974.1 29.5 974.1 30.0 " fill="#FDFDFD"></path><path d="M 964.9 29.7 C 964.4 29.7 964.0 29.3 964.0 28.8 C 964.0 28.3 964.4 27.9 964.9 27.9 C 965.4 27.9 965.8 28.3 965.8 28.8 C 965.8 29.3 965.4 29.7 964.9 29.7 " fill="#FDFDFD"></path></g></g></g></g><g opacity="0.30"><g><clipPath id="clip-102"><path d="M 0.0 0.0 L 1024.0 0.0 L 1024.0 640.0 L 0.0 640.0 Z M 0.0 0.0 "></path></clipPath><g clip-path="url(#clip-102)"><text xml:space="preserve" font-family="Helvetica-Bold" font-weight="bold" font-size="29.0" fill="#C82505" transform="matrix(1.00, 0.00, -0.00, -1.00, 51.0, 527.0)">N</text><text xml:space="preserve" font-family="Helvetica-Bold" font-weight="bold" font-size="29.0" fill="#C82505" transform="matrix(1.00, 0.00, -0.00, -1.00, 71.9, 527.0)">E</text><text xml:space="preserve" font-family="Helvetica-Bold" font-weight="bold" font-size="29.0" fill="#C82505" transform="matrix(1.00, 0.00, -0.00, -1.00, 91.3, 527.0)">T</text><text xml:space="preserve" font-family="Helvetica-Bold" font-weight="bold" font-size="29.0" fill="#C82505" transform="matrix(1.00, 0.00, -0.00, -1.00, 109.0, 527.0)">W</text><text xml:space="preserve" font-family="Helvetica-Bold" font-weight="bold" font-size="29.0" fill="#C82505" transform="matrix(1.00, 0.00, -0.00, -1.00, 136.4, 527.0)">O</text><text xml:space="preserve" font-family="Helvetica-Bold" font-weight="bold" font-size="29.0" fill="#C82505" transform="matrix(1.00, 0.00, -0.00, -1.00, 158.9, 527.0)">R</text><text xml:space="preserve" font-family="Helvetica-Bold" font-weight="bold" font-size="29.0" fill="#C82505" transform="matrix(1.00, 0.00, -0.00, -1.00, 179.9, 527.0)">K</text></g></g></g><image xlink:href="../../228E9E90-1DE7-46D0-9E28-419DFB818C50/assets/8CFDF4AB178C45F9422F0AD408B18B6F.png" width="745.00" height="419.00" transform="matrix(1.00, 0.00, -0.00, -1.00, 141.0, 489.0)"></image></g></svg>